SplineFontDB: 3.2
FontName: NewHeterodoxMono-Book
FullName: New Heterodox Mono Book
FamilyName: New Heterodox Mono
Weight: Book
Copyright: Copyright (C) 2006-2008 Alexey Kryukov <alexios@thessalonica.org.ru>\nCopyright (C) 2019 Hao Chi Kiang <hello@hckiang.com>
Version: 0.0.1
ItalicAngle: 0
UnderlinePosition: -198
UnderlineWidth: 40
Ascent: 762
Descent: 238
InvalidEm: 0
sfntRevision: 0x00020000
LayerCount: 2
Layer: 0 0 "Back" 1
Layer: 1 0 "Fore" 0
XUID: [1021 903 24678482 131528]
StyleMap: 0x0040
FSType: 0
OS2Version: 4
OS2_WeightWidthSlopeOnly: 0
OS2_UseTypoMetrics: 0
CreationTime: 1222415241
ModificationTime: 1623494471
PfmFamily: 17
TTFWeight: 400
TTFWidth: 5
LineGap: 236
VLineGap: 0
Panose: 2 4 5 3 5 5 5 2 3 3
OS2TypoAscent: 762
OS2TypoAOffset: 0
OS2TypoDescent: -238
OS2TypoDOffset: 0
OS2TypoLinegap: 236
OS2WinAscent: 952
OS2WinAOffset: 0
OS2WinDescent: 294
OS2WinDOffset: 0
HheadAscent: 952
HheadAOffset: 0
HheadDescent: -294
HheadDOffset: 0
OS2SubXSize: 640
OS2SubYSize: 660
OS2SubXOff: 0
OS2SubYOff: 480
OS2SupXSize: 640
OS2SupYSize: 660
OS2SupXOff: 0
OS2SupYOff: 0
OS2StrikeYSize: 40
OS2StrikeYPos: 212
OS2FamilyClass: 768
OS2Vendor: 'PfEd'
OS2CodePages: 2000009f.00000000
OS2UnicodeRanges: e0000aff.520120ff.02000000.00000000
MarkAttachClasses: 1
DEI: 91125
TtTable: prep
PUSHW_1
 511
SCANCTRL
PUSHB_1
 1
SCANTYPE
SVTCA[y-axis]
MPPEM
PUSHB_1
 8
LT
IF
PUSHB_2
 1
 1
INSTCTRL
EIF
PUSHB_2
 70
 6
CALL
IF
POP
PUSHB_1
 16
EIF
MPPEM
PUSHB_1
 20
GT
IF
POP
PUSHB_1
 128
EIF
SCVTCI
PUSHB_1
 6
CALL
NOT
IF
SVTCA[y-axis]
PUSHB_1
 7
DUP
RCVT
PUSHB_1
 3
CALL
WCVTP
PUSHB_1
 8
DUP
RCVT
PUSHB_3
 7
 143
 2
CALL
PUSHB_1
 3
CALL
WCVTP
PUSHB_1
 9
DUP
RCVT
PUSHB_3
 8
 94
 2
CALL
PUSHB_1
 3
CALL
WCVTP
PUSHB_1
 10
DUP
RCVT
PUSHB_3
 9
 56
 2
CALL
PUSHB_1
 3
CALL
WCVTP
PUSHB_1
 11
DUP
RCVT
PUSHB_3
 10
 50
 2
CALL
PUSHB_1
 3
CALL
WCVTP
SVTCA[x-axis]
PUSHB_1
 12
DUP
RCVT
PUSHB_1
 3
CALL
WCVTP
PUSHB_1
 13
DUP
RCVT
PUSHB_3
 12
 77
 2
CALL
PUSHB_2
 3
 70
SROUND
CALL
WCVTP
PUSHB_1
 14
DUP
RCVT

StartChar: .notdef
Encoding: 1114112 -1 0
Width: 500
Flags: W
HStem: 0 32<88.4219 411.578> 682 32<88.4219 411.578>
VStem: 42 38<37.6719 676.328> 420 38<37.6719 676.328>
LayerCount: 2
Fore
SplineSet
420 80 m 2
 420 634 l 2
 420 666 405.333333333 682 376 682 c 2
 124 682 l 2
 94.6666666667 682 80 666 80 634 c 2
 80 80 l 2
 80 48 94.6666666667 32 124 32 c 2
 376 32 l 2
 405.333333333 32 420 48 420 80 c 2
42 0 m 1
 42 714 l 1
 458 714 l 1
 458 0 l 1
 42 0 l 1
EndSplineSet
Validated: 1
EndChar

StartChar: exclam
Encoding: 33 33 4
Width: 540
GlyphClass: 2
Flags: W
HStem: -12 124<226.049 313.951>
VStem: 208 124<6.04919 93.9508 447.455 682.117>
LayerCount: 2
Fore
SplineSet
282 156 m 1
 258 156 l 1
 242 356 l 2
 240 382 233.833333333 424.666666667 223.5 484 c 0
 213.166666667 543.333333333 208 589.333333333 208 622 c 0
 208 670 228.666666667 694 270 694 c 256
 311.333333333 694 332 670 332 622 c 0
 332 589.333333333 326.833333333 543.333333333 316.5 484 c 0
 306.166666667 424.666666667 300 382 298 356 c 2
 282 156 l 1
270 -12 m 256
 252 -12 237.166666667 -6.16666666667 225.5 5.5 c 0
 213.833333333 17.1666666667 208 32 208 50 c 256
 208 68 213.833333333 82.8333333333 225.5 94.5 c 0
 237.166666667 106.166666667 252 112 270 112 c 256
 288 112 302.833333333 106.166666667 314.5 94.5 c 0
 326.166666667 82.8333333333 332 68 332 50 c 256
 332 32 326.166666667 17.1666666667 314.5 5.5 c 0
 302.833333333 -6.16666666667 288 -12 270 -12 c 256
EndSplineSet
Validated: 1
EndChar

StartChar: numbersign
Encoding: 35 35 6
Width: 540
GlyphClass: 2
Flags: W
HStem: 0 21G<97.5 144.663 287.5 334.561> 196 40<35.5 128.5 177.5 317.5 369.5 501.5> 450 40<35.5 169.5 218.5 359.5 408.5 504.5>
DStem2: 97.5 0 141.5 0 0.154553 0.987984<6.80034 198.436 245.529 455.721 502.813 692.319> 287.5 0 331.5 0 0.154553 0.987984<6.80034 198.282 245.838 455.721 502.813 692.319>
LayerCount: 2
Fore
SplineSet
204.5 684 m 1
 248.5 684 l 1
 218.5 490 l 1
 364.5 490 l 1
 394.5 684 l 1
 438.5 684 l 1
 408.5 490 l 1
 504.5 490 l 1
 504.5 450 l 1
 403.5 450 l 1
 369.5 236 l 1
 501.5 236 l 1
 501.5 196 l 1
 361.5 196 l 1
 331.5 0 l 1
 287.5 0 l 1
 317.5 196 l 1
 172.5 196 l 1
 141.5 0 l 1
 97.5 0 l 1
 128.5 196 l 1
 35.5 196 l 1
 35.5 236 l 1
 133.5 236 l 1
 169.5 450 l 1
 35.5 450 l 1
 35.5 490 l 1
 175.5 490 l 1
 204.5 684 l 1
213.5 450 m 1
 177.5 236 l 1
 325.5 236 l 1
 359.5 450 l 1
 213.5 450 l 1
EndSplineSet
Validated: 1
EndChar

StartChar: dollar
Encoding: 36 36 7
Width: 540
GlyphClass: 2
Flags: W
HStem: -16 32<185.41 226 258 294> 668 32<258 294 326 362.488>
VStem: 60 62<77.8132 176.667> 84 48<473.008 605.923> 226 32<-84 -15 21 317 427 660 698 758> 294 32<-84 -15 23 285 403 663 699 758> 427 53<520.602 612.076> 434 44<90.3246 231.985>
LayerCount: 2
Fore
SplineSet
280 -16 m 0xcd
 272 -16 264.666666667 -15.6666666667 258 -15 c 1
 258 -84 l 1
 226 -84 l 1
 226 -11 l 1
 174 -1.66666666667 133.333333333 18.1666666667 104 48.5 c 0
 74.6666666667 78.8333333333 60 117.666666667 60 165 c 0xed
 60 188.333333333 68 208 84 224 c 0xdc
 96 236 110.666666667 242 128 242 c 0
 140 242 150 238 158 230 c 0
 166 222 170 211.333333333 170 198 c 0
 170 186.666666667 167.666666667 176.833333333 163 168.5 c 0
 156.636067708 157.136067708 146.969401041 144.969401041 134 132 c 0
 126 124 122 113 122 99 c 0xec
 122 81.6666666667 131 65.8333333333 149 51.5 c 0
 167 37.1666666667 192.666666667 27 226 21 c 1
 226 333 l 1
 220 335 l 1
 129.333333333 371 84 432 84 518 c 0
 84 560 96.1666666667 597 120.5 629 c 0
 144.833333333 661 180 682.333333333 226 693 c 1
 226 758 l 1
 258 758 l 1
 258 698 l 1
 271.333333333 699.333333333 278.666666667 700 280 700 c 0
 284 700 288.666666667 699.666666667 294 699 c 1
 294 758 l 1
 326 758 l 1
 326 695 l 1
 374.666666667 686.333333333 412.5 667 439.5 637 c 0
 466.5 607 480 573.333333333 480 536 c 0
 480 506 475.333333333 483.333333333 466 468 c 0
 455.333333333 450.666666667 439.666666667 442 419 442 c 0
 404.636363637 442 393.636363637 446.666666667 386 456 c 0
 380 463.333333333 377 471.666666667 377 481 c 0
 377 493.666666667 381 506 389 518 c 0
 393 523.333333333 398.5 529.166666667 405.5 535.5 c 0
 412.5 541.833333333 417 546.666666667 419 550 c 0
 424.333333333 558 427 568.333333333 427 581 c 0xde
 427 596.333333333 418.5 612.166666667 401.5 628.5 c 0
 384.5 644.833333333 359.333333333 656.333333333 326 663 c 1
 326 390 l 1
 346 379 l 2
 389.243243243 355.216216216 421.743243243 327.716216216 443.5 296.5 c 0
 466.5 263.5 478 227 478 187 c 0
 478 139 464.833333333 96.8333333333 438.5 60.5 c 0
 412.166666667 24.1666666667 374.666666667 0.666666666667 326 -10 c 1
 326 -84 l 1
 294 -84 l 1
 294 -15 l 1
 288.666666667 -15.6666666667 284 -16 280 -16 c 0xcd
258 317 m 1
 258 17 l 1
 264.666666667 16.3333333333 272 16 280 16 c 0
 284 16 288.666666667 16.3333333333 294 17 c 1
 294 303 l 1
 258 317 l 1
258 416 m 1
 294 403 l 1
 294 667 l 1
 288.666666667 667.666666667 284 668 280 668 c 0
 278.666666667 668 271.333333333 667.333333333 258 666 c 1
 258 416 l 1
132 540 m 0xdc
 132 511.333333333 138.166666667 489 150.5 473 c 0
 164.908099689 454.308411215 188.074766355 439.641744548 220 429 c 2
 226 427 l 1
 226 660 l 1
 194 650.666666667 170.333333333 634.833333333 155 612.5 c 0
 139.666666667 590.166666667 132 566 132 540 c 0xdc
434 155 m 0xcd
 434 189.666666667 427 215.5 413 232.5 c 0
 398.50877193 250.096491228 376.175438597 264.929824561 346 277 c 2
 326 285 l 1
 326 23 l 1
 360.666666667 32.3333333333 387.333333333 49.5 406 74.5 c 0
 424.666666667 99.5 434 126.333333333 434 155 c 0xcd
EndSplineSet
Validated: 1
EndChar

StartChar: percent
Encoding: 37 37 8
Width: 540
GlyphClass: 3
LigCaretCntFixed: 1
Flags: W
HStem: -16 20<372.876 415.74> 322 20<372.876 415.74> 354 20<122.876 165.74> 692 20<122.876 165.74>
VStem: 30 64<410.695 654.754> 196 64<412.281 653.15> 280 64<40.6951 284.754> 446 64<42.2812 283.15>
DStem2: 34 -18 70 -18 0.509212 0.860641<18.3316 836.586>
LayerCount: 2
Fore
SplineSet
144 374 m 4
 178.666666667 374 196 426.666666667 196 532 c 260
 196 638.666666667 178.666666667 692 144 692 c 4
 110.666666667 692 94 638.666666667 94 532 c 260
 94 426.666666667 110.666666667 374 144 374 c 4
144 354 m 260
 68 354 30 413.333333333 30 532 c 260
 30 652 68 712 144 712 c 260
 221.333333333 712 260 652 260 532 c 260
 260 413.333333333 221.333333333 354 144 354 c 260
460 702 m 1
 496 702 l 1
 70 -18 l 1
 34 -18 l 1
 460 702 l 1
394 4 m 0
 428.666666667 4 446 56.6666666667 446 162 c 256
 446 268.666666667 428.666666667 322 394 322 c 0
 360.666666667 322 344 268.666666667 344 162 c 256
 344 56.6666666667 360.666666667 4 394 4 c 0
394 -16 m 256
 318 -16 280 43.3333333333 280 162 c 256
 280 282 318 342 394 342 c 256
 471.333333333 342 510 282 510 162 c 256
 510 43.3333333333 471.333333333 -16 394 -16 c 256
EndSplineSet
Validated: 1
LCarets2: 2 320 540
EndChar

StartChar: ampersand
Encoding: 38 38 9
Width: 540
GlyphClass: 2
Flags: W
HStem: -18 44<431.046 493.913> -18 30<174.609 271.764> 366 32<368.542 418.622 481.833 527.399> 673 30<227.627 291.928>
VStem: 30.3398 88<65.8741 236.717> 150.34 47.4863<466.989 633.705> 316.534 24.9922<518.249 640.085>
DStem2: 170.612 353 198.38 333 0.850083 0.526649<-51.6566 27.437> 234.619 435 196.438 369 0.440597 -0.897705<-103.328 14.729 37.6976 42.4263 73.6792 318.528 332.731 366.089>
LayerCount: 2
Fore
SplineSet
30.33984375 145 m 0x7e
 30.33984375 213.988391377 58.1783111298 283.344152216 170.612304688 353 c 2
 196.438476562 369 l 1
 189.497070312 384 l 2
 163.392252604 440.4110861 150.33984375 489.077752767 150.33984375 530 c 0
 150.33984375 580 161.493815104 621.333333333 183.801757812 654 c 0
 206.109700521 686.666666667 231.610677083 703 260.3046875 703 c 0
 287.147135417 703 307.39453125 690.833333333 321.046875 666.5 c 0
 334.699869792 642.166666667 341.526367188 613.333333333 341.526367188 580 c 0
 341.526367188 542.666666667 334.005859375 510 318.96484375 482 c 0
 303.923828125 454 282.750651041 424.333333333 255.4453125 393 c 1
 374.84765625 149 l 1
 377.625 154 l 2
 383.218459034 164.069799667 394.306024138 195.069799667 410.887695312 247 c 0
 421.532226563 280.333333333 426.854492188 306.666666667 426.854492188 326 c 0
 426.854492188 338 424.193684896 347.666666667 418.872070312 355 c 0
 413.549804687 362.333333333 407.186197917 366 399.78125 366 c 2
 368.541992188 366 l 1
 368.541992188 398 l 1
 527.399414062 398 l 1
 527.399414062 366 l 1
 496.399414062 366 l 2
 489.732747395 366 477.732747395 347 460.399414062 309 c 1
 423.049774018 202.813647009 399.160451101 140.146980342 388.731445312 121 c 1
 404.929361979 88.3333333333 418.697591145 64.3333333333 430.036132812 49 c 0
 441.375325521 33.6666666667 452.598307292 26 463.705078125 26 c 0
 483.540817482 26 499.105596127 38 510.399414062 62 c 1
 526.399414062 54 l 1
 504.542516197 6 478.322138593 -18 447.73828125 -18 c 0xbe
 415.342447917 -18 382.483723958 9 349.162109375 63 c 1
 306.584635417 9 260.998697917 -18 212.404296875 -18 c 0
 91.0279947916 -18 30.33984375 36.3333333333 30.33984375 145 c 0x7e
118.33984375 153 m 0
 118.33984375 86.9741615585 154.563695989 12 220.735351562 12 c 0x7e
 259.611002604 12 297.560546875 37 334.583984375 87 c 1
 322.088867188 110 l 1
 210.322265625 341 l 1
 198.379882812 333 l 6
 136.950948721 291.849797361 118.33984375 227 118.33984375 153 c 0
197.826171875 560 m 0
 197.826171875 522.666666667 210.090494792 481 234.619140625 435 c 2
 241.561523438 422 l 1
 255.444986979 437.333333333 266.552083333 450.333333333 274.8828125 461 c 0
 283.213541667 471.666666667 292.23828125 488.833333333 301.95703125 512.5 c 0
 311.675130209 536.166666667 316.534179688 560.666666667 316.534179688 586 c 0
 316.534179688 609.333333333 311.212239584 629.666666667 300.568359375 647 c 0
 289.923828125 664.333333333 276.734049479 673 260.999023438 673 c 0
 242.023763021 673 226.751302083 662.5 215.181640625 641.5 c 0
 203.611328125 620.5 197.826171875 593.333333333 197.826171875 560 c 0
EndSplineSet
Validated: 1
EndChar

StartChar: quotesingle
Encoding: 39 39 10
Width: 540
GlyphClass: 2
Flags: W
HStem: 520 210<258 282>
VStem: 236 68<522.281 728.102>
LayerCount: 2
Fore
SplineSet
270 730 m 256
 292.666666667 730 304 714.666666667 304 684 c 0
 304 681.333333333 303.333333333 675.333333333 302 666 c 2
 282 520 l 1
 258 520 l 1
 238 666 l 2
 236.666666667 675.333333333 236 681.333333333 236 684 c 0
 236 714.666666667 247.333333333 730 270 730 c 256
EndSplineSet
Validated: 1
EndChar

StartChar: parenleft
Encoding: 40 40 11
Width: 540
GlyphClass: 2
Flags: W
HStem: 710 20G<323.333 378>
VStem: 157 50<98.3584 433.642>
LayerCount: 2
Fore
SplineSet
157 266 m 256
 157 360 174.833333333 447.166666667 210.5 527.5 c 0
 246.166666667 607.833333333 293.666666667 675.333333333 353 730 c 1
 383 706 l 1
 265.666666667 582.666666667 207 436 207 266 c 256
 207 96 265.666666667 -50.6666666667 383 -174 c 1
 353 -198 l 1
 293.666666667 -143.333333333 246.166666667 -75.8333333333 210.5 4.5 c 0
 174.833333333 84.8333333333 157 172 157 266 c 256
EndSplineSet
Validated: 1
EndChar

StartChar: parenright
Encoding: 41 41 12
Width: 540
GlyphClass: 2
Flags: W
HStem: 710 20G<162 216.667>
VStem: 333 50<98.3584 433.642>
LayerCount: 2
Fore
SplineSet
383 266 m 256
 383 172 365.166666667 84.8333333333 329.5 4.5 c 0
 293.833333333 -75.8333333333 246.333333333 -143.333333333 187 -198 c 1
 157 -174 l 1
 274.333333333 -50.6666666667 333 96 333 266 c 256
 333 436 274.333333333 582.666666667 157 706 c 1
 187 730 l 1
 246.333333333 675.333333333 293.833333333 607.833333333 329.5 527.5 c 0
 365.166666667 447.166666667 383 360 383 266 c 256
EndSplineSet
Validated: 1
EndChar

StartChar: asterisk
Encoding: 42 42 13
Width: 540
GlyphClass: 2
Flags: W
HStem: 134 84<97.3142 165.562 374.438 442.686> 228 54<238.188 257.998 282.002 301.812> 292 84<97.3142 165.563 374.438 442.686> 440 20G<264 276>
VStem: 232 76<62.3767 169.156 235.035 274.965 340.844 447.623> 258 24<141.511 227.996 282.004 368.489>
LayerCount: 2
Fore
SplineSet
270 460 m 260xf8
 282 460 291.333333333 456 298 448 c 4
 304.666666667 440 308 429.666666667 308 417 c 4xf8
 308 407.666666667 304 393.333333333 296 374 c 4
 286.666666667 350.666666667 282 325 282 297 c 4
 282 287 284.666666667 282 290 282 c 4
 293.333333333 282 298 284 304 288 c 4
 327.333333333 302.666666667 346 319 360 337 c 4
 379.333333333 363 398 376 416 376 c 4
 427.333333333 376 436.333333333 372.166666667 443 364.5 c 4
 449.666666667 356.833333333 453 348.333333333 453 339 c 4
 453 313.666666667 430.666666667 298 386 292 c 4
 361.333333333 288.666666667 336.666666667 280 312 266 c 5
 307 262 l 6
 303.666666667 260 302 257.666666667 302 255 c 260
 302 252.333333333 303.666666667 250 307 248 c 6
 312 244 l 5
 336.666666667 230 361.333333333 221.333333333 386 218 c 4
 430.666666667 212 453 196.333333333 453 171 c 4
 453 161.666666667 449.666666667 153.166666667 443 145.5 c 4
 436.333333333 137.833333333 427.333333333 134 416 134 c 4
 398 134 379.333333333 147 360 173 c 4
 346 191 327.333333333 207.333333333 304 222 c 4
 298 226 293.333333333 228 290 228 c 4
 284.666666667 228 282 223 282 213 c 4xf4
 282 185 286.666666667 159.333333333 296 136 c 4
 304 116.666666667 308 102.333333333 308 93 c 4
 308 80.3333333333 304.666666667 70 298 62 c 4
 291.333333333 54 282 50 270 50 c 260
 258 50 248.666666667 54 242 62 c 4
 235.333333333 70 232 80.3333333333 232 93 c 4xf8
 232 102.333333333 236 116.666666667 244 136 c 4
 253.333333333 159.333333333 258 185 258 213 c 4
 258 223 255.333333333 228 250 228 c 4
 246.666666667 228 242 226 236 222 c 4
 212.666666667 207.333333333 194 191 180 173 c 4
 160.666666667 147 142 134 124 134 c 4
 112.666666667 134 103.666666667 137.833333333 97 145.5 c 4
 90.3333333333 153.166666667 87 161.666666667 87 171 c 4
 87 196.333333333 109.333333333 212 154 218 c 4
 178.666666667 221.333333333 203.333333333 230 228 244 c 5
 233 248 l 6
 236.333333333 250 238 252.333333333 238 255 c 260
 238 257.666666667 236.333333333 260 233 262 c 6
 228 266 l 5
 203.333333333 280 178.666666667 288.666666667 154 292 c 4
 109.333333333 298 87 313.666666667 87 339 c 4
 87 348.333333333 90.3333333333 356.833333333 97 364.5 c 4
 103.666666667 372.166666667 112.666666667 376 124 376 c 4
 142 376 160.666666667 363 180 337 c 4
 194 319 212.666666667 302.666666667 236 288 c 4
 242 284 246.666666667 282 250 282 c 4
 255.333333333 282 258 287 258 297 c 4xf4
 258 325 253.333333333 350.666666667 244 374 c 4
 236 393.333333333 232 407.666666667 232 417 c 4
 232 429.666666667 235.333333333 440 242 448 c 4
 248.666666667 456 258 460 270 460 c 260xf8
EndSplineSet
Validated: 1
EndChar

StartChar: plus
Encoding: 43 43 14
Width: 540
GlyphClass: 2
Flags: W
HStem: 244 40<35 248 292 505>
VStem: 248 44<31 244 284 507>
LayerCount: 2
Fore
SplineSet
35 244 m 1
 35 284 l 1
 248 284 l 1
 248 507 l 1
 292 507 l 1
 292 284 l 1
 505 284 l 1
 505 244 l 1
 292 244 l 1
 292 31 l 1
 248 31 l 1
 248 244 l 1
 35 244 l 1
EndSplineSet
Validated: 1
EndChar

StartChar: comma
Encoding: 44 44 15
Width: 540
GlyphClass: 2
Flags: W
HStem: 30 110<219.563 284.807>
VStem: 303 36<-52.5469 52>
LayerCount: 2
Fore
SplineSet
201 82 m 0
 201 100 207 114.166666667 219 124.5 c 0
 231 134.833333333 244.333333333 140 259 140 c 0
 285 140 305.333333333 129.333333333 320 108 c 0
 332.666666667 90.6666666667 339 67 339 37 c 0
 339 -4.33333333333 328.666666667 -43.5 308 -80.5 c 0
 287.333333333 -117.5 262.333333333 -146.666666667 233 -168 c 1
 219 -152 l 1
 243.666666667 -133.333333333 263.833333333 -110.666666667 279.5 -84 c 0
 295.166666667 -57.3333333333 303 -30.6666666667 303 -4 c 0
 303 9.33333333333 297 19.3333333333 285 26 c 0
 281 28.6666666667 269.666666667 30 251 30 c 0
 236.333333333 30 224.333333333 35.1666666667 215 45.5 c 0
 205.666666667 55.8333333333 201 68 201 82 c 0
EndSplineSet
Validated: 1
EndChar

StartChar: hyphen
Encoding: 45 45 16
Width: 540
GlyphClass: 2
Flags: W
HStem: 244 40<35 505>
LayerCount: 2
Fore
SplineSet
35 244 m 1
 35 284 l 1
 505 284 l 1
 505 244 l 1
 35 244 l 1
EndSplineSet
Validated: 1
EndChar

StartChar: period
Encoding: 46 46 17
Width: 540
GlyphClass: 2
Flags: W
HStem: -12 124<226.049 313.951>
VStem: 208 124<6.04919 93.9508>
LayerCount: 2
Fore
SplineSet
270 -12 m 260
 252 -12 237.166666667 -6.16666666667 225.5 5.5 c 4
 213.833333333 17.1666666667 208 32 208 50 c 260
 208 68 213.833333333 82.8333333333 225.5 94.5 c 4
 237.166666667 106.166666667 252 112 270 112 c 260
 288 112 302.833333333 106.166666667 314.5 94.5 c 4
 326.166666667 82.8333333333 332 68 332 50 c 260
 332 32 326.166666667 17.1666666667 314.5 5.5 c 4
 302.833333333 -6.16666666667 288 -12 270 -12 c 260
EndSplineSet
Validated: 1
EndChar

StartChar: slash
Encoding: 47 47 18
Width: 540
GlyphClass: 2
Flags: W
HStem: 710 20G<392.578 439>
DStem2: 101 -198 141 -198 0.305743 0.952114<12.2297 974.673>
LayerCount: 2
Fore
SplineSet
141 -198 m 5
 101 -198 l 5
 399 730 l 5
 439 730 l 5
 141 -198 l 5
EndSplineSet
Validated: 1
EndChar

StartChar: zero
Encoding: 48 48 19
Width: 540
GlyphClass: 2
Flags: W
HStem: -16 32<217.616 322.384> 301.7 80.5996<241.432 298.568> 667 33<217.181 322.819>
VStem: 47 90<163.145 521.303> 229.7 80.5996<313.432 370.568> 403 90<163.145 521.303>
CounterMasks: 1 1c
LayerCount: 2
Fore
SplineSet
270 301.700195312 m 260
 258.300130208 301.700195312 248.658528645 305.491861979 241.075195312 313.075195312 c 4
 233.491861979 320.658528645 229.700195312 330.300130208 229.700195312 342 c 260
 229.700195312 353.699869792 233.491861979 363.341471355 241.075195312 370.924804688 c 4
 248.658528645 378.508138021 258.300130208 382.299804688 270 382.299804688 c 260
 281.699869792 382.299804688 291.341471355 378.508138021 298.924804688 370.924804688 c 4
 306.508138021 363.341471355 310.299804688 353.699869792 310.299804688 342 c 260
 310.299804688 330.300130208 306.508138021 320.658528645 298.924804688 313.075195312 c 4
 291.341471355 305.491861979 281.699869792 301.700195312 270 301.700195312 c 260
270 16 m 256
 293.333333333 16 313.833333333 23.5 331.5 38.5 c 0
 349.166666667 53.5 362.5 71.5 371.5 92.5 c 0
 380.5 113.5 387.666666667 140 393 172 c 0
 398.333333333 204 401.666666667 232.333333333 403 257 c 0
 404.333333333 281.666666667 405 309.666666667 405 341 c 0
 405 373 404.333333333 401.333333333 403 426 c 0
 401.666666667 450.666666667 398.333333333 479 393 511 c 0
 387.666666667 543 380.5 569.5 371.5 590.5 c 0
 362.5 611.5 349.166666667 629.5 331.5 644.5 c 0
 313.833333333 659.5 293.333333333 667 270 667 c 256
 246.666666667 667 226.166666667 659.5 208.5 644.5 c 0
 190.833333333 629.5 177.5 611.5 168.5 590.5 c 0
 159.5 569.5 152.333333333 543 147 511 c 0
 141.666666667 479 138.333333333 450.666666667 137 426 c 0
 135.666666667 401.333333333 135 373 135 341 c 0
 135 309.666666667 135.666666667 281.666666667 137 257 c 0
 138.333333333 232.333333333 141.666666667 204 147 172 c 0
 152.333333333 140 159.5 113.5 168.5 92.5 c 0
 177.5 71.5 190.833333333 53.5 208.5 38.5 c 0
 226.166666667 23.5 246.666666667 16 270 16 c 256
270 -16 m 256
 223.333333333 -16 181.166666667 1.5 143.5 36.5 c 0
 105.833333333 71.5 80.3333333333 116 67 170 c 0
 53.6666666667 224 47 281.333333333 47 342 c 256
 47 402.666666667 53.6666666667 460 67 514 c 0
 80.3333333333 568 105.833333333 612.5 143.5 647.5 c 0
 181.166666667 682.5 223.333333333 700 270 700 c 256
 316.666666667 700 358.833333333 682.5 396.5 647.5 c 0
 434.166666667 612.5 459.666666667 568 473 514 c 0
 486.333333333 460 493 402.666666667 493 342 c 256
 493 281.333333333 486.333333333 224 473 170 c 0
 459.666666667 116 434.166666667 71.5 396.5 36.5 c 0
 358.833333333 1.5 316.666666667 -16 270 -16 c 256
EndSplineSet
Validated: 1
EndChar

StartChar: one
Encoding: 49 49 20
Width: 540
GlyphClass: 2
Flags: W
HStem: 0 32<60 241.703 317.34 480> 549 36<60 226.863>
VStem: 244 72<34.7993 549> 284 32<643.824 684>
LayerCount: 2
Fore
SplineSet
60 0 m 1xe0
 60 32 l 1
 196 32 l 2
 228 32 244 40.6666666667 244 58 c 2
 244 549 l 1xe0
 60 549 l 1
 60 585 l 1
 155 585 l 2
 191 585 220.166666667 594.666666667 242.5 614 c 0
 264.833333333 633.333333333 278.666666667 656.666666667 284 684 c 1
 316 684 l 1xd0
 316 58 l 2
 316 40.6666666667 325.333333333 32 344 32 c 2
 480 32 l 5
 480 0 l 5
 60 0 l 1xe0
EndSplineSet
Validated: 1
EndChar

StartChar: two
Encoding: 50 50 21
Width: 540
GlyphClass: 2
Flags: W
HStem: 0 82<140.068 415.979> 403 106<107.256 189.012> 664 36<166.113 305.418>
VStem: 59 42<516.203 605.077> 375 88<417.454 597.614> 450 22<170.455 208>
DStem2: 183 225 227 216 0.760374 0.649486<-102.301 234.54>
LayerCount: 2
Fore
SplineSet
458 0 m 1xf4
 68 0 l 1
 68 16.6666666667 69 31.5 71 44.5 c 0
 73 57.5 77.1666666667 74.1666666667 83.5 94.5 c 0
 89.8333333333 114.833333333 101.5 136.166666667 118.5 158.5 c 0
 135.046666667 180.237777778 156.546666667 202.404444445 183 225 c 2
 279 307 l 2
 343 361.666666667 375 426.333333333 375 501 c 0
 375 553 362.333333333 593.166666667 337 621.5 c 0
 311.666666667 649.833333333 275.666666667 664 229 664 c 0
 196.333333333 664 166.833333333 653.166666667 140.5 631.5 c 0
 114.166666667 609.833333333 101 585.666666667 101 559 c 0
 101 530.333333333 114.666666667 513.666666667 142 509 c 0
 163.333333333 505.666666667 179.166666667 498.5 189.5 487.5 c 0
 199.833333333 476.5 205 463.333333333 205 448 c 0
 205 435.333333333 200.5 424.666666667 191.5 416 c 0
 182.5 407.333333333 170 403 154 403 c 0
 126.666666667 403 104 413.833333333 86 435.5 c 0
 68 457.166666667 59 485.666666667 59 521 c 0
 59 572.333333333 77.8333333333 615 115.5 649 c 0
 153.166666667 683 200.333333333 700 257 700 c 0
 394.333333333 700 463 633.666666667 463 501 c 0xf8
 463 427.791666667 417 358.125 325 292 c 1
 227 216 l 1
 169 175.333333333 140 138.666666667 140 106 c 0
 140 90 150.333333333 82 171 82 c 2
 360 82 l 2
 386.666666667 82 405.5 87.8333333333 416.5 99.5 c 0
 427.528169014 111.196542894 435.028169014 127.696542894 439 149 c 2
 450 208 l 1
 472 208 l 1
 458 0 l 1xf4
EndSplineSet
Validated: 1
EndChar

StartChar: three
Encoding: 51 51 22
Width: 540
GlyphClass: 2
Flags: W
HStem: -16 32<145.32 305.199> 96 110<114.855 176.981> 326 56<133.86 258.219> 346 28<195.438 308.881> 668 32<166.566 303.411>
VStem: 56 58<47.2557 131> 72 64<544 630.322> 361 96<444.676 610.931> 378 106<95.6025 268.464>
LayerCount: 2
Fore
SplineSet
255 700 m 0xdb
 315.666666667 700 364.5 683.833333333 401.5 651.5 c 0
 438.5 619.166666667 457 576.666666667 457 524 c 0xdb
 457 483.333333333 443.666666667 449.166666667 417 421.5 c 0
 390.333333333 393.833333333 361 376.333333333 329 369 c 1
 329 361 l 1
 365 355 399.833333333 336 433.5 304 c 0
 467.166666667 272 484 232.333333333 484 185 c 0
 484 124.333333333 460.5 75.6666666667 413.5 39 c 0
 366.5 2.33333333333 308.666666667 -16 240 -16 c 0
 186.666666667 -16 142.666666667 -4.5 108 18.5 c 0
 73.3333333333 41.5 56 75 56 119 c 0
 56 143 63 163.5 77 180.5 c 0
 91 197.5 109.333333333 206 132 206 c 0
 151.333333333 206 166.5 200.833333333 177.5 190.5 c 0
 188.5 180.166666667 194 166 194 148 c 0
 194 134 189.833333333 121.833333333 181.5 111.5 c 0
 173.166666667 101.166666667 162.333333333 96 149 96 c 0
 125.666666667 96 114 90.3333333333 114 79 c 0
 114 37 156 16 240 16 c 0
 273.333333333 16 300.833333333 25 322.5 43 c 0
 344.166666667 61 358.833333333 82 366.5 106 c 0
 374.166666667 130 378 156.666666667 378 186 c 0
 378 239.333333333 366.5 279.333333333 343.5 306 c 0
 320.5 332.666666667 292.333333333 346 259 346 c 0xdc80
 242.333333333 346 226.333333333 343 211 337 c 0
 189 329.666666667 172 326 160 326 c 0
 150 326 141.166666667 328.333333333 133.5 333 c 0
 125.833333333 337.666666667 122 344.666666667 122 354 c 0
 122 372.666666667 134.666666667 382 160 382 c 0xec80
 171.333333333 382 187 380.333333333 207 377 c 0
 220.333333333 375 238.666666667 374 262 374 c 0
 294 374 318.5 388.5 335.5 417.5 c 0
 352.5 446.5 361 479.666666667 361 517 c 0
 361 560.333333333 351 596.333333333 331 625 c 0
 311 653.666666667 282 668 244 668 c 0
 204.666666667 668 176.833333333 661.666666667 160.5 649 c 0
 144.166666667 636.333333333 136 622 136 606 c 0
 136 591.333333333 144.666666667 580 162 572 c 0
 186 562 198 545.666666667 198 523 c 0
 198 509 193.333333333 497.5 184 488.5 c 0
 174.666666667 479.5 161.333333333 475 144 475 c 0
 124.666666667 475 107.833333333 483.166666667 93.5 499.5 c 0
 79.1666666667 515.833333333 72 534 72 554 c 0
 72 600.666666667 89.8333333333 636.666666667 125.5 662 c 0
 161.166666667 687.333333333 204.333333333 700 255 700 c 0xdb
EndSplineSet
Validated: 1
EndChar

StartChar: four
Encoding: 52 52 23
Width: 540
GlyphClass: 2
Flags: W
HStem: 0 32<165 306.751 382.292 505> 192 36<81 309 381 502>
VStem: 309 72<34.7993 192 228 564>
DStem2: 35 228 81 228 0.561369 0.827566<25.823 431.877>
LayerCount: 2
Fore
SplineSet
309 564 m 5
 81 228 l 1
 309 228 l 1
 309 564 l 5
165 0 m 1
 165 32 l 1
 262 32 l 2
 293.333333333 32 309 40.6666666667 309 58 c 2
 309 192 l 1
 35 192 l 1
 35 228 l 1
 345 685 l 1
 381 685 l 1
 381 228 l 1
 502 228 l 1
 502 192 l 1
 381 192 l 1
 381 58 l 2
 381 40.6666666667 390 32 408 32 c 2
 505 32 l 1
 505 0 l 1
 165 0 l 1
EndSplineSet
Validated: 1
EndChar

StartChar: five
Encoding: 53 53 24
Width: 540
GlyphClass: 2
Flags: W
HStem: -16 32<157.242 310.535> 432 36<184.272 320.055> 582 76<145.733 325.668> 680 20G<90 119 392 428>
VStem: 56 72<57.4302 137.418> 90 36<313.098 387.109 411 602> 396 88<132.28 350.816>
LayerCount: 2
Fore
SplineSet
238 -16 m 0xf6
 182.666666667 -16 138.5 -2 105.5 26 c 0
 72.5 54 56 89 56 131 c 0
 56 162.333333333 64 186.333333333 80 203 c 0
 96 219.666666667 114.666666667 228 136 228 c 0
 154 228 168.166666667 222.5 178.5 211.5 c 0
 188.833333333 200.5 194 186.666666667 194 170 c 0
 194 145.333333333 182 127.666666667 158 117 c 0
 138 107.666666667 128 96.6666666667 128 84 c 0xfa
 128 38.6666666667 164.666666667 16 238 16 c 0
 343.333333333 16 396 91.3333333333 396 242 c 4
 396 368.666666667 344.666666667 432 242 432 c 0
 206 432 175 419 149 393 c 0
 133.666666667 377.666666667 126 359.333333333 126 338 c 0
 126 321.333333333 119.333333333 313 106 313 c 0
 95.3333333333 313 90 321.333333333 90 338 c 2
 90 683 l 1
 112 700 l 1
 126 688 146.5 678 173.5 670 c 0
 200.5 662 225.666666667 658 249 658 c 0
 312.333333333 658 368 672 416 700 c 1
 428 686 l 1
 404 654.666666667 374.5 629.5 339.5 610.5 c 0
 304.5 591.5 267.333333333 582 228 582 c 0
 186 582 152 588.666666667 126 602 c 1
 126 411 l 1
 132 409 l 1
 166 448.333333333 209.333333333 468 262 468 c 0
 332 468 386.5 447.333333333 425.5 406 c 0
 464.5 364.666666667 484 310 484 242 c 0
 484 168 460 106.5 412 57.5 c 0
 364 8.5 306 -16 238 -16 c 0xf6
EndSplineSet
Validated: 1
EndChar

StartChar: six
Encoding: 54 54 25
Width: 540
GlyphClass: 2
Flags: W
HStem: -16 32<222.614 328.904> 392 37<232.086 343.231> 668 32<250.502 373.057>
VStem: 64 88<345 487.179> 393 88<115.18 321.879> 393 62<561.333 643.881>
LayerCount: 2
Fore
SplineSet
277 16 m 0xf8
 305 16 328.166666667 26.6666666667 346.5 48 c 0
 364.833333333 69.3333333333 377.166666667 93.3333333333 383.5 120 c 0
 389.833333333 146.666666667 393 175.333333333 393 206 c 0
 393 259.333333333 385 303.666666667 369 339 c 0
 353 374.333333333 326.333333333 392 289 392 c 0
 253.666666667 392 224.166666667 374.833333333 200.5 340.5 c 0
 176.833333333 306.166666667 165 261.333333333 165 206 c 256
 165 150.666666667 173.666666667 105.166666667 191 69.5 c 0
 208.333333333 33.8333333333 237 16 277 16 c 0xf8
277 -16 m 0
 211.666666667 -16 159.833333333 13.6666666667 121.5 73 c 0
 83.1666666667 132.333333333 64 212.666666667 64 314 c 4
 64 368.666666667 70.1666666667 422.333333333 82.5 475 c 0
 94.8333333333 527.666666667 114.333333333 571.333333333 141 606 c 0
 189.666666667 668.666666667 246.666666667 700 312 700 c 0
 361.515151515 700 399.848484849 684 427 652 c 0
 445.666666667 630 455 603.666666667 455 573 c 0
 455 549.666666667 446.666666667 530.666666667 430 516 c 0
 418.666666667 506 405 501 389 501 c 0
 373.666666667 501 361.666666667 507 353 519 c 0
 347.666666667 525.666666667 345 535.333333333 345 548 c 0
 345 558 349.333333333 568 358 578 c 0
 364 584.666666667 370.333333333 590.333333333 377 595 c 0
 387.666666667 603 393 612.333333333 393 623 c 0xf4
 393 635 386.166666667 645.5 372.5 654.5 c 0
 358.833333333 663.5 338 668 310 668 c 0
 256 668 215 637.666666667 187 577 c 0
 175.666666667 552.333333333 167 521.333333333 161 484 c 0
 155 446.666666667 152 415.333333333 152 390 c 2
 152 345 l 1
 159 342 l 1
 171 367.333333333 189.5 388.166666667 214.5 404.5 c 0
 239.5 420.833333333 263.666666667 429 287 429 c 0
 331.666666667 429 369.333333333 418 400 396 c 0
 426 377.333333333 446 352.166666667 460 320.5 c 0
 474 288.833333333 481 255 481 219 c 0
 481 161 462.5 107.333333333 425.5 58 c 0
 388.5 8.66666666667 339 -16 277 -16 c 0
EndSplineSet
Validated: 1
EndChar

StartChar: seven
Encoding: 55 55 26
Width: 540
GlyphClass: 2
Flags: W
HStem: -16 21G<252 283.667> 602 82<127.021 420.728>
VStem: 71 22<476 513.545> 185 138<10.8169 176.789> 421 48<542.323 601.232>
LayerCount: 2
Fore
SplineSet
85 684 m 1
 469 684 l 1
 469 649.333333333 463.833333333 609.666666667 453.5 565 c 0
 443.166666667 520.333333333 425.666666667 479.666666667 401 443 c 2
 344 357 l 1
 316.666666667 304.333333333 303 261 303 227 c 0
 303 198.333333333 305 173.333333333 309 152 c 2
 315 117 l 2
 320.333333333 90.3333333333 323 67 323 47 c 0
 323 5 303.333333333 -16 264 -16 c 0
 240 -16 220.833333333 -7.33333333333 206.5 10 c 0
 192.166666667 27.3333333333 185 50.6666666667 185 80 c 0
 185 100.666666667 189.166666667 124 197.5 150 c 0
 205.833333333 176 213.666666667 196.166666667 221 210.5 c 0
 228.333333333 224.833333333 241 247.666666667 259 279 c 0
 277 310.333333333 287.333333333 328.333333333 290 333 c 2
 370 448 l 2
 404 496.666666667 421 539.333333333 421 576 c 0
 421 593.333333333 410.666666667 602 390 602 c 2
 183 602 l 2
 156.333333333 602 137.5 596.166666667 126.5 584.5 c 0
 115.5 572.833333333 108 556.333333333 104 535 c 2
 93 476 l 1
 71 476 l 1
 85 684 l 1
EndSplineSet
Validated: 1
EndChar

StartChar: eight
Encoding: 56 56 27
Width: 540
GlyphClass: 2
Flags: W
HStem: -16 32<192.679 343.568> 668 32<191.975 333.156>
VStem: 37 70<86.3315 262.35> 45 74<472.892 596.525> 413 64<451.299 599.694> 425 78<109.254 235.201>
DStem2: 204 430 194 334 0.934406 -0.35621<-74.7046 -6.52019 6.22269 152.843 169.009 261.334>
LayerCount: 2
Fore
SplineSet
266 668 m 0xd8
 224.666666667 668 189.833333333 656.333333333 161.5 633 c 0
 133.166666667 609.666666667 119 578.666666667 119 540 c 0
 119 512 125.833333333 489.666666667 139.5 473 c 0
 153.166666667 456.333333333 174.666666667 442 204 430 c 2
 333 381 l 1
 386.333333333 409.666666667 413 456.666666667 413 522 c 0
 413 563.333333333 398.666666667 598 370 626 c 0
 341.333333333 654 306.666666667 668 266 668 c 0xd8
258 -16 m 0
 196.666666667 -16 144.5 1.33333333333 101.5 36 c 0
 58.5 70.6666666667 37 116.666666667 37 174 c 0xe4
 37 222.666666667 50.6666666667 260.666666667 78 288 c 0
 105.333333333 315.333333333 134.333333333 333.333333333 165 342 c 1
 165 346 l 1
 154 351 l 2
 118.666666667 365.666666667 91.6666666667 387.333333333 73 416 c 0
 54.3333333333 444.666666667 45 478 45 516 c 0
 45 568.666666667 67.6666666667 612.5 113 647.5 c 0
 158.333333333 682.5 209.333333333 700 266 700 c 0
 333.333333333 700 385.333333333 682.833333333 422 648.5 c 0
 458.666666667 614.166666667 477 574 477 528 c 0xd8
 477 492 465.5 460.833333333 442.5 434.5 c 0
 419.5 408.166666667 392.666666667 388 362 374 c 1
 362 370 l 1
 385 361 l 2
 463.666666667 329 503 278.666666667 503 210 c 0xc4
 503 146 481.333333333 92.3333333333 438 49 c 0
 394.666666667 5.66666666667 334.666666667 -16 258 -16 c 0
269 16 m 0
 305.666666667 16 336.333333333 24.5 361 41.5 c 0
 385.666666667 58.5 402.5 77 411.5 97 c 0
 420.5 117 425 136.666666667 425 156 c 0
 425 193.333333333 416.833333333 221 400.5 239 c 0
 384.166666667 257 360.333333333 272.333333333 329 285 c 2
 194 334 l 1
 136 310 107 256 107 172 c 0
 107 118.666666667 123.166666667 79.3333333333 155.5 54 c 0
 187.833333333 28.6666666667 225.666666667 16 269 16 c 0
EndSplineSet
Validated: 1
EndChar

StartChar: nine
Encoding: 57 57 28
Width: 540
GlyphClass: 2
Flags: W
HStem: -16 32<166.943 289.498> 255 37<196.769 307.914> 668 32<211.096 315.038>
VStem: 59 88<362.121 568.82> 85 62<40.1187 122.667> 388 88<192.015 339>
LayerCount: 2
Fore
SplineSet
263 668 m 0xf4
 235 668 211.833333333 657.333333333 193.5 636 c 0
 175.166666667 614.666666667 162.833333333 590.666666667 156.5 564 c 0
 150.166666667 537.333333333 147 508.666666667 147 478 c 0
 147 424.666666667 155 380.333333333 171 345 c 0
 187 309.666666667 213.666666667 292 251 292 c 0
 286.333333333 292 315.833333333 309.166666667 339.5 343.5 c 0
 363.166666667 377.833333333 375 422.666666667 375 478 c 256
 375 533.333333333 366.333333333 578.833333333 349 614.5 c 0
 331.666666667 650.166666667 303 668 263 668 c 0xf4
228 -16 m 0
 178.484848485 -16 140.151515151 0 113 32 c 0
 94.3333333333 54 85 80.3333333333 85 111 c 0
 85 134.333333333 93.3333333333 153.333333333 110 168 c 0
 121.333333333 178 135 183 151 183 c 0
 166.333333333 183 178.333333333 177 187 165 c 0
 192.333333333 158.333333333 195 148.666666667 195 136 c 0
 195 126 190.666666667 116 182 106 c 0
 176 99.3333333333 169.666666667 93.6666666667 163 89 c 0
 152.333333333 81 147 71.6666666667 147 61 c 0xec
 147 49 153.833333333 38.5 167.5 29.5 c 0
 181.166666667 20.5 202 16 230 16 c 0
 284 16 325 46.3333333333 353 107 c 0
 364.333333333 131.666666667 373 162.666666667 379 200 c 0
 385 237.333333333 388 268.666666667 388 294 c 2
 388 339 l 1
 381 342 l 1
 369 316.666666667 350.5 295.833333333 325.5 279.5 c 0
 300.5 263.166666667 276.333333333 255 253 255 c 0
 208.333333333 255 170.666666667 266 140 288 c 0
 114 306.666666667 94 331.833333333 80 363.5 c 0
 66 395.166666667 59 429 59 465 c 0
 59 523 77.5 576.666666667 114.5 626 c 0
 151.5 675.333333333 201 700 263 700 c 0
 405 700 476 590 476 370 c 4
 476 242.066666667 450.333333333 144.733333333 399 78 c 0
 350.333333333 15.3333333333 293.333333333 -16 228 -16 c 0
EndSplineSet
Validated: 1
EndChar

StartChar: semicolon
Encoding: 894 894 30
AltUni2: 00003b.ffffffff.0
Width: 540
GlyphClass: 2
Flags: W
HStem: 30 110<219.563 284.807> 344 124<225.049 312.951>
VStem: 207 124<362.049 449.951> 303 36<-52.5469 52>
LayerCount: 2
Fore
SplineSet
269 344 m 256xe0
 251 344 236.166666667 349.833333333 224.5 361.5 c 0
 212.833333333 373.166666667 207 388 207 406 c 256
 207 424 212.833333333 438.833333333 224.5 450.5 c 0
 236.166666667 462.166666667 251 468 269 468 c 256
 287 468 301.833333333 462.166666667 313.5 450.5 c 0
 325.166666667 438.833333333 331 424 331 406 c 256
 331 388 325.166666667 373.166666667 313.5 361.5 c 0
 301.833333333 349.833333333 287 344 269 344 c 256xe0
201 82 m 0
 201 100 207 114.166666667 219 124.5 c 0
 231 134.833333333 244.333333333 140 259 140 c 0
 285 140 305.333333333 129.333333333 320 108 c 0
 332.666666667 90.6666666667 339 67 339 37 c 0
 339 -4.33333333333 328.666666667 -43.5 308 -80.5 c 0
 287.333333333 -117.5 262.333333333 -146.666666667 233 -168 c 1
 219 -152 l 1
 243.666666667 -133.333333333 263.833333333 -110.666666667 279.5 -84 c 0
 295.166666667 -57.3333333333 303 -30.6666666667 303 -4 c 0xd0
 303 9.33333333333 297 19.3333333333 285 26 c 0
 281 28.6666666667 269.666666667 30 251 30 c 0
 236.333333333 30 224.333333333 35.1666666667 215 45.5 c 0
 205.666666667 55.8333333333 201 68 201 82 c 0
EndSplineSet
Validated: 1
Colour: ffff
EndChar

StartChar: less
Encoding: 60 60 31
Width: 540
GlyphClass: 2
Flags: W
DStem2: -18 278 44 264 0.882704 0.469929<48.1487 629.883> 44 264 -18 250 0.882704 -0.469929<0 581.734>
LayerCount: 2
Fore
SplineSet
538 -46 m 1
 -18 250 l 1
 -18 278 l 1
 538 574 l 1
 558 538 l 1
 44 264 l 1
 558 -10 l 1
 538 -46 l 1
EndSplineSet
Validated: 1
EndChar

StartChar: equal
Encoding: 61 61 32
Width: 540
GlyphClass: 2
Flags: W
HStem: 148 40<78 462> 338 40<78 462>
LayerCount: 2
Fore
SplineSet
78 338 m 1
 78 378 l 1
 462 378 l 1
 462 338 l 1
 78 338 l 1
78 148 m 1
 78 188 l 1
 462 188 l 1
 462 148 l 1
 78 148 l 1
EndSplineSet
Validated: 1
EndChar

StartChar: greater
Encoding: 62 62 33
Width: 540
GlyphClass: 2
Flags: W
DStem2: 2 574 -18 538 0.882704 -0.469929<0 581.734> -18 -11 2 -47 0.882045 0.471165<0.678985 582.942>
LayerCount: 2
Fore
SplineSet
2 574 m 1
 558 278 l 1
 558 250 l 1
 2 -47 l 1
 -18 -11 l 1
 496 264 l 1
 -18 538 l 1
 2 574 l 1
EndSplineSet
Validated: 1
EndChar

StartChar: question
Encoding: 63 63 34
Width: 540
GlyphClass: 2
Flags: W
HStem: -12 124<228.049 315.951> 154 30<227.535 311.679> 468 85<135.661 197.559> 664 30<183.326 311.731>
VStem: 88 44<554.377 622.794> 182 34<194.004 282.068> 210 124<6.04919 93.9508> 332 24<208.765 279.562> 364 88<464.282 617.736>
LayerCount: 2
Fore
SplineSet
256 694 m 0xfd80
 310.666666667 694 357 680.5 395 653.5 c 0
 433 626.5 452 589.333333333 452 542 c 0
 452 521.333333333 448 501.666666667 440 483 c 0
 432 464.333333333 419.666666667 446.666666667 403 430 c 0
 386.333333333 413.333333333 371.666666667 400 359 390 c 0
 346.333333333 380 328.333333333 367 305 351 c 0
 245.666666667 310.333333333 216 270.666666667 216 232 c 0
 216 200 234.666666667 184 272 184 c 0
 289.333333333 184 303.666666667 190 315 202 c 0
 326.333333333 214 332 230 332 250 c 0
 332 260.666666667 330.333333333 269.333333333 327 276 c 1
 345 284 l 1
 352.333333333 272 356 260.333333333 356 249 c 0
 356 222.333333333 347.166666667 199.833333333 329.5 181.5 c 0
 311.833333333 163.166666667 292.666666667 154 272 154 c 0
 246 154 224.5 161 207.5 175 c 0
 190.5 189 182 209 182 235 c 0
 182 255 185.833333333 272 193.5 286 c 0
 201.166666667 300 213.333333333 316 230 334 c 2
 306 416 l 2
 325.333333333 437.333333333 339.833333333 457.333333333 349.5 476 c 0
 359.166666667 494.666666667 364 516.666666667 364 542 c 0
 364 577.333333333 354.333333333 606.5 335 629.5 c 0
 315.666666667 652.5 287 664 249 664 c 0
 218.333333333 664 191.166666667 656 167.5 640 c 0
 143.833333333 624 132 606 132 586 c 0
 132 570.666666667 134 561 138 557 c 0
 141.333333333 554.333333333 144.666666667 553 148 553 c 0
 152.666666667 553 156 553.333333333 158 554 c 0
 162.666666667 555.333333333 168.666666667 556 176 556 c 0
 187.333333333 556 196.166666667 552.166666667 202.5 544.5 c 0
 208.833333333 536.833333333 212 527.333333333 212 516 c 0
 212 502 207.333333333 490.5 198 481.5 c 0
 188.666666667 472.5 175 468 157 468 c 0
 138.333333333 468 122.166666667 475.833333333 108.5 491.5 c 0
 94.8333333333 507.166666667 88 528.333333333 88 555 c 0
 88 594.333333333 105.5 627.333333333 140.5 654 c 0
 175.5 680.666666667 214 694 256 694 c 0xfd80
272 -12 m 256
 254 -12 239.166666667 -6.16666666667 227.5 5.5 c 0
 215.833333333 17.1666666667 210 32 210 50 c 256
 210 68 215.833333333 82.8333333333 227.5 94.5 c 0
 239.166666667 106.166666667 254 112 272 112 c 256
 290 112 304.833333333 106.166666667 316.5 94.5 c 0
 328.166666667 82.8333333333 334 68 334 50 c 256xfa80
 334 32 328.166666667 17.1666666667 316.5 5.5 c 0
 304.833333333 -6.16666666667 290 -12 272 -12 c 256
EndSplineSet
Validated: 1
EndChar

StartChar: at
Encoding: 64 64 35
Width: 540
GlyphClass: 2
Flags: W
HStem: -20 32<193.131 334.972> 130 26<194.978 235.323 350.758 407.193> 554 26<264.767 309.972> 700 32<201.108 342.5>
VStem: 19 51<180.705 511.161> 141 50<159.77 410.058> 471 51<231.811 533.621>
DStem2: 308 335 346 257 0.189433 0.981894<-112.645 125.851 194.361 237.116>
LayerCount: 2
Fore
SplineSet
201 130 m 4
 179.666666667 130 164.333333333 140.833333333 155 162.5 c 4
 145.666666667 184.166666667 141 215.5 141 256.5 c 4
 141 297.5 145 338.666666667 153 380 c 4
 178.333333333 513.333333333 224.666666667 580 292 580 c 4
 319.333333333 580 336.333333333 562 343 526 c 5
 344 526 l 5
 352 568 l 5
 406 568 l 5
 346 257 l 6
 343.333333333 243 342 228.333333333 342 213 c 4
 342 200.333333333 343.333333333 190 346 182 c 4
 350.666666667 164.666666667 357.333333333 156 366 156 c 4
 436 156 471 236.333333333 471 397 c 4
 471 491.666666667 453 565.833333333 417 619.5 c 4
 381 673.166666667 330.666666667 700 266 700 c 4
 205.333333333 700 157.5 665.166666667 122.5 595.5 c 4
 87.5 525.833333333 70 440 70 338 c 4
 70 236 86 156.166666667 118 98.5 c 4
 150 40.8333333333 201.333333333 12 272 12 c 4
 312.666666667 12 354 31.3333333333 396 70 c 5
 408 45 l 5
 366.666666667 1.66666666667 319 -20 265 -20 c 4
 186.333333333 -20 125.666666667 14.3333333333 83 83 c 4
 40.3333333333 151.666666667 19 242.333333333 19 355 c 4
 19 459 43 547.833333333 91 621.5 c 4
 139 695.166666667 199.333333333 732 272 732 c 4
 348.666666667 732 409.5 698.5 454.5 631.5 c 4
 499.5 564.5 522 479.666666667 522 377 c 4
 522 212.333333333 466.333333333 130 355 130 c 4
 337 130 321.666666667 136.666666667 309 150 c 4
 296.333333333 163.333333333 289 181.666666667 287 205 c 5
 286 205 l 5
 278 187.666666667 266.5 170.833333333 251.5 154.5 c 4
 236.5 138.166666667 219.666666667 130 201 130 c 4
203 156 m 4
 226.333333333 156 247.333333333 173.5 266 208.5 c 4
 284.666666667 243.5 298.666666667 285.666666667 308 335 c 6
 325 420 l 6
 327 432 328 445.333333333 328 460 c 4
 328 474.666666667 326 490.666666667 322 508 c 4
 315.333333333 538.666666667 305.333333333 554 292 554 c 4
 250.666666667 554 220 481.333333333 200 336 c 4
 194.666666667 296.666666667 191.666666667 259 191 223 c 4
 191 178.333333333 195 156 203 156 c 4
EndSplineSet
Validated: 1
EndChar

StartChar: A
Encoding: 65 65 36
Width: 540
GlyphClass: 2
Flags: W
HStem: 0 32<10 55.4958 114.494 218 307 388.621 475.713 524> 210 36<160 343> 692 20G<247.168 305.157>
DStem2: 76 105 122 108.5 0.279939 0.960018<-32.5118 121.517 158.877 506.277> 300 712 259 579 0.249694 -0.968325<118.55 461.976 499.083 659.509>
AnchorPoint: "Bottom" 259 0 basechar 0
AnchorPoint: "Top" 276 762 basechar 0
LayerCount: 2
Fore
SplineSet
160 246 m 1
 343 246 l 1
 259 579 l 1
 160 246 l 1
353 32 m 2
 379.647333529 32 389.209087316 37.4020172003 389.209087316 53.6121272376 c 0
 389.209087316 60.1803714799 387.639215407 68.5231145964 385 79 c 2
 352 210 l 1
 150 210 l 1
 122 108.5 l 2
 116.029484699 86.8568820336 112.698777538 71.1876234224 112.698777538 59.8998167227 c 0
 112.698777538 36.6788284161 126.794220323 32 161 32 c 2
 218 32 l 1
 218 0 l 1
 10 0 l 1
 10 32 l 1
 37 32 l 2
 49 32 58.2814190342 44.2362788349 76 105 c 2
 253 712 l 1
 300 712 l 1
 464 76 l 2
 474.49710704 35.2917068466 493 32 504 32 c 2
 524 32 l 1
 524 0 l 1
 307 0 l 1
 307 32 l 1
 353 32 l 2
EndSplineSet
Validated: 524289
EndChar

StartChar: B
Encoding: 66 66 37
Width: 540
GlyphClass: 2
Flags: W
HStem: 0 32<25.25 102.767 178.387 369.408> 356 32<176.25 358.758> 680 32<25.25 102.767 178.387 357.628>
VStem: 104.25 72<33.6875 356 388 678.312> 405.949 88<459.877 620.808> 426.763 87.9873<102.629 274.899>
AnchorPoint: "Bottom" 301.85 0 basechar 0
AnchorPoint: "Top" 301.85 762 basechar 0
LayerCount: 2
Fore
SplineSet
176.25 356 m 1xf4
 176.25 59 l 2
 176.25 41 189.216471354 32 215.149414062 32 c 2
 310.75 32 l 2
 388.091796875 32 426.762695312 87.1666666667 426.762695312 197.5 c 0
 426.762695312 303.166666667 388.091796875 356 310.75 356 c 2
 176.25 356 l 1xf4
25.25 0 m 1
 25.25 32 l 1
 77.25 32 l 2
 95.25 32 104.25 41 104.25 59 c 2
 104.25 653 l 2
 104.25 671 95.25 680 77.25 680 c 2
 25.25 680 l 1
 25.25 712 l 1
 310.75 712 l 2
 353.682942708 712 394.949544271 695.833333333 434.549804688 663.5 c 0
 474.149414063 631.166666667 493.94921875 590.666666667 493.94921875 542 c 0xf8
 493.94921875 496.666666667 478.816080729 459.333333333 448.549804688 430 c 0
 418.282877604 400.666666667 388.916015625 381.666666667 360.44921875 373 c 1
 360.44921875 369 l 1
 390.782552083 365.666666667 424.082682292 347.833333333 460.349609375 315.5 c 0
 496.616536458 283.166666667 514.75 242.666666667 514.75 194 c 0
 514.75 133.333333333 493.583333333 85.8333333333 451.25 51.5 c 0
 408.916666667 17.1666666667 364.649739583 0 318.44921875 0 c 2
 25.25 0 l 1
176.25 388 m 1
 307.94921875 388 l 2
 345.749348958 388 371.532877604 401.833333333 385.299804688 429.5 c 0
 399.066080729 457.166666667 405.94921875 494.666666667 405.94921875 542 c 0
 405.94921875 582 397.082682292 615 379.349609375 641 c 0
 361.616536458 667 339.683268229 680 313.549804688 680 c 2
 215.149414062 680 l 2
 189.216471354 680 176.25 671 176.25 653 c 2
 176.25 388 l 1
EndSplineSet
Validated: 1
EndChar

StartChar: C
Encoding: 67 67 38
Width: 540
GlyphClass: 2
Flags: W
HStem: -18 32<227.281 363.775> 698 32<216.684 355.888> 702 20G<465.102 495>
VStem: 29 88<179.612 537.242> 470 25<444 500.13 693.417 722> 474 36<167.316 259>
LayerCount: 2
Fore
SplineSet
289 730 m 0xd4
 339 730 395 705 425 675 c 0
 436 662 442 650 447 650 c 0
 449 650 451 652 453 656 c 0
 455 660 456 665 458 673 c 2
 470 722 l 1
 495 722 l 1
 495 444 l 1
 470 444 l 1xb8
 453 535 432 601 406 642 c 0
 374 679 335 698 289 698 c 0
 124 698 117 514 117 362 c 256
 117 202 130 14 300 14 c 0
 409 14 467 131 474 259 c 1
 510 259 l 1
 503 130 420 -18 300 -18 c 0
 119 -18 29 108 29 361 c 0
 29 607 122 730 289 730 c 0xd4
EndSplineSet
Validated: 1
EndChar

StartChar: D
Encoding: 68 68 39
Width: 540
GlyphClass: 2
Flags: W
HStem: 0 32<0.650391 68.1672 143.787 317.428> 680 32<0.650391 68.1672 143.787 317.857>
VStem: 69.6504 72<33.6875 678.312> 422.35 88<203.404 517.845>
AnchorPoint: "Bottom" 265.25 0 basechar 0
AnchorPoint: "Top" 265.25 762 basechar 0
LayerCount: 2
Fore
SplineSet
0.650390625 0 m 1
 0.650390625 32 l 1
 42.650390625 32 l 2
 60.650390625 32 69.650390625 41 69.650390625 59 c 2
 69.650390625 653 l 2
 69.650390625 671 60.650390625 680 42.650390625 680 c 2
 0.650390625 680 l 1
 0.650390625 712 l 1
 254.150390625 712 l 2
 437.698884467 712 510.349609375 543.87708902 510.349609375 362 c 4
 510.349609375 181.186519551 436.204315229 0 254.150390625 0 c 2
 0.650390625 0 l 1
422.349609375 362 m 4
 422.349609375 505.947006575 403.580783943 680 251.349609375 680 c 2
 180.549804688 680 l 2
 154.616861979 680 141.650390625 671 141.650390625 653 c 2
 141.650390625 59 l 2
 141.650390625 41 154.616861979 32 180.549804688 32 c 2
 251.349609375 32 l 2
 405.944203665 32 422.349609375 218.30431851 422.349609375 362 c 4
EndSplineSet
Validated: 1
EndChar

StartChar: E
Encoding: 69 69 40
Width: 540
GlyphClass: 2
Flags: W
HStem: 0 32<34.2002 111.717 188.436 410.236> 344 36<185.2 317.905> 680 32<34.2002 111.717 188.436 413.434>
VStem: 113.2 72<36.1199 344 380 675.88> 344.2 26<205 310.97 412.825 518> 480.8 25<236 268 486 549.666>
AnchorPoint: "Bottom" 288.8 0 basechar 0
AnchorPoint: "Top" 288.8 762 basechar 0
LayerCount: 2
Fore
SplineSet
34.2001953125 0 m 1
 34.2001953125 32 l 1
 86.2001953125 32 l 2
 104.200195312 32 113.200195312 41 113.200195312 59 c 2
 113.200195312 653 l 2
 113.200195312 671 104.200195312 680 86.2001953125 680 c 2
 34.2001953125 680 l 1
 34.2001953125 712 l 1
 496.200195312 712 l 1
 500.200195312 486 l 1
 475.200195312 486 l 1
 474.5 506 l 2
 474.100722365 517.404750297 471.300592157 535.73808363 466.099609375 561 c 0
 461.432942708 583.666666667 454.899739583 604 446.5 622 c 0
 428.766276041 660.666666667 400.666341145 680 362.200195312 680 c 2
 244.099609375 680 l 2
 204.833333333 680 185.200195312 671 185.200195312 653 c 2
 185.200195312 380 l 1
 286.799804688 380 l 2
 299.400065104 380 309.900065104 384.166666667 318.299804688 392.5 c 0
 326.699544271 400.833333333 332.532877604 412.666666667 335.799804688 428 c 0
 339.066731771 443.333333333 341.283528645 457.666666667 342.450195312 471 c 0
 343.616861979 484.333333333 344.200195312 500 344.200195312 518 c 1
 370.200195312 518 l 1
 370.200195312 205 l 1
 344.200195312 205 l 1
 344.200195312 223.666666667 343.733398437 239.5 342.799804688 252.5 c 0
 341.866210937 265.5 339.649414062 279.833333333 336.149414062 295.5 c 0
 332.649414062 311.166666667 326.699544271 323.166666667 318.299804688 331.5 c 0
 309.900065104 339.833333333 299.400065104 344 286.799804688 344 c 2
 185.200195312 344 l 1
 185.200195312 59 l 2
 185.200195312 41 204.833333333 32 244.099609375 32 c 2
 361.200195312 32 l 2
 375.599934896 32 390.149739584 36.1666666667 404.849609375 44.5 c 0
 419.549479166 52.8333333333 431.566080729 65.6666666667 440.899414062 83 c 0
 450.232747395 101.666666667 458.282877604 126.333333333 465.049804688 157 c 0
 471.720078721 187.22865 476.036810492 213.561983333 478 236 c 2
 480.799804688 268 l 1
 505.799804688 268 l 1
 493.799804688 0 l 1
 34.2001953125 0 l 1
EndSplineSet
Validated: 1
EndChar

StartChar: F
Encoding: 70 70 41
Width: 540
GlyphClass: 2
Flags: W
HStem: 0 32<43 114.517 191.235 308.5> 344 36<188 320.704> 680 32<37 114.517 191.235 416.234>
VStem: 116 72<36.1199 344 380 675.88> 347 26<205 310.97 412.825 518> 478 25<486 575.54>
AnchorPoint: "Bottom" 233.6 0 basechar 0
AnchorPoint: "Top" 361.6 762 basechar 0
LayerCount: 2
Fore
SplineSet
43 0 m 1
 43 32 l 1
 89 32 l 6
 107 32 116 41 116 59 c 6
 116 653 l 6
 116 671 107 680 89 680 c 6
 37 680 l 1
 37 712 l 1
 499 712 l 1
 503 486 l 1
 478 486 l 1
 477.299804688 506 l 2
 476.900527053 517.404750293 474.100396845 535.738083626 468.899414062 561 c 0
 464.232747395 583.666666667 457.699544271 604 449.299804688 622 c 0
 431.566080729 660.666666667 403.466145833 680 365 680 c 2
 246.899414062 680 l 2
 207.633138021 680 188 671 188 653 c 6
 188 380 l 5
 289.599609375 380 l 2
 302.199869792 380 312.699869792 384.166666667 321.099609375 392.5 c 0
 329.499348958 400.833333333 335.332682292 412.666666667 338.599609375 428 c 0
 341.866536458 443.333333333 344.083333333 457.666666667 345.25 471 c 0
 346.416666667 484.333333333 347 500 347 518 c 1
 373 518 l 1
 373 205 l 1
 347 205 l 1
 347 223.666666667 346.533203125 239.5 345.599609375 252.5 c 0
 344.666015625 265.5 342.44921875 279.833333333 338.94921875 295.5 c 0
 335.44921875 311.166666667 329.499348958 323.166666667 321.099609375 331.5 c 0
 312.699869792 339.833333333 302.199869792 344 289.599609375 344 c 2
 188 344 l 5
 188 59 l 6
 188 41 207.633138021 32 246.899414062 32 c 2
 308.5 32 l 1
 308.5 0 l 1
 43 0 l 1
EndSplineSet
Validated: 1
EndChar

StartChar: G
Encoding: 71 71 42
Width: 540
GlyphClass: 2
Flags: W
HStem: -18 42<213.766 339.465> 322 32<254 382.998 477.483 526> 688 42<215.43 330.159> 702 20G<444.061 476>
VStem: 52 88<163.867 546.765> 384 92<112.986 321.677> 444 32<-13 111.968> 451 25<444 482.678>
AnchorPoint: "Bottom" 281 0 basechar 0
AnchorPoint: "Top" 281 762 basechar 0
LayerCount: 2
Fore
SplineSet
280 730 m 0xea
 321 730 359 710 388 665 c 0
 395 654 403 650 410 650 c 0
 420 650 429 659 434 673 c 2
 451 722 l 1
 476 722 l 1
 476 444 l 1
 451 444 l 1xd9
 432 515 405 574 371 622 c 0
 340 666 309 688 280 688 c 0
 202 688 157 623 145 492 c 0
 142 456 140 411 140 356 c 256
 140 301 142 255 145 216 c 0
 156 88 201 24 280 24 c 0
 349 24 384 79 384 189 c 2
 384 295 l 2
 384 313 378 322 365 322 c 2
 254 322 l 1
 254 354 l 1
 526 354 l 1
 526 322 l 1
 503 322 l 2
 485 322 476 313 476 295 c 2xec
 476 -13 l 1
 444 -13 l 1
 444 78 l 2
 444 101 438 112 427 112 c 256
 414 112 403 98 395 72 c 0
 378 12 339 -18 280 -18 c 0
 128 -18 52 107 52 356 c 0
 52 605 128 730 280 730 c 0xea
EndSplineSet
Validated: 1
EndChar

StartChar: H
Encoding: 72 72 43
Width: 540
GlyphClass: 2
Flags: W
HStem: 0 32<-26.6992 70.8176 146.438 233.6 306.4 393.562 469.182 566.699> 356 36<144.301 395.699> 680 32<-26.6992 70.8176 146.438 233.6 306.4 393.562 469.182 566.699>
VStem: 72.3008 72<33.6875 356 392 678.312> 395.699 72<33.6875 356 392 678.312>
AnchorPoint: "Bottom" 333.9 0 basechar 0
AnchorPoint: "Top" 333.9 762 basechar 0
LayerCount: 2
Fore
SplineSet
-26.69921875 0 m 1
 -26.69921875 32 l 1
 45.30078125 32 l 2
 63.30078125 32 72.30078125 41 72.30078125 59 c 2
 72.30078125 653 l 2
 72.30078125 671 63.30078125 680 45.30078125 680 c 2
 -26.69921875 680 l 1
 -26.69921875 712 l 1
 233.599609375 712 l 1
 233.599609375 680 l 1
 183.19921875 680 l 2
 157.266927083 680 144.30078125 671 144.30078125 653 c 2
 144.30078125 392 l 1
 395.69921875 392 l 1
 395.69921875 653 l 2
 395.69921875 671 382.733072917 680 356.80078125 680 c 2
 306.400390625 680 l 1
 306.400390625 712 l 1
 566.69921875 712 l 1
 566.69921875 680 l 1
 494.69921875 680 l 2
 476.69921875 680 467.69921875 671 467.69921875 653 c 2
 467.69921875 59 l 2
 467.69921875 41 476.69921875 32 494.69921875 32 c 2
 566.69921875 32 l 1
 566.69921875 0 l 1
 306.400390625 0 l 1
 306.400390625 32 l 1
 356.80078125 32 l 2
 382.733072917 32 395.69921875 41 395.69921875 59 c 2
 395.69921875 356 l 1
 144.30078125 356 l 1
 144.30078125 59 l 2
 144.30078125 41 157.266927083 32 183.19921875 32 c 2
 233.599609375 32 l 1
 233.599609375 0 l 1
 -26.69921875 0 l 1
EndSplineSet
Validated: 1
EndChar

StartChar: I
Encoding: 73 73 44
Width: 540
GlyphClass: 2
Flags: W
HStem: 0 32<65 231.968 308.032 475> 680 32<75 231.968 308.032 465>
VStem: 234 72<33.4832 678.517>
AnchorPoint: "Bottom" 272.6 0 basechar 0
AnchorPoint: "Top" 271.6 762 basechar 0
LayerCount: 2
Fore
SplineSet
65 0 m 1
 65 32 l 1
 197 32 l 2
 221.666666667 32 234 41 234 59 c 2
 234 653 l 2
 234 671 221.666666667 680 197 680 c 2
 75 680 l 1
 75 712 l 1
 465 712 l 5
 465 680 l 5
 343 680 l 2
 318.333333333 680 306 671 306 653 c 2
 306 59 l 2
 306 41 318.333333333 32 343 32 c 2
 475 32 l 5
 475 0 l 5
 65 0 l 1
EndSplineSet
Validated: 1
EndChar

StartChar: J
Encoding: 74 74 45
Width: 540
GlyphClass: 2
Flags: W
HStem: -18 32<126.282 267.522> 112 106<95.2209 149.497> 680 32<182 328.968 405.032 502>
VStem: 28 60<49.6013 141.333> 331 72<75.4983 678.517>
AnchorPoint: "Bottom" 243.2 0 basechar 0
AnchorPoint: "Top" 369.2 762 basechar 0
LayerCount: 2
Fore
SplineSet
502 712 m 1
 502 680 l 1
 440 680 l 2
 415.333333333 680 403 671 403 653 c 2
 403 194 l 6
 403 37.5356531233 329.721626978 -18 208 -18 c 0
 154.62295082 -18 110.62295082 -5 76 21 c 0
 44 47 28 82.3333333333 28 127 c 0
 28 155.666666667 35.6666666667 178 51 194 c 0
 66.3333333333 210 84.3333333333 218 105 218 c 0
 124.333333333 218 139.333333333 212.666666667 150 202 c 0
 160.666666667 191.333333333 166 177.666666667 166 161 c 0
 166 147.666666667 161.333333333 136.166666667 152 126.5 c 0
 142.666666667 116.833333333 131.333333333 112 118 112 c 0
 107.333333333 112 99.6666666667 109.666666667 95 105 c 0
 90.3333333333 100.333333333 88 92.6666666667 88 82 c 0
 88 61.3333333333 98.6666666667 44.8333333333 120 32.5 c 0
 144.068376068 20.1666666667 173.401709402 14 208 14 c 0
 280.603916624 14 331 69.6424786401 331 143 c 2
 331 653 l 2
 331 671 318.666666667 680 294 680 c 2
 182 680 l 1
 182 712 l 1
 502 712 l 1
EndSplineSet
Validated: 1
EndChar

StartChar: K
Encoding: 75 75 46
Width: 540
GlyphClass: 2
Flags: W
HStem: 0 32<-4.84961 92.6672 168.287 251.95 297.45 362.647 457.001 544.85> 680 32<-4.84961 92.6672 168.287 251.95 314.25 355.264 447.863 530.85>
VStem: 94.1504 72<33.6875 278 321 678.312>
DStem2: 166.15 321 166.15 278 0.576336 0.817213<0 96.496 177.876 360.776> 290.45 451 244.25 384 0.363667 -0.931529<45.6109 396.877>
AnchorPoint: "Bottom" 275.75 0 basechar 0
AnchorPoint: "Top" 281.75 762 basechar 0
LayerCount: 2
Fore
SplineSet
-4.849609375 0 m 1
 -4.849609375 32 l 1
 67.150390625 32 l 2
 85.150390625 32 94.150390625 41 94.150390625 59 c 2
 94.150390625 653 l 2
 94.150390625 671 85.150390625 680 67.150390625 680 c 2
 -4.849609375 680 l 1
 -4.849609375 712 l 1
 251.950195312 712 l 1
 251.950195312 680 l 1
 205.049804688 680 l 2
 179.116861979 680 166.150390625 671 166.150390625 653 c 2
 166.150390625 321 l 1
 347.849609375 579 l 2
 350.649739584 584.333333333 353.099934896 589 355.200195312 593 c 0
 357.299804687 597 359.049804687 601 360.450195312 605 c 0
 361.849934896 609 362.899739584 613.666666667 363.599609375 619 c 0
 364.300130208 624.333333333 364.650390625 630.666666667 364.650390625 638 c 0
 364.650390625 650 361.616861979 660 355.549804688 668 c 0
 349.483398437 676 342.016927083 680 333.150390625 680 c 2
 314.25 680 l 1
 314.25 712 l 1
 530.849609375 712 l 1
 530.849609375 680 l 1
 490.849609375 680 l 2
 462.859060969 680 435.259126073 660.333333333 408.049804688 621 c 2
 290.450195312 451 l 1
 436.849609375 76 l 2
 442.704477769 61.0028385577 452.371144436 49.5028385577 465.849609375 41.5 c 0
 476.516276042 35.1666666667 491.849609375 32 511.849609375 32 c 2
 544.849609375 32 l 1
 544.849609375 0 l 1
 297.450195312 0 l 1
 297.450195312 32 l 1
 344.349609375 32 l 2
 349.483072917 32 353.916666667 34.1666666667 357.650390625 38.5 c 0
 361.383463542 42.8333333333 363.25 47.6666666667 363.25 53 c 0
 363.25 60.9052020747 361.616536458 69.238535408 358.349609375 78 c 2
 244.25 384 l 1
 166.150390625 278 l 1
 166.150390625 59 l 2
 166.150390625 41 179.116861979 32 205.049804688 32 c 2
 251.950195312 32 l 1
 251.950195312 0 l 1
 -4.849609375 0 l 1
EndSplineSet
Validated: 1
EndChar

StartChar: L
Encoding: 76 76 47
Width: 540
GlyphClass: 2
Flags: W
HStem: 0 32<45.0996 112.067 187.687 398.399> 680 32<45.0996 112.067 187.687 286.6>
VStem: 114.1 72<33.4832 678.517> 469.9 25<236 269>
AnchorPoint: "Bottom" 307.699 0 basechar 0
AnchorPoint: "Top" 191.699 762 basechar 0
LayerCount: 2
Fore
SplineSet
45.099609375 0 m 1
 45.099609375 32 l 1
 77.099609375 32 l 2
 101.766276042 32 114.099609375 41 114.099609375 59 c 2
 114.099609375 653 l 2
 114.099609375 671 101.766276042 680 77.099609375 680 c 2
 45.099609375 680 l 1
 45.099609375 712 l 1
 286.599609375 712 l 5
 286.599609375 680 l 5
 215 680 l 2
 195.733072917 680 186.099609375 671 186.099609375 653 c 2
 186.099609375 59 l 2
 186.099609375 41 195.733072917 32 215 32 c 2
 353 32 l 2
 365.1328125 32 378.666015625 36.3333333333 393.599609375 45 c 0
 408.533203125 53.6666666667 420.666666667 66.6666666667 430 84 c 0
 439.333333333 102.666666667 447.383463542 127.333333333 454.150390625 158 c 0
 461.007973335 189.083484987 465.324379585 215.083484987 467.099609375 236 c 2
 469.900390625 269 l 1
 494.900390625 269 l 1
 481.900390625 0 l 1
 45.099609375 0 l 1
EndSplineSet
Validated: 1
EndChar

StartChar: M
Encoding: 77 77 48
Width: 540
GlyphClass: 2
Flags: W
HStem: -12 21G<246.282 271.175> 0 32<-6.40039 49.9701 128.44 181.9 326.1 394.362 469.982 536.4> 680 32<3.59961 71.1165 469.982 536.4>
VStem: 72.5996 40<54.1757 622> 395.4 72<34.907 649>
DStem2: 163.699 712 116.799 622 0.206347 -0.978479<78.3854 562.686> 277.799 161 267.299 -12 0.19026 0.981734<0 501.461>
AnchorPoint: "Bottom" 262.199 0 basechar 0
AnchorPoint: "Top" 273.199 762 basechar 0
LayerCount: 2
Fore
SplineSet
-6.400390625 0 m 1x78
 -6.400390625 32 l 1
 9.599609375 32 l 2
 28.2662760417 32 43.4329427083 39.1666666667 55.099609375 53.5 c 0
 66.7662760417 67.8333333333 72.599609375 87.3333333333 72.599609375 112 c 2
 72.599609375 653 l 2
 72.599609375 671 63.599609375 680 45.599609375 680 c 2
 3.599609375 680 l 1
 3.599609375 712 l 1
 163.69921875 712 l 1
 277.798828125 161 l 1
 384.19921875 712 l 1
 536.400390625 712 l 1
 536.400390625 680 l 1
 514.400390625 680 l 2
 483.067057292 680 467.400390625 671 467.400390625 653 c 2
 467.400390625 59 l 2
 467.400390625 41 483.067057292 32 514.400390625 32 c 2
 536.400390625 32 l 1
 536.400390625 0 l 1
 326.099609375 0 l 1
 326.099609375 32 l 1
 376.5 32 l 2x78
 389.100260417 32 395.400390625 41 395.400390625 59 c 2
 395.400390625 649 l 1
 267.298828125 -12 l 1
 250.5 -12 l 1xb8
 116.798828125 622 l 1
 112.599609375 622 l 1
 112.599609375 112 l 2
 112.599609375 87.3333333333 116.682942708 67.8333333333 124.849609375 53.5 c 0
 133.016276042 39.1666666667 143.6328125 32 156.69921875 32 c 2
 181.900390625 32 l 1
 181.900390625 0 l 1
 -6.400390625 0 l 1x78
EndSplineSet
Validated: 1
EndChar

StartChar: N
Encoding: 78 78 49
Width: 540
GlyphClass: 2
Flags: W
HStem: -18 21G<399.267 448.449> 0 32<11.5508 71.147 132.607 199.85> 680 32<11.5508 79.0676 339.85 393.051 471.709 528.449>
VStem: 80.5508 40<54.1757 603> 408.449 40<154 657.824>
DStem2: 155.551 712 123.35 603 0.417229 -0.908802<85.6241 612.628>
AnchorPoint: "Bottom" 272.15 0 basechar 0
AnchorPoint: "Top" 272.15 762 basechar 0
LayerCount: 2
Fore
SplineSet
11.55078125 0 m 1x78
 11.55078125 32 l 1
 37.55078125 32 l 2x78
 56.8841145833 32 68.8841145833 39.1666666667 73.55078125 53.5 c 0
 78.2174479167 67.8333333333 80.55078125 87.3333333333 80.55078125 112 c 2
 80.55078125 653 l 2
 80.55078125 671 71.55078125 680 53.55078125 680 c 2
 11.55078125 680 l 1
 11.55078125 712 l 1
 155.55078125 712 l 1
 408.44921875 154 l 1
 408.44921875 600 l 2
 408.44921875 624.666666667 404.482747396 644.166666667 396.549804688 658.5 c 0
 388.616861979 672.833333333 378.1171875 680 365.05078125 680 c 2
 339.849609375 680 l 1
 339.849609375 712 l 1
 528.44921875 712 l 1
 528.44921875 680 l 1
 512.44921875 680 l 2
 493.782552083 680 478.44921875 672.833333333 466.44921875 658.5 c 0
 454.44921875 644.166666667 448.44921875 624.666666667 448.44921875 600 c 2
 448.44921875 -18 l 1
 408.44921875 -18 l 1xb8
 123.349609375 603 l 1
 120.55078125 603 l 1
 120.55078125 112 l 2
 120.55078125 87.3333333333 123.634114583 67.8333333333 129.80078125 53.5 c 0
 135.967447917 39.1666666667 145.583984375 32 158.650390625 32 c 2
 199.849609375 32 l 1
 199.849609375 0 l 1
 11.55078125 0 l 1x78
EndSplineSet
Validated: 1
EndChar

StartChar: O
Encoding: 79 79 50
Width: 540
GlyphClass: 2
Flags: W
HStem: -18 33<212.012 327.988> 697 33<212.012 327.988>
VStem: 29.2002 88<167.916 544.084> 422.8 88<167.916 544.084>
AnchorPoint: "Bottom" 269.2 0 basechar 0
AnchorPoint: "Top" 269.2 762 basechar 0
LayerCount: 2
Fore
SplineSet
270 -18 m 256
 109.466796875 -18 29.2001953125 106.666666667 29.2001953125 356 c 256
 29.2001953125 605.333333333 109.466796875 730 270 730 c 256
 430.533203125 730 510.799804688 605.333333333 510.799804688 356 c 260
 510.799804688 106.666666667 430.533203125 -18 270 -18 c 256
270 15 m 256
 371.866536458 15 422.799804688 128.666666667 422.799804688 356 c 260
 422.799804688 583.333333333 371.866536458 697 270 697 c 256
 168.133463542 697 117.200195312 583.333333333 117.200195312 356 c 256
 117.200195312 128.666666667 168.133463542 15 270 15 c 256
EndSplineSet
Validated: 1
EndChar

StartChar: P
Encoding: 80 80 51
Width: 540
GlyphClass: 2
Flags: W
HStem: 0 32<35.5508 121.518 197.138 286.051> 336 32<195.551 362.9> 680 32<34.5508 121.518 197.138 362.913>
VStem: 123.551 72<33.4832 336 368 678.517> 423.449 88<441.751 609.376>
AnchorPoint: "Top" 291.15 762 basechar 0
LayerCount: 2
Fore
SplineSet
35.55078125 0 m 1
 35.55078125 32 l 1
 86.55078125 32 l 2
 111.217447917 32 123.55078125 41 123.55078125 59 c 2
 123.55078125 653 l 2
 123.55078125 671 111.217447917 680 86.55078125 680 c 2
 34.55078125 680 l 1
 34.55078125 712 l 1
 305.650390625 712 l 2
 421.919254534 712 511.44921875 631.471330023 511.44921875 526 c 260
 511.44921875 420.678507789 421.882431689 336 305.650390625 336 c 2
 195.55078125 336 l 1
 195.55078125 59 l 2
 195.55078125 41 205.18359375 32 224.44921875 32 c 2
 286.05078125 32 l 1
 286.05078125 0 l 1
 35.55078125 0 l 1
195.55078125 368 m 1
 314.75 368 l 2
 392.207226128 368 423.44921875 458.702015617 423.44921875 526 c 260
 423.44921875 594.236607424 393.307990422 680 314.75 680 c 2
 224.44921875 680 l 2
 205.18359375 680 195.55078125 671 195.55078125 653 c 2
 195.55078125 368 l 1
EndSplineSet
Validated: 1
EndChar

StartChar: Q
Encoding: 81 81 52
Width: 540
GlyphClass: 2
Flags: W
HStem: -168 68<379.59 454.568> -18 42<242.633 314.421> 149 32<242.646 301.197> 688 42<200.771 326.152>
VStem: 28 88<167.116 545.1> 194 38<47.2781 141.936> 414 88<184.24 540.466> 491 19<-34.9434 50>
AnchorPoint: "Bottom" 225 0 basechar 0
AnchorPoint: "Top" 341 762 basechar 0
LayerCount: 2
Fore
SplineSet
276 -18 m 0xfd
 110.666666667 -18 28 106.666666667 28 356 c 256
 28 605.333333333 106.666666667 730 264 730 c 256
 422.666666667 730 502 602.333333333 502 347 c 4xfe
 502 191 455.333333333 81 362 17 c 1
 367 -37 l 1
 371.666666667 -79 388.666666667 -100 418 -100 c 0
 466.666666667 -100 491 -50 491 50 c 1
 510 50 l 1
 510 -95.3333333333 470.666666667 -168 392 -168 c 0
 369.333333333 -168 350.833333333 -156.833333333 336.5 -134.5 c 0
 322.166666667 -112.166666667 315 -83.3333333333 315 -48 c 2
 315 -10 l 1
 301.666666667 -15.3333333333 288.666666667 -18 276 -18 c 0xfd
315 62 m 2
 315 120 301.166666667 149 273.5 149 c 0
 245.833333333 149 232 128.166666667 232 86.5 c 0
 232 44.8333333333 245.666666667 24 273 24 c 0
 289.666666667 24 303.666666667 27.3333333333 315 34 c 1
 315 62 l 2
414 345 m 4
 414 573.666666667 364 688 264 688 c 256
 165.333333333 688 116 579 116 361 c 2
 116 356 l 2
 116 200.666666667 143 97.6666666667 197 47 c 1
 195 54.3333333333 194 67 194 85 c 0
 194 117 202.5 141 219.5 157 c 0
 236.5 173 254 181 272 181 c 0
 312 181 339.666666667 141.666666667 355 63 c 1
 394.333333333 105 414 199 414 345 c 4
EndSplineSet
Validated: 1
EndChar

StartChar: R
Encoding: 82 82 53
Width: 540
GlyphClass: 2
Flags: W
HStem: -12 64<432.4 493.547> 0 32<19.9004 106.868 182.488 292.1> 368 32<180.9 333.174> 680 32<19.9004 106.868 182.488 363.51>
VStem: 108.9 72<33.4832 368 400 678.517> 417.3 88<475.968 631.27> 503.1 25<69.2969 160>
AnchorPoint: "Bottom" 308.5 0 basechar 0
AnchorPoint: "Top" 308.5 762 basechar 0
LayerCount: 2
Fore
SplineSet
180.900390625 400 m 5x3c
 278.799804688 400 l 2
 371.133138021 400 417.299804688 450.666666667 417.299804688 552 c 0
 417.299804688 619.870950621 385.69033991 680 302.599609375 680 c 2
 209.799804688 680 l 6
 190.533528646 680 180.900390625 671 180.900390625 653 c 6
 180.900390625 400 l 5x3c
19.900390625 0 m 1x7a
 19.900390625 32 l 1
 71.900390625 32 l 6
 96.5670572917 32 108.900390625 41 108.900390625 59 c 6
 108.900390625 653 l 6
 108.900390625 671 96.5670572917 680 71.900390625 680 c 6
 19.900390625 680 l 1
 19.900390625 712 l 1
 306.799804688 712 l 2
 423.816742843 712 505.299804688 652.747062943 505.299804688 552 c 0x7c
 505.299804688 459.233777999 422.661825878 391.361206854 329.200195312 380 c 1
 329.200195312 376 l 1
 359.051084137 368.666666667 383.534482575 351.166666667 402.650390625 323.5 c 0
 419.68359375 295.833333333 431 248.666666667 436.599609375 182 c 0
 441.266276042 127.333333333 445.699869792 92 449.900390625 76 c 0
 454.100260416 60 461.800130208 52 473 52 c 0
 493.06640625 52 503.099609375 88 503.099609375 160 c 1
 528.099609375 160 l 1
 528.099609375 45.3333333333 501.333007812 -12 447.799804688 -12 c 0xba
 416.999674479 -12 395.766276042 3.66666666667 384.099609375 35 c 0
 371.499999999 69.6666666667 364.733398437 128.666666667 363.799804688 212 c 0
 363.333007812 256.666666667 357.733072916 293.833333333 347 323.5 c 0
 334.609303394 353.166666667 314.676035165 368 287.200195312 368 c 2
 180.900390625 368 l 5
 180.900390625 59 l 6
 180.900390625 41 190.533528646 32 209.799804688 32 c 6
 292.099609375 32 l 1
 292.099609375 0 l 1
 19.900390625 0 l 1x7a
EndSplineSet
Validated: 1
EndChar

StartChar: S
Encoding: 83 83 54
Width: 540
GlyphClass: 2
Flags: W
HStem: -18 42<228.062 391.432> -10 21G<85.9574 109> 691 39<185.722 330.678> 692 20G<419.245 442.57>
VStem: 73.4004 56.5996<515.827 641.748> 79.4004 24<225.258 306> 86.4004 21.1992<-10 30> 420.801 21<676 712> 427.801 24<452 508.016> 430.6 60<67.4812 216.908>
DStem2: 243.701 447 245.801 328 0.868796 -0.49517<-90.2492 257.725>
AnchorPoint: "Bottom" 311.801 0 basechar 0
AnchorPoint: "Top" 269.801 762 basechar 0
LayerCount: 2
Fore
SplineSet
79.400390625 306 m 1x44
 103.400390625 306 l 1x44
 108.067057292 230.666666667 127.200520833 164.833333333 160.80078125 108.5 c 0
 194.401041667 52.1666666667 247.701171875 24 320.701171875 24 c 0
 393.966796875 24 430.599609375 66 430.599609375 150 c 0
 430.599609375 198.035794923 404.466796875 237.035794923 352.201171875 267 c 2
 245.80078125 328 l 2
 130.8671875 393.892137967 73.400390625 465.2254713 73.400390625 542 c 0
 73.400390625 667.333333333 140.667317708 730 275.201171875 730 c 0xa840
 316.560546875 730 353.293619792 709.666666667 385.400390625 669 c 0
 394.348307292 657.666666667 400.548177083 652 404 652 c 0
 412.088541667 652 416.755208333 660 418 676 c 2
 420.80078125 712 l 1
 441.80078125 712 l 1x19
 451.80078125 452 l 1
 427.80078125 452 l 1x1080
 403.014322917 611.333333333 350.280598958 691 269.599609375 691 c 0
 176.533203125 691 130 647.333333333 130 560 c 0
 130 527.869309393 167.900390625 490.202642726 243.701171875 447 c 2
 378.80078125 370 l 2
 453.333333333 327.520184277 490.599609375 266.853517611 490.599609375 188 c 0
 490.599609375 50.6666666667 433.966796875 -18 320.701171875 -18 c 0xa840
 264.894042639 -18 217.127115556 -1 177.400390625 33 c 0
 163.045578296 45.285523663 148.645838712 57.6188569963 134.201171875 70 c 0
 131.867838542 72 129.767578125 73 127.900390625 73 c 0
 124.167317708 73 120.55078125 69.5 117.05078125 62.5 c 0
 113.659343594 55.7171246877 111.442546719 44.8837913544 110.400390625 30 c 2
 107.599609375 -10 l 1
 86.400390625 -10 l 1x4240
 79.400390625 306 l 1x44
EndSplineSet
Validated: 1
EndChar

StartChar: T
Encoding: 84 84 55
Width: 540
GlyphClass: 2
Flags: W
HStem: 0 32<151.699 232.981 307.018 388.3> 680 32<141.626 232.981 307.018 398.303>
VStem: 27.5 25<444 532.808> 233.8 72.3994<32 680> 487.5 25<444 532.808>
LayerCount: 2
Fore
SplineSet
27.5 444 m 1
 35.5 712 l 1
 504.5 712 l 1
 512.5 444 l 1
 487.5 444 l 1
 487.5 451.333333333 486.833333333 463 485.5 479 c 0
 484.166666667 495 479.166666667 519.166666667 470.5 551.5 c 0
 461.833333333 583.833333333 450.166666667 609.333333333 435.5 628 c 0
 408.166666667 662.666666667 380.766601563 680 353.299804688 680 c 2
 321.099609375 680 l 2
 311.166015625 680 306.19921875 671 306.19921875 653 c 2
 306.19921875 59 l 2
 306.19921875 41 311.166015625 32 321.099609375 32 c 2
 388.299804688 32 l 1
 388.299804688 0 l 1
 151.69921875 0 l 1
 151.69921875 32 l 1
 218.899414062 32 l 2
 228.833007813 32 233.799804688 41 233.799804688 59 c 2
 233.799804688 653 l 2
 233.799804688 671 228.833007813 680 218.899414062 680 c 2
 186.69921875 680 l 2
 159.137834821 680 131.738095238 662.666666667 104.5 628 c 0
 89.8333333333 609.333333333 78.1666666667 583.833333333 69.5 551.5 c 0
 60.8333333333 519.166666667 55.8333333333 495 54.5 479 c 0
 53.1666666667 463 52.5 451.333333333 52.5 444 c 1
 27.5 444 l 1
EndSplineSet
Validated: 1
EndChar

StartChar: U
Encoding: 85 85 56
Width: 540
GlyphClass: 2
Flags: W
HStem: -18 32<223.163 354.8> 680 32<11.5 82.4675 158.087 236.5 356.199 408.791 476.488 528.5>
VStem: 84.5 72<98.4102 678.517> 425.5 40<88.8203 657.309>
AnchorPoint: "Bottom" 286.1 0 basechar 0
AnchorPoint: "Top" 296.1 762 basechar 0
LayerCount: 2
Fore
SplineSet
286.19921875 -18 m 0
 151.733072917 -18 84.5 67 84.5 237 c 2
 84.5 653 l 2
 84.5 671 72.1666666667 680 47.5 680 c 2
 11.5 680 l 5
 11.5 712 l 5
 236.5 712 l 1
 236.5 680 l 1
 185.399414062 680 l 2
 166.133138021 680 156.5 671 156.5 653 c 2
 156.5 210 l 2
 156.5 79.3333333333 199.733072917 14 286.19921875 14 c 0
 379.06640625 14 425.5 75.3333333333 425.5 198 c 2
 425.5 599 l 2
 425.5 623.666666667 421.299804687 643.333333333 412.899414062 658 c 0
 404.499674479 672.666666667 393.766276041 680 380.69921875 680 c 2
 356.19921875 680 l 1
 356.19921875 712 l 1
 528.5 712 l 1
 528.5 680 l 1
 509.5 680 l 2
 490.833333333 680 478.833333333 672.666666667 473.5 658 c 0
 468.166666667 643.333333333 465.5 623.666666667 465.5 599 c 2
 465.5 208 l 2
 465.5 57.3333333333 405.733072917 -18 286.19921875 -18 c 0
EndSplineSet
Validated: 1
EndChar

StartChar: V
Encoding: 86 86 57
Width: 540
GlyphClass: 2
Flags: W
HStem: -18 21G<257.112 304.147> 680 32<7.59961 76.1602 179.242 247.6 327.4 391.875 471.968 532.4>
DStem2: 180.4 633 99 636 0.241977 -0.970282<-21.6978 495.67> 300.1 152 299.6 -18 0.221704 0.975114<0 485.493>
AnchorPoint: "Bottom" 286.801 0 basechar 0
AnchorPoint: "Top" 286.801 762 basechar 0
LayerCount: 2
Fore
SplineSet
262.099609375 -18 m 1
 99 636 l 2
 95.1376159037 651.487463205 87.6708190287 662.987463205 76.599609375 670.5 c 0
 67.2662760417 676.833333333 55.2662760417 680 40.599609375 680 c 2
 7.599609375 680 l 1
 7.599609375 712 l 1
 247.599609375 712 l 1
 247.599609375 680 l 1
 201.400390625 680 l 2
 194.866536458 680 189.266276042 677.5 184.599609375 672.5 c 0
 179.932942708 667.5 177.599609375 661.666666667 177.599609375 655 c 0
 177.599609375 647.836449869 178.533203125 640.503116535 180.400390625 633 c 2
 300.099609375 152 l 1
 392.5 558 l 2
 398.100260417 582.607100833 400.900390625 605.940434167 400.900390625 628 c 0
 400.900390625 642 397.983723958 654.166666667 392.150390625 664.5 c 0
 386.317057292 674.833333333 377.333984375 680 365.201171875 680 c 2
 327.400390625 680 l 1
 327.400390625 712 l 1
 532.400390625 712 l 5
 532.400390625 680 l 5
 515.400390625 680 l 2
 477.332553125 680 452.766146875 655.666666667 441.701171875 607 c 2
 299.599609375 -18 l 1
 262.099609375 -18 l 1
EndSplineSet
Validated: 1
EndChar

StartChar: W
Encoding: 87 87 58
Width: 540
GlyphClass: 2
Flags: W
HStem: -18 21G<137.544 161.993 380.007 404.808> 680 32<-33 14.5951 93.6794 150 186 236.558 322.624 384 418 475.107 541.842 573>
DStem2: 96 633 28 636 0.17026 -0.985399<-24.1241 465.713> 169 173 158 -18 0.195783 0.980647<0 387.713> 404 164 401 -18 0.18704 0.982352<0 472.617>
AnchorPoint: "Bottom" 279 0 basechar 0
AnchorPoint: "Top" 283 762 basechar 0
LayerCount: 2
Fore
SplineSet
141 -18 m 1
 28 636 l 2
 22.9317023445 665.333333333 3.26503567787 680 -31 680 c 2
 -33 680 l 1
 -33 712 l 1
 150 712 l 1
 150 680 l 1
 116 680 l 2
 100.666666667 680 93 672.333333333 93 657 c 0
 93 656.333333333 94 648.333333333 96 633 c 1
 169 173 l 1
 253 611 l 1
 246 643 l 2
 240.604166667 667.666666667 224.270833333 680 197 680 c 2
 186 680 l 1
 186 712 l 1
 384 712 l 1
 384 680 l 1
 356 680 l 2
 328 680 314 662.666666667 314 628 c 0
 314 623.550561798 315.666666667 613.217228465 319 597 c 2
 404 164 l 1
 480 558 l 2
 485.333333333 587.185185185 488 611.185185185 488 630 c 0
 488 643.333333333 483.833333333 655 475.5 665 c 0
 467.166666667 675 456 680 442 680 c 2
 418 680 l 1
 418 712 l 1
 573 712 l 1
 573 680 l 1
 570 680 l 2
 545.9328 680 529.266133333 655.666666667 520 607 c 2
 401 -18 l 1
 384 -18 l 1
 271 548 l 1
 158 -18 l 1
 141 -18 l 1
EndSplineSet
Validated: 1
EndChar

StartChar: X
Encoding: 88 88 59
Width: 540
GlyphClass: 2
Flags: W
HStem: 0 32<-23 36.3349 118.129 202 340 380.641 472.531 533> 680 32<27 103.574 195.003 247 338 414.275 477.643 538>
DStem2: 296 434 128 628 0.41124 -0.911527<-251.755 0 46.1867 52.6824 97.4573 381.905> 249 355 267 314 0.524387 0.85148<-321.104 -25.4717 91.9131 341.477>
LayerCount: 2
Fore
SplineSet
-23 0 m 1
 -23 32 l 1
 -22 32 l 2
 29 32 50 55 88 99 c 2
 249 355 l 1
 128 628 l 2
 121 647 113 660 104 668 c 0
 95 676 80 680 58 680 c 2
 27 680 l 1
 27 712 l 1
 247 712 l 1
 247 680 l 1
 209 680 l 2
 199 680 195 674 195 665 c 0
 195 657 198 648 202 639 c 2
 296 434 l 1
 385 581 l 2
 405 612 416 637 416 654 c 0
 416 671 406 680 380 680 c 2
 338 680 l 1
 338 712 l 1
 538 712 l 1
 538 680 l 1
 503 680 l 2
 487 680 482 673 457 631 c 2
 313 391 l 1
 456 76 l 2
 473 38 485 32 511 32 c 2
 533 32 l 1
 533 0 l 1
 340 0 l 1
 340 32 l 1
 362 32 l 2
 375 32 381 39 381 53 c 0
 381 61 379 69 376 78 c 2
 267 314 l 1
 154 139 l 2
 121 88 116 76 116 59 c 0
 116 40 129 32 154 32 c 2
 202 32 l 1
 202 0 l 1
 -23 0 l 1
EndSplineSet
Validated: 1
EndChar

StartChar: Y
Encoding: 89 89 60
Width: 540
GlyphClass: 2
Flags: W
HStem: 0 32<153 247.365 322.635 417> 680 32<-11 80.0338 180.023 244 341 396.801 476.864 551>
VStem: 249 72<32.5339 318>
DStem2: 302 377 249 318 0.424288 -0.905527<-302.157 0> 302 377 321 335 0.374914 0.92706<0 285>
AnchorPoint: "Bottom" 352 0 basechar 0
AnchorPoint: "Top" 288 762 basechar 0
LayerCount: 2
Fore
SplineSet
203 680 m 2
 188 680 178 669 178 653 c 0
 178 644 179 638 182 633 c 2
 302 377 l 1
 389 596 l 2
 397 616 401 632 401 645 c 0
 401 668 388 680 362 680 c 2
 341 680 l 1
 341 712 l 1
 551 712 l 1
 551 680 l 1
 522 680 l 2
 506 680 492 675 479 666 c 0
 456 650 440 630 431 607 c 2
 321 335 l 1
 321 59 l 2
 321 41 331 32 350 32 c 2
 417 32 l 1
 417 0 l 1
 153 0 l 1
 153 32 l 1
 220 32 l 2
 239 32 249 41 249 59 c 2
 249 318 l 1
 100 636 l 2
 86 665 66 680 41 680 c 2
 -11 680 l 1
 -11 712 l 1
 244 712 l 1
 244 680 l 1
 203 680 l 2
EndSplineSet
Validated: 1
EndChar

StartChar: Z
Encoding: 90 90 61
Width: 540
GlyphClass: 2
Flags: W
HStem: 0 32<137.449 378.571> 456 21G<76.9492 101.949> 680 32<187.734 380.25>
VStem: 76.9492 25<456 510.799> 458.051 25<248 282>
DStem2: 56.9492 32 137.449 32 0.451177 0.892434<36.3198 724.163>
AnchorPoint: "Bottom" 369.35 0 basechar 0
AnchorPoint: "Top" 369.35 762 basechar 0
LayerCount: 2
Fore
SplineSet
56.94921875 0 m 1
 56.94921875 32 l 1
 380.25 680 l 1
 228.650390625 680 l 2
 201.116536458 680 175.682942708 660.666666667 152.349609375 622 c 0
 136.949869792 596 124.699869792 563.833333333 115.599609375 525.5 c 0
 106.499348958 487.166666667 101.94921875 464 101.94921875 456 c 1
 76.94921875 456 l 1
 109.650390625 712 l 1
 465.05078125 712 l 1
 465.05078125 680 l 1
 137.44921875 32 l 1
 352.150390625 32 l 6
 400.760218651 32 442.211356198 183.359795004 451.05078125 248 c 2
 458.05078125 282 l 1
 483.05078125 282 l 1
 459.05078125 0 l 1
 56.94921875 0 l 1
EndSplineSet
Validated: 1
EndChar

StartChar: bracketleft
Encoding: 91 91 62
Width: 540
GlyphClass: 2
Flags: W
HStem: -198 26<323 362.077> 704 26<323 362.077>
VStem: 175 72<-155.869 687.869>
LayerCount: 2
Fore
SplineSet
175 -186 m 1
 175 718 l 1
 361 730 l 1
 365 704 l 1
 269 688 l 2
 254.333333333 685.333333333 247 674.666666667 247 656 c 2
 247 -124 l 2
 247 -142.666666667 254.333333333 -153.333333333 269 -156 c 2
 365 -172 l 1
 361 -198 l 1
 175 -186 l 1
EndSplineSet
Validated: 1
EndChar

StartChar: backslash
Encoding: 92 92 63
Width: 540
GlyphClass: 2
Flags: W
HStem: 710 20G<101 147.422>
DStem2: 141 730 101 730 0.305743 -0.952114<0 962.444>
LayerCount: 2
Fore
SplineSet
439 -198 m 1
 399 -198 l 1
 101 730 l 1
 141 730 l 1
 439 -198 l 1
EndSplineSet
Validated: 1
EndChar

StartChar: bracketright
Encoding: 93 93 64
Width: 540
GlyphClass: 2
Flags: W
HStem: -198 26<177.923 217> 704 26<177.923 217>
VStem: 293 72<-155.869 687.869>
LayerCount: 2
Fore
SplineSet
365 -186 m 1
 179 -198 l 1
 175 -172 l 1
 271 -156 l 2
 285.666666667 -153.333333333 293 -142.666666667 293 -124 c 2
 293 656 l 2
 293 674.666666667 285.666666667 685.333333333 271 688 c 2
 175 704 l 1
 179 730 l 1
 365 718 l 1
 365 -186 l 1
EndSplineSet
Validated: 1
EndChar

StartChar: asciicircum
Encoding: 94 94 65
Width: 540
GlyphClass: 2
Flags: W
HStem: 680 20G<259.363 284.418>
DStem2: 42 336 90 336 0.534168 0.845379<25.6401 364.637> 272 700 272 622 0.527479 -0.849568<66.2663 403.134>
LayerCount: 2
Fore
SplineSet
42 336 m 1
 272 700 l 1
 498 336 l 1
 450 336 l 1
 272 622 l 1
 90 336 l 1
 42 336 l 1
EndSplineSet
Validated: 1
EndChar

StartChar: underscore
Encoding: 95 95 66
Width: 540
GlyphClass: 2
Flags: W
HStem: -158 40<10 530>
LayerCount: 2
Fore
SplineSet
10 -158 m 1
 10 -118 l 1
 530 -118 l 1
 530 -158 l 1
 10 -158 l 1
EndSplineSet
Validated: 1
EndChar

StartChar: grave
Encoding: 715 715 67
AltUni2: 000060.ffffffff.0
Width: 540
GlyphClass: 2
Flags: W
HStem: 508 176
VStem: 185.5 169
LayerCount: 2
Fore
SplineSet
213.5 684 m 0
 230.833333333 684 247.166666667 673.333333333 262.5 652 c 2
 354.5 519 l 1
 341.5 508 l 1
 213.5 609 l 2
 194.833333333 623 185.5 637.666666667 185.5 653 c 0
 185.5 673.666666667 194.833333333 684 213.5 684 c 0
EndSplineSet
Validated: 1
EndChar

StartChar: a
Encoding: 97 97 68
Width: 540
GlyphClass: 2
Flags: W
HStem: -12 36<168.638 273.333 446.271 495.104> 284 78<148.127 198.273> 444 24<185.947 314.329>
VStem: 66 84<39.123 179.1> 98 47<339.333 416.013> 366 72<31.4771 84 109.185 245 266 402.018> 516 18<64.5815 130>
DStem2: 246 249 252 226 0.990114 0.140266<-52.5906 118.253>
AnchorPoint: "Top" 266.7 508 basechar 0
AnchorPoint: "Bottom" 258.7 0 basechar 0
LayerCount: 2
Fore
SplineSet
150 103 m 0xf6
 150 50.3333333333 172.333333333 24 217 24 c 0
 236.333333333 24 253.666666667 28 269 36 c 0
 309 56 341.333333333 94 366 150 c 1
 366 245 l 1
 252 226 l 2
 214 219.333333333 187.333333333 206 172 186 c 0
 157.333333333 166 150 138.333333333 150 103 c 0xf6
66 106 m 0
 66 126.666666667 70 145.166666667 78 161.5 c 0
 86 177.833333333 95.1666666667 190.666666667 105.5 200 c 0
 115.833333333 209.333333333 130 217.666666667 148 225 c 0
 166 232.333333333 181.333333333 237.333333333 194 240 c 0
 208.666666667 243.333333333 226 246.333333333 246 249 c 2
 366 266 l 1
 366 351 l 2
 366 413 325.666666667 444 245 444 c 0
 217.666666667 444 194.166666667 438.166666667 174.5 426.5 c 0
 154.833333333 414.833333333 145 401.666666667 145 387 c 0
 145 380.333333333 146 375.333333333 148 372 c 0
 150.666666667 366.666666667 155.666666667 363.333333333 163 362 c 0
 189.666666667 355.333333333 203 342.333333333 203 323 c 0
 203 297 187.333333333 284 156 284 c 0
 141.333333333 284 128 289.666666667 116 301 c 0
 104 312.333333333 98 328.666666667 98 350 c 0xee
 98 386.666666667 112.333333333 415.5 141 436.5 c 0
 169.666666667 457.5 205.333333333 468 248 468 c 0
 300.666666667 468 345.5 456.5 382.5 433.5 c 0
 419.5 410.5 438 374.666666667 438 326 c 2
 438 80 l 2
 438 46.6666666667 448.333333333 30 469 30 c 0
 500.333333333 30 516 63.3333333333 516 130 c 1
 534 130 l 1
 534 35.3333333333 507.333333333 -12 454 -12 c 0
 398 -12 368.666666667 20 366 84 c 1
 360 86 l 1
 348 62.6666666667 327 40.5 297 19.5 c 0
 267 -1.5 234 -12 198 -12 c 0
 161.333333333 -12 130.166666667 -3.33333333333 104.5 14 c 0
 78.8333333333 31.3333333333 66 62 66 106 c 0
EndSplineSet
Validated: 1
EndChar

StartChar: b
Encoding: 98 98 69
Width: 540
GlyphClass: 2
Flags: W
HStem: -12 24<252.409 345.507> 0 21G<102.199 127.028> 444 24<260.65 345.233> 688 24<8.19922 100.647>
VStem: 102.199 72<85.9284 356.191 392 688> 403.801 88<108.345 351.103>
AnchorPoint: "Bottom" 278.9 0 basechar 0
LayerCount: 2
Fore
SplineSet
300.599609375 12 m 0xbc
 338.999348958 12 365.799479167 30.8333333333 381 68.5 c 0
 396.200520833 106.166666667 403.80078125 159.333333333 403.80078125 228 c 256
 403.80078125 296.666666667 396.200520833 349.833333333 381 387.5 c 0
 365.799479167 425.166666667 338.999348958 444 300.599609375 444 c 0
 231.187939048 444 174.19921875 345.295784168 174.19921875 262 c 2
 174.19921875 169 l 2
 174.19921875 85.7940459755 227.130512611 12 300.599609375 12 c 0xbc
102.19921875 0 m 1x7c
 102.19921875 666 l 2
 102.19921875 680.666666667 94.8658854167 688 80.19921875 688 c 2
 8.19921875 688 l 1
 8.19921875 712 l 1
 174.19921875 712 l 1
 174.19921875 392 l 1
 181.400390625 390 l 1
 204.553297747 427.071324523 251.570811303 468 303 468 c 0
 366.200520833 468 413.467447917 445 444.80078125 399 c 0
 476.134114583 353 491.80078125 296 491.80078125 228 c 256
 491.80078125 160 475.333984375 103 442.400390625 57 c 0
 409.466796875 11 361.399739583 -12 298.19921875 -12 c 0xbc
 236.985677083 -12 188.319010417 20 152.19921875 84 c 1
 148.19921875 82 l 1
 120.19921875 0 l 1
 102.19921875 0 l 1x7c
EndSplineSet
Validated: 1
EndChar

StartChar: c
Encoding: 99 99 70
Width: 540
GlyphClass: 2
Flags: W
HStem: -12 24<225.646 352.639> 271 90<360.708 403.321> 444 24<226.298 354.79>
VStem: 68.7998 88<116.515 339.485> 404 52<326.667 402.788> 447.2 24<112.908 156>
AnchorPoint: "Bottom" 278.7 0 basechar 0
AnchorPoint: "Top" 296.7 508 basechar 0
LayerCount: 2
Fore
SplineSet
286.400390625 -12 m 0xf4
 216.800130208 -12 163.133463542 11.1666666667 125.400390625 57.5 c 0
 87.6666666667 103.833333333 68.7998046875 160.666666667 68.7998046875 228 c 256
 68.7998046875 295.333333333 87.8665364583 352.166666667 126 398.5 c 0
 164.133463541 444.833333333 217.600260416 468 286.400390625 468 c 0
 340.800130208 468 382.666666667 454.5 412 427.5 c 0
 441.333333333 400.5 456 370.333333333 456 337 c 0
 456 316.333333333 450.666666667 300.166666667 440 288.5 c 0
 429.333333333 276.833333333 416.133463542 271 400.400390625 271 c 0
 384.400390625 271 371.000325521 275.333333333 360.200195312 284 c 0
 349.400065104 292.666666667 344 303 344 315 c 0
 344 338.333333333 357.599934896 353.666666667 384.799804688 361 c 0
 397.599934896 364.333333333 404 370.333333333 404 379 c 0xf8
 404 392.333333333 394 406.5 374 421.5 c 0
 354 436.5 324.800130208 444 286.400390625 444 c 0
 236 444 201.799804688 426 183.799804688 390 c 0
 165.799804688 354 156.799804688 300 156.799804688 228 c 256
 156.799804688 156 165.599934896 102 183.200195312 66 c 0
 200.800455729 30 235.200520834 12 286.400390625 12 c 0
 335.200520834 12 372.800455729 26.3333333333 399.200195312 55 c 0
 425.599934896 83.6666666667 441.599934896 117.333333333 447.200195312 156 c 1
 471.200195312 156 l 1
 468.533528645 112.666666667 451.466796875 73.8333333333 420 39.5 c 0
 388.533203125 5.16666666667 344 -12 286.400390625 -12 c 0xf4
EndSplineSet
Validated: 1
EndChar

StartChar: d
Encoding: 100 100 71
Width: 540
GlyphClass: 2
Flags: W
HStem: -12 24<191.592 284.827> 0 24<436.5 529> 444 24<191.707 276.545> 688 24<270 362.506>
VStem: 45 88<108.193 350.165> 363 72<24 42 82.4406 356.48 392 688>
AnchorPoint: "Bottom" 242 0 basechar 0
LayerCount: 2
Fore
SplineSet
236 12 m 0xbc
 309.89049504 12 363 85.0693094012 363 169 c 2
 363 262 l 2
 363 345.955038004 306.356508459 444 236 444 c 0
 198 444 171 426 156 388 c 0
 141 350 133 297 133 228 c 256
 133 159 141 106 156 68 c 0
 171 30 198 12 236 12 c 0xbc
363 0 m 1x7c
 363 42 l 1
 357 45 l 1
 323.652173913 7 284.31884058 -12 239 -12 c 0xbc
 176 -12 128 11 95 57 c 0
 62 103 45 160 45 228 c 256
 45 296 61 353 92 399 c 0
 123 445 171 468 234 468 c 0
 286.190966215 468 332.562324757 427.509885993 356 390 c 1
 363 392 l 1
 363 666 l 2
 363 681 360.666666667 688 356 688 c 2
 270 688 l 1
 270 712 l 1
 435 712 l 1
 435 46 l 2
 435 31 442 24 457 24 c 2
 529 24 l 1
 529 0 l 1
 363 0 l 1x7c
EndSplineSet
Validated: 1
EndChar

StartChar: e
Encoding: 101 101 72
Width: 540
GlyphClass: 2
Flags: W
HStem: -12 24<228.278 365.976> 224 28<147.5 394.94> 444 24<221.66 323.884>
VStem: 59.5 88<113.295 224 252 340.617> 394.94 86<252 345.505> 446.94 24<102.307 156>
AnchorPoint: "Bottom" 277.9 0 basechar 0
AnchorPoint: "Top" 277.9 508 basechar 0
LayerCount: 2
Fore
SplineSet
147.5 252 m 1xf8
 394.940429688 252 l 1
 394.940429688 276 392.940429688 298.666666667 388.940429688 320 c 0
 384.940429688 341.333333333 378.900390625 361.666666667 370.8203125 381 c 0
 362.740234375 400.333333333 350.188151041 415.666666667 333.1640625 427 c 0
 316.140625 438.333333333 295.980794271 444 272.684570312 444 c 256
 249.388346354 444 229.228190104 438.333333333 212.204101562 427 c 0
 195.180013021 415.666666667 182.139973958 400.333333333 173.083984375 381 c 0
 164.027994792 361.666666667 157.5 341.166666667 153.5 319.5 c 0
 149.5 297.833333333 147.5 275.333333333 147.5 252 c 1xf8
59.5 228 m 0
 59.5 269.333333333 67.1666666667 308 82.5 344 c 0
 97.8333333333 380 121.940104167 409.666666667 154.8203125 433 c 0
 187.699869792 456.333333333 228.779622396 468 278.059570312 468 c 0
 310.316080729 468 338.860351563 463 363.692382812 453 c 0
 388.524414063 443 407.607096355 429.666666667 420.940429688 413 c 0
 434.273763021 396.333333333 445.607096355 377.333333333 454.940429688 356 c 0
 464.273763021 334.666666667 470.940429688 313 474.940429688 291 c 0
 478.940429688 269 480.940429688 246.666666667 480.940429688 224 c 1xf8
 147.5 224 l 1
 147.5 191.333333333 149.5 162.833333333 153.5 138.5 c 0
 157.5 114.166666667 164.476236979 92.1666666667 174.428710938 72.5 c 0
 184.380533854 52.8333333333 199.660481771 37.8333333333 220.268554688 27.5 c 0
 240.875976563 17.1666666667 266.412109375 12 296.876953125 12 c 0
 314.796875 12 331.820638021 14 347.948242188 18 c 0
 364.076497396 22 379.273763021 29 393.540039062 39 c 0
 407.806966146 49 419.440429688 64 428.440429688 84 c 0
 437.440429688 104 443.607096355 128 446.940429688 156 c 1
 470.940429688 156 l 1xf4
 466.940429688 106.666666667 451.673828125 66.3333333333 425.140625 35 c 0
 398.607421875 3.66666666667 354.956705729 -12 294.188476562 -12 c 0
 213.996419271 -12 154.833658854 10.3333333333 116.700195312 55 c 0
 78.5667317707 99.6666666667 59.5 157.333333333 59.5 228 c 0
EndSplineSet
Validated: 1
EndChar

StartChar: f
Encoding: 102 102 73
Width: 540
GlyphClass: 2
Flags: W
HStem: 0 24<17 148.5 223.731 384> 428 28<56 150 222 454> 696 28<318.635 464.92>
VStem: 150 72<24.1287 428 456 617.688> 471 54<602 684.529>
LayerCount: 2
Fore
SplineSet
478 562 m 0
 454 562 437 579 437 604 c 0
 437 621 443 633 455 640 c 0
 466 646 471 654 471 664 c 0
 471 685 454 696 420 696 c 0
 287 696 222 648 222 553 c 2
 222 456 l 1
 454 456 l 1
 454 428 l 1
 222 428 l 1
 222 46 l 2
 222 31 230 24 248 24 c 2
 384 24 l 1
 384 0 l 1
 17 0 l 1
 17 24 l 1
 128 24 l 2
 143 24 150 31 150 46 c 2
 150 428 l 1
 56 428 l 1
 56 456 l 1
 150 456 l 1
 150 525 l 2
 150 671 261 724 422 724 c 0
 480 724 525 679 525 618 c 0
 525 586 509 562 478 562 c 0
EndSplineSet
Validated: 1
EndChar

StartChar: g
Encoding: 103 103 74
Width: 540
GlyphClass: 2
Flags: W
HStem: -238 24<193.179 388.957> -26 57<151.376 448.784> 140 24<212.459 293.115> 444 24<212.116 292.648> 451 18<423.242 473.402>
VStem: 57 56<-170.799 -65.3402> 67 40<38.9705 107.499> 75 80<221.426 387.216> 348 80<221.815 386.178> 451 72<354 424.149> 463 53<-167.132 -38.9931> 476 47<406.692 450.158>
AnchorPoint: "Top" 257 508 basechar 0
LayerCount: 2
Fore
SplineSet
263 140 m 0xe890
 200.975903614 140 107 130 107 73 c 0xea90
 107 44 130 29 175 29 c 1
 233 31 l 1
 358 31 l 2
 402 31 439 21 470 2 c 0
 501 -17 516 -49 516 -94 c 0
 516 -190 436.019685039 -238 277 -238 c 0
 179.434782609 -238 57 -215 57 -122 c 0xeca0
 57 -69 107 -30 155 -23 c 1
 155 -20 l 1xe980
 96 -7 67 17 67 54 c 0xea80
 67 116 123 141 181 150 c 1
 181 153 l 1
 111 182 76 232 75 304 c 0
 75 406 156.425531915 468 253 468 c 0xf180
 290.142857143 468 369.071428571 438 383 416 c 1
 395 451 420 469 459 469 c 0
 498 469 520 448 523 406 c 2
 523 399 l 1
 520 367 508 351 488 351 c 0
 465 351 452 363 451 388 c 0xe9c0
 451 403 455 412 463 417 c 0xe8a0
 471 422 476 427 476 432 c 0
 476 445 469 451 456 451 c 0
 423 451 404 433 400 396 c 1
 419 370 428 339 428 304 c 0
 428 254 410 214 374 184 c 0
 340.975206612 154 304.280991736 140 263 140 c 0xe890
253 164 m 256
 313.619047619 164 348 230 348 304 c 256
 348 378 313.619047619 444 253 444 c 256
 189.481481481 444 155 380 155 304 c 256xf180
 155 228 189.481481481 164 253 164 c 256
463 -108 m 0xe4a0
 463 -54 450 -26 392 -26 c 2
 260 -26 l 2
 196.03649635 -26 154.321167883 -38 133 -63 c 0
 120 -78 113 -97 113 -120 c 0
 113 -191 206.342857143 -214 278 -214 c 0
 353.926136364 -214 405.153409091 -210 439 -170 c 0
 455 -152 463 -132 463 -108 c 0xe4a0
EndSplineSet
Validated: 1
EndChar

StartChar: h
Encoding: 104 104 75
Width: 540
GlyphClass: 2
Flags: W
HStem: 0 24<28.1992 104.647 180.062 245 319 393.938 469.353 531.801> 439 29<274.045 365.981> 688 24<28.1992 104.647>
VStem: 106.199 72<24.1934 337.521 364 688> 395.801 72<24.1934 414>
AnchorPoint: "Bottom" 274.6 0 basechar 0
AnchorPoint: "Top" 252.6 752 basechar 0
LayerCount: 2
Fore
SplineSet
28.19921875 0 m 1
 28.19921875 24 l 1
 84.19921875 24 l 2
 98.8658854167 24 106.19921875 31.3333333333 106.19921875 46 c 2
 106.19921875 666 l 2
 106.19921875 680.666666667 98.8658854167 688 84.19921875 688 c 2
 28.19921875 688 l 1
 28.19921875 712 l 1
 178.19921875 712 l 1
 178.19921875 364 l 1
 183 363 l 1
 212.536708726 416.784619317 261.315275974 468 329.80078125 468 c 0
 369.80078125 468 400.467447917 459.333333333 421.80078125 442 c 0
 452.467447917 417.333333333 467.80078125 376.333333333 467.80078125 319 c 2
 467.80078125 46 l 2
 467.80078125 31.3333333333 475.134114583 24 489.80078125 24 c 2
 531.80078125 24 l 1
 531.80078125 0 l 1
 319 0 l 1
 319 24 l 1
 369.400390625 24 l 2
 387.000651042 24 395.80078125 31.3333333333 395.80078125 46 c 2
 395.80078125 339 l 2
 395.80078125 405.666666667 370.200520833 439 319 439 c 0
 249.96797285 439 178.19921875 336.899131854 178.19921875 254 c 2
 178.19921875 46 l 2
 178.19921875 31.3333333333 186.999348958 24 204.599609375 24 c 2
 245 24 l 5
 245 0 l 5
 28.19921875 0 l 1
EndSplineSet
Validated: 1
EndChar

StartChar: i
Encoding: 105 105 76
Width: 540
GlyphClass: 2
Flags: W
HStem: 0 24<40 232.448 307.552 500> 432 24<60 232.448> 580 104<234.47 307.53>
VStem: 219 104<595.47 668.53> 234 72<24 432>
AnchorPoint: "Bottom" 271 0 basechar 0
LayerCount: 2
Fore
SplineSet
40 0 m 1xe8
 40 24 l 1
 212 24 l 2
 226.666666667 24 234 31.3333333333 234 46 c 2
 234 410 l 2
 234 424.666666667 226.666666667 432 212 432 c 2
 60 432 l 5
 60 456 l 5
 306 456 l 1
 306 46 l 2
 306 31.3333333333 313.333333333 24 328 24 c 2
 500 24 l 1
 500 0 l 1
 40 0 l 1xe8
EndSplineSet
Refer: 163 729 N 1 0 0 1 51 36 2
Validated: 1
Colour: ffff
EndChar

StartChar: j
Encoding: 106 106 77
Width: 540
GlyphClass: 2
Flags: W
HStem: -238 24<167.696 290.165> 432 24<77 329.448> 580 104<324.47 397.53>
VStem: 37 53<-163.016 -87.3333> 309 104<595.47 668.53> 331 72<-155.02 432>
LayerCount: 2
Fore
SplineSet
77 432 m 1xf8
 77 456 l 1
 403 456 l 1
 403 -43 l 2
 403 -109 387.666666667 -158 357 -190 c 0
 326.333333333 -222 290.666666667 -238 250 -238 c 0
 178 -238 117 -216 67 -172 c 0
 47 -154.666666667 37 -129.333333333 37 -96 c 0
 37 -78.6666666667 41.3333333333 -65 50 -55 c 0
 58 -45 68.6666666667 -40 82 -40 c 0
 95.3333333333 -40 106 -44 114 -52 c 0
 121.333333333 -59.3333333333 125 -69.3333333333 125 -82 c 0
 125 -98.6666666667 119.333333333 -110.666666667 108 -118 c 0
 96 -124.666666667 90 -131 90 -137 c 0
 90 -139 90.3333333333 -140.666666667 91 -142 c 0
 117.666666667 -190 171.333333333 -214 252 -214 c 0
 253 -214 l 0
 305 -214 331 -166.333333333 331 -71 c 2
 331 410 l 2xf4
 331 424.666666667 323.666666667 432 309 432 c 2
 77 432 l 1xf8
EndSplineSet
Refer: 163 729 N 1 0 0 1 141 36 2
Validated: 1
Colour: ffff
EndChar

StartChar: k
Encoding: 107 107 78
Width: 540
GlyphClass: 2
Flags: W
HStem: 0 24<28.5996 101.047 176.462 239.4 299.4 350.917 459.202 511.4> 432 24<287.4 345.74 416.718 493.4> 688 24<28.5996 101.047>
VStem: 102.6 72<24.1934 164 203 688>
DStem2: 174.6 203 174.6 164 0.684495 0.729018<0 50.1782> 287.4 278 229.801 220 0.578491 -0.815689<13.9891 228.088>
AnchorPoint: "Bottom" 269.301 0 basechar 0
LayerCount: 2
Fore
SplineSet
28.599609375 0 m 1
 28.599609375 24 l 1
 80.599609375 24 l 2
 95.2662760417 24 102.599609375 31.3333333333 102.599609375 46 c 2
 102.599609375 666 l 2
 102.599609375 680.666666667 95.2662760417 688 80.599609375 688 c 2
 28.599609375 688 l 1
 28.599609375 712 l 1
 174.599609375 712 l 1
 174.599609375 203 l 1
 331.400390625 370 l 2
 343.400390625 384.666666667 349.400390625 396.666666667 349.400390625 406 c 0
 349.400390625 423.333333333 338.067057292 432 315.400390625 432 c 2
 287.400390625 432 l 1
 287.400390625 456 l 1
 493.400390625 456 l 1
 493.400390625 432 l 1
 461.400390625 432 l 2
 443.400390625 432 427.400390625 427.333333333 413.400390625 418 c 0
 399.400390625 408.666666667 383.400390625 393 365.400390625 371 c 2
 287.400390625 278 l 1
 445.400390625 56 l 2
 450.067057292 49.3333333333 453.900390625 43.6666666667 456.900390625 39 c 0
 459.900390625 34.3333333333 464.067057292 30.6666666667 469.400390625 28 c 0
 474.733723958 25.3333333333 482.067057292 24 491.400390625 24 c 2
 511.400390625 24 l 1
 511.400390625 0 l 1
 299.400390625 0 l 1
 299.400390625 24 l 1
 325.400390625 24 l 2
 343.400390625 24 352.400390625 30.6666666667 352.400390625 44 c 0
 352.400390625 54 347.733723958 66 338.400390625 80 c 2
 229.80078125 220 l 1
 174.599609375 164 l 1
 174.599609375 46 l 2
 174.599609375 31.3333333333 183.399739583 24 201 24 c 2
 239.400390625 24 l 1
 239.400390625 0 l 1
 28.599609375 0 l 1
EndSplineSet
Validated: 1
EndChar

StartChar: l
Encoding: 108 108 79
Width: 540
GlyphClass: 2
Flags: W
HStem: 0 24<29.2002 232.137 307.863 510.8> 688 24<39.2002 232.137>
VStem: 234 72<24.1934 687.807>
AnchorPoint: "Bottom" 271.2 0 basechar 0
AnchorPoint: "Top" 271.2 752 basechar 0
LayerCount: 2
Fore
SplineSet
29.2001953125 0 m 1
 29.2001953125 24 l 1
 207.600585938 24 l 2
 225.200195313 24 234 31.3333333333 234 46 c 2
 234 666 l 2
 234 680.666666667 225.200195313 688 207.600585938 688 c 2
 39.2001953125 688 l 1
 39.2001953125 712 l 1
 306 712 l 1
 306 46 l 2
 306 31.3333333333 314.800130208 24 332.400390625 24 c 2
 510.799804688 24 l 1
 510.799804688 0 l 1
 29.2001953125 0 l 1
EndSplineSet
Validated: 1
EndChar

StartChar: m
Encoding: 109 109 80
Width: 540
GlyphClass: 2
Flags: W
HStem: 0 24<6 54.4478 129.834 165 199 244.166 319.905 355 389 434.166 509.552 548> 432 24<6 54.4478> 438 30<177.672 228.332 374.154 449.355>
VStem: 56 72<24.1934 400.221 408 432> 246 72<24.2632 385.982> 436 72<24.1934 428.385>
CounterMasks: 1 1c
LayerCount: 2
Fore
SplineSet
6 0 m 1xbc
 6 24 l 1
 34 24 l 2
 48.6666666667 24 56 31.3333333333 56 46 c 2
 56 410 l 2
 56 424.666666667 48.6666666667 432 34 432 c 2
 6 432 l 1
 6 456 l 1
 128 456 l 1xdc
 128 408 l 1
 133 407 l 1
 159.099502487 447.666666667 190.099502487 468 226 468 c 0
 274.124031008 468 303.457364341 441.333333333 314 388 c 1
 318 387 l 1
 346.551724138 441 381.218390805 468 422 468 c 4
 479.333333333 468 508 418.333333333 508 319 c 2
 508 46 l 2
 508 31.3333333333 515.333333333 24 530 24 c 2
 548 24 l 1
 548 0 l 1
 389 0 l 1
 389 24 l 1
 410 24 l 2
 427.333333333 24 436 31.3333333333 436 46 c 2
 436 339 l 2
 436 402.643229167 423.134114583 434.46484375 397.40234375 434.46484375 c 0
 395.660807291 434.46484375 393.860026041 434.309895833 392 434 c 0
 342.666666667 422.666015625 318 362.666015625 318 254 c 2
 318 46 l 2
 318 31.3333333333 327 24 345 24 c 2
 355 24 l 1
 355 0 l 1
 199 0 l 1
 199 24 l 1
 220 24 l 2
 237.333333333 24 246 31.3333333333 246 46 c 2
 246 339 l 2
 246 405 231 438 201 438 c 0
 152.333333333 438 128 376.666666667 128 254 c 2
 128 46 l 2
 128 31.3333333333 136.666666667 24 154 24 c 2
 165 24 l 1
 165 0 l 1
 6 0 l 1xbc
EndSplineSet
Validated: 1
EndChar

StartChar: n
Encoding: 110 110 81
Width: 540
GlyphClass: 2
Flags: W
HStem: 0 24<35.2002 97.6479 173.063 238 312 386.937 462.352 524.8> 432 24<35.2002 97.6479> 439 29<267.044 357.606>
VStem: 99.2002 72<24.1934 337.52 364 432> 388.8 72<24.1934 414>
AnchorPoint: "Bottom" 263.7 0 basechar 0
AnchorPoint: "Top" 263.7 508 basechar 0
LayerCount: 2
Fore
SplineSet
322.799804688 468 m 0xb8
 419.219039417 468 460.799804688 415.835941397 460.799804688 319 c 2
 460.799804688 46 l 2
 460.799804688 31.3333333333 468.133138021 24 482.799804688 24 c 2
 524.799804688 24 l 1
 524.799804688 0 l 1
 312 0 l 1
 312 24 l 1
 362.400390625 24 l 2
 380 24 388.799804688 31.3333333333 388.799804688 46 c 2
 388.799804688 339 l 2
 388.799804688 405.666666667 363.199869792 439 312 439 c 0xb8
 242.968166048 439 171.200195312 336.898542691 171.200195312 254 c 2
 171.200195312 46 l 2
 171.200195312 31.3333333333 180.000325521 24 197.600585938 24 c 2
 238 24 l 1
 238 0 l 1
 35.2001953125 0 l 1
 35.2001953125 24 l 1
 77.2001953125 24 l 2
 91.8668619792 24 99.2001953125 31.3333333333 99.2001953125 46 c 2
 99.2001953125 410 l 2
 99.2001953125 424.666666667 91.8668619792 432 77.2001953125 432 c 2
 35.2001953125 432 l 1
 35.2001953125 456 l 1
 171.200195312 456 l 1xd8
 171.200195312 364 l 1
 176 363 l 1
 205.537469253 416.784363598 254.314213734 468 322.799804688 468 c 0xb8
EndSplineSet
Validated: 1
EndChar

StartChar: o
Encoding: 111 111 82
Width: 540
GlyphClass: 2
Flags: W
HStem: -12 24<215.423 324.577> 444 24<215.423 324.577>
VStem: 47.5996 88<122.035 333.965> 404.4 88<122.035 333.965>
AnchorPoint: "Bottom" 268.6 0 basechar 0
AnchorPoint: "Top" 268.6 508 basechar 0
LayerCount: 2
Fore
SplineSet
270 12 m 256
 359.600260417 12 404.400390625 84 404.400390625 228 c 256
 404.400390625 372 359.600260417 444 270 444 c 256
 180.399739583 444 135.599609375 372 135.599609375 228 c 256
 135.599609375 84 180.399739583 12 270 12 c 256
270 -12 m 256
 202.799479167 -12 148.932942708 11.5 108.400390625 58.5 c 0
 67.8665364583 105.5 47.599609375 162 47.599609375 228 c 256
 47.599609375 294 67.8665364583 350.5 108.400390625 397.5 c 0
 148.932942708 444.5 202.799479167 468 270 468 c 256
 337.200520833 468 391.067057292 444.5 431.599609375 397.5 c 0
 472.133463542 350.5 492.400390625 294 492.400390625 228 c 256
 492.400390625 162 472.133463542 105.5 431.599609375 58.5 c 0
 391.067057292 11.5 337.200520833 -12 270 -12 c 256
EndSplineSet
Validated: 1
EndChar

StartChar: p
Encoding: 112 112 83
Width: 540
GlyphClass: 2
Flags: W
HStem: -230 24<31 103.5 177.494 246> -12 24<255.174 348.408> 432 24<31 103.5> 444 24<263.448 348.293>
VStem: 105 72<-206 42 82.4443 356.462 392 432> 407 88<108.193 350.165>
AnchorPoint: "Top" 266 508 basechar 0
LayerCount: 2
Fore
SplineSet
304 12 m 0xdc
 342 12 369 30 384 68 c 0
 399 106 407 159 407 228 c 256
 407 297 399 350 384 388 c 0
 369 426 342 444 304 444 c 0
 233.665529761 444 177 345.914000294 177 262 c 2
 177 169 l 2
 177 85.0776815735 230.114259285 12 304 12 c 0xdc
31 -230 m 1
 31 -206 l 1
 83 -206 l 2
 98 -206 105 -199 105 -184 c 2
 105 410 l 2
 105 425 98 432 83 432 c 2
 31 432 l 1
 31 456 l 1
 177 456 l 1xec
 177 392 l 1
 184 390 l 1
 207.471006013 427.563228885 253.746426435 468 306 468 c 0
 369 468 417 445 448 399 c 0
 479 353 495 296 495 228 c 256
 495 160 478 103 445 57 c 0
 412 11 364 -12 301 -12 c 0
 255.68115942 -12 216.347826087 7 183 45 c 1
 177 42 l 1
 177 -184 l 2
 177 -199 179.333333333 -206 184 -206 c 2
 246 -206 l 1
 246 -230 l 1
 31 -230 l 1
EndSplineSet
Validated: 1
EndChar

StartChar: q
Encoding: 113 113 84
Width: 540
GlyphClass: 2
Flags: W
HStem: -230 24<297 374.095 449.5 532> -12 24<194.592 290.487> 436 20G<423.261 448> 444 24<194.592 284.384>
VStem: 48 88<108.678 347.322> 376 72<-205.747 42 86.0196 357.558>
AnchorPoint: "Top" 255 508 basechar 0
LayerCount: 2
Fore
SplineSet
297 -230 m 1xec
 297 -206 l 1
 349 -206 l 2
 367 -206 376 -199 376 -184 c 2
 376 42 l 1
 370 45 l 1
 334 7 291 -12 242 -12 c 0
 179 -12 131 11 98 57 c 0
 65 103 48 160 48 228 c 256
 48 296 65 353 98 399 c 0
 131 445 179 468 242 468 c 0xdc
 315 468 370 416 392 362 c 1
 399 364 l 1
 430 456 l 1
 448 456 l 1
 448 -184 l 2
 448 -199 455 -206 470 -206 c 2
 532 -206 l 1
 532 -230 l 1
 297 -230 l 1xec
239 12 m 0
 318 12 376 86 376 169 c 2
 376 278 l 2
 376 355 311 444 239 444 c 0
 201 444 174 425 159 387 c 0
 144 349 136 296 136 228 c 256
 136 160 144 107 159 69 c 0
 174 31 201 12 239 12 c 0
EndSplineSet
Validated: 1
EndChar

StartChar: r
Encoding: 114 114 85
Width: 540
GlyphClass: 2
Flags: W
HStem: 0 24<44.4004 126.848 202.263 337.199> 432 24<64.4004 126.848> 442 26<360.856 462.553>
VStem: 128.4 72<24.1934 290.86 330 432> 463.6 52<378 441.444>
AnchorPoint: "Bottom" 226.6 0 basechar 0
AnchorPoint: "Top" 310.6 508 basechar 0
LayerCount: 2
Fore
SplineSet
44.400390625 0 m 1xb8
 44.400390625 24 l 1
 106.400390625 24 l 2
 121.067057292 24 128.400390625 31.3333333333 128.400390625 46 c 2
 128.400390625 410 l 2
 128.400390625 424.666666667 121.067057292 432 106.400390625 432 c 2
 64.400390625 432 l 1
 64.400390625 456 l 1
 200.400390625 456 l 1xd8
 200.400390625 330 l 1
 205.19921875 329 l 1
 248.257188269 421.666666667 326.39065181 468 439.599609375 468 c 0
 464.932942708 468 483.932942708 459.833333333 496.599609375 443.5 c 0
 509.266276042 427.166666667 515.599609375 408 515.599609375 386 c 0
 515.599609375 370 510.932942708 354.666666667 501.599609375 340 c 0
 492.266276042 325.333333333 478.266276042 318 459.599609375 318 c 0
 446.932942708 318 436.266276042 321.166666667 427.599609375 327.5 c 0
 418.932942708 333.833333333 414.599609375 343.333333333 414.599609375 356 c 0
 414.599609375 375.333333333 423.599609375 390 441.599609375 400 c 0
 456.266276042 406.814814815 463.599609375 414.481481481 463.599609375 423 c 4
 463.599609375 435.666666666 454.266276042 442 435.599609375 442 c 0
 291.657377982 442 200.400390625 320.144636519 200.400390625 178 c 2
 200.400390625 46 l 2
 200.400390625 31.3333333333 209.200520833 24 226.80078125 24 c 2
 337.19921875 24 l 1
 337.19921875 0 l 1
 44.400390625 0 l 1xb8
EndSplineSet
Validated: 1
EndChar

StartChar: s
Encoding: 115 115 86
Width: 540
GlyphClass: 2
Flags: W
HStem: -12 24<258.223 401.394> 438 20G<435.328 455.328> 444 24<175.559 322.145>
VStem: 78.6719 48<330.64 414.672> 86.6719 18<-12 8> 437.328 18<438 458> 439.328 46<37.0572 145.786>
DStem2: 240.336 291 210.576 213 0.963162 -0.268922<-114.217 224.98>
AnchorPoint: "Bottom" 276.604 0 basechar 0
AnchorPoint: "Top" 276.604 508 basechar 0
LayerCount: 2
Fore
SplineSet
78.671875 345 m 0xb2
 78.671875 385.666666667 93.9384765627 416.333333333 124.471679688 437 c 0
 155.004882813 457.666666667 195.967447917 468 247.359375 468 c 0xb2
 303.513671875 468 349.836588541 457.333333333 386.328125 436 c 0
 404.573567708 425.333333333 415.573567708 420 419.328125 420 c 0
 428.794921875 420 434.128255208 426 435.328125 438 c 2
 437.328125 458 l 1
 455.328125 458 l 1xd4
 455.328125 306 l 1
 437.328125 306 l 1
 423.328125 341 l 2
 408.996744792 376.828776041 385.673828125 402.995442708 353.359375 419.5 c 0
 321.381510417 435.833333333 285.552083333 444 245.87109375 444 c 0
 211.471354167 444 183.004882813 437.833333333 160.471679688 425.5 c 0
 137.938476563 413.166666667 126.671875 396 126.671875 374 c 0xb4
 126.671875 358.666666667 131.671875 346.166666667 141.671875 336.5 c 0
 151.671875 326.833333333 165.071614583 318.666666667 181.87109375 312 c 0
 209.200520833 301.517578125 228.688802083 294.517578125 240.3359375 291 c 2
 389.328125 246 l 2
 418.864583333 237.078776041 442.864583333 221.078776041 461.328125 198 c 0
 477.328125 178 485.328125 151.333333333 485.328125 118 c 0
 485.328125 73.3333333333 472.661458333 40.5 447.328125 19.5 c 0
 421.994791667 -1.5 385.733072917 -12 338.54296875 -12 c 0
 300.84765625 -12 268.111979167 -7.5 240.3359375 1.5 c 0
 212.559895833 10.5 192.271484375 19.5 179.470703125 28.5 c 0
 166.671223958 37.5 155.871744792 42 147.072265625 42 c 0
 126.005208334 42 113.205078125 30.6666666667 108.671875 8 c 2
 104.671875 -12 l 1
 86.671875 -12 l 1
 86.671875 186 l 1
 104.671875 186 l 1xaa
 141.072265625 114 l 2
 153.01171875 90.3841145833 176.923177083 67.2174479167 212.806640625 44.5 c 0
 247.030598958 22.8333333333 289.438802083 12 340.03125 12 c 0
 376.229166667 12 401.828125 19.5 416.828125 34.5 c 0
 431.828125 49.5 439.328125 70 439.328125 96 c 0
 439.328125 131.420572917 417.994791667 155.087239583 375.328125 167 c 2
 210.576171875 213 l 2
 122.639973958 237.552734375 78.671875 281.552734375 78.671875 345 c 0xb2
EndSplineSet
Validated: 1
EndChar

StartChar: t
Encoding: 116 116 87
Width: 540
GlyphClass: 2
Flags: W
HStem: -12 44<245.261 442.312> 428 28<22.5996 141.303 218.6 487.4>
VStem: 146.6 72<57.9937 428> 190.6 28<531.006 648> 487.4 17<99.9146 152>
LayerCount: 2
Fore
SplineSet
257 -12 m 0xe8
 222.733072917 -12 195.766276042 -1.33333333333 176.099609375 20 c 0
 156.432942708 41.3333333333 146.599609375 70.3333333333 146.599609375 107 c 2
 146.599609375 428 l 1xe8
 22.599609375 428 l 1
 22.599609375 456 l 1
 114.599609375 456 l 2
 131.266276042 456 148.099609375 472.166666667 165.099609375 504.5 c 0
 182.099609375 536.833333333 190.599609375 572.666666667 190.599609375 612 c 2
 190.599609375 648 l 1
 218.599609375 648 l 1
 218.599609375 456 l 1xd8
 487.400390625 456 l 1
 487.400390625 428 l 1
 218.599609375 428 l 1
 218.599609375 102 l 2
 218.599609375 55.3333333333 263.1328125 32 352.19921875 32 c 0
 442.333333333 32 487.400390625 72 487.400390625 152 c 1
 505.400390625 152 l 1
 505.400390625 136.666666667 505.067057292 124 504.400390625 114 c 0
 503.733723958 104 501.567057292 90.1666666667 497.900390625 72.5 c 0
 494.233723958 54.8333333333 488.166666667 40.6666666667 479.69921875 30 c 0
 471.233072917 19.3333333333 454.866536458 9.66666666667 430.599609375 1 c 0
 406.332682292 -7.66666666667 348.466145833 -12 257 -12 c 0xe8
EndSplineSet
Validated: 1
EndChar

StartChar: u
Encoding: 117 117 88
Width: 540
GlyphClass: 2
Flags: W
HStem: -12 24<185.767 270.541> 0 24<442.352 514.8> 432 24<15.2002 77.6479 312 366.937>
VStem: 79.2002 72<41.9102 432> 368.8 72<24 92 111.574 431.807>
AnchorPoint: "Bottom" 275.7 0 basechar 0
AnchorPoint: "Top" 275.7 508 basechar 0
LayerCount: 2
Fore
SplineSet
217.200195312 -12 m 0xb8
 177.200195312 -12 146.533528645 -3.33333333333 125.200195312 14 c 0
 94.5335286457 38.6666666667 79.2001953125 79.6666666667 79.2001953125 137 c 2
 79.2001953125 410 l 2
 79.2001953125 424.666666667 71.8668619792 432 57.2001953125 432 c 2
 15.2001953125 432 l 1
 15.2001953125 456 l 1
 151.200195312 456 l 1
 151.200195312 117 l 2
 151.200195312 47 176.800130208 12 228 12 c 0xb8
 299.572673792 12 368.799804688 115.295264323 368.799804688 202 c 2
 368.799804688 410 l 2
 368.799804688 424.666666667 360 432 342.400390625 432 c 2
 312 432 l 1
 312 456 l 1
 440.799804688 456 l 1
 440.799804688 46 l 2
 440.799804688 31.3333333333 448.133138021 24 462.799804688 24 c 2
 514.799804688 24 l 1
 514.799804688 0 l 1
 368.799804688 0 l 1x78
 368.799804688 92 l 1
 364 93 l 1
 334.462530747 39.2156364018 285.685786266 -12 217.200195312 -12 c 0xb8
EndSplineSet
Validated: 1
EndChar

StartChar: v
Encoding: 118 118 89
Width: 540
GlyphClass: 2
Flags: W
HStem: -12 21G<257.609 297.312> 432 24<13 60.1501 169.11 236 346 410.374 475.621 527>
DStem2: 301 105 267 -12 0.425022 -0.905183<-332.031 0> 301 105 289 -12 0.383764 0.923431<0 317.781>
AnchorPoint: "Bottom" 254 0 basechar 0
AnchorPoint: "Top" 254 508 basechar 0
LayerCount: 2
Fore
SplineSet
203 432 m 2
 186 432 164 424 164 408 c 0
 164 397 167 386 172 375 c 2
 301 105 l 1
 399 342 l 2
 410 369 416 388 416 402 c 0
 416 424 401 432 375 432 c 2
 346 432 l 1
 346 456 l 1
 527 456 l 1
 527 432 l 1
 518 432 l 2
 480 432 470.815043866 425.492449302 449 373 c 2
 289 -12 l 1
 267 -12 l 1
 82 382 l 2
 72 406 76 400 64 416 c 0
 56 426 47 432 30 432 c 2
 13 432 l 1
 13 456 l 1
 236 456 l 1
 236 432 l 1
 203 432 l 2
EndSplineSet
Validated: 1
EndChar

StartChar: w
Encoding: 119 119 90
Width: 540
GlyphClass: 2
Flags: W
HStem: -12 21G<179.506 207.747 346.38 372.974> 432 24<6 35.1602 134.226 175 210 241.926 322.004 358 402 449.605 503.199 534>
VStem: 261 59<297.375 424.09>
DStem2: 208 138 61 373 0.308807 -0.951125<-280.93 0> 208 138 203 -12 0.230927 0.972971<0 177.678> 324 375 278 304 0.225085 -0.974339<58.8242 242.848> 377 138 367 -12 0.286206 0.958168<0 277.621>
AnchorPoint: "Bottom" 292 0 basechar 0
AnchorPoint: "Top" 292 508 basechar 0
LayerCount: 2
Fore
SplineSet
161 432 m 2
 149 432 128 421 128 408 c 0
 128 395 129 384 132 375 c 2
 208 138 l 1
 258 342 l 2
 260 350 261 357 261 363 c 0
 261 369 258 380 253 396 c 0
 245 420 236 432 226 432 c 2
 210 432 l 1
 210 456 l 1
 358 456 l 1
 358 432 l 1
 333 432 l 2
 325 432 320 422 320 402 c 0
 320 396 321 387 324 375 c 2
 377 138 l 1
 439 342 l 2
 448 372 452 392 452 406 c 0
 452 427 442 432 421 432 c 2
 402 432 l 1
 402 456 l 1
 534 456 l 1
 534 432 l 1
 521 432 l 2
 507 432 494 412 482 373 c 2
 367 -12 l 1
 351 -12 l 1
 278 304 l 1
 203 -12 l 1
 186 -12 l 1
 61 373 l 1
 44 412 30 432 19 432 c 2
 6 432 l 1
 6 456 l 1
 175 456 l 1
 175 432 l 1
 161 432 l 2
EndSplineSet
Validated: 1
EndChar

StartChar: x
Encoding: 120 120 91
Width: 540
GlyphClass: 2
Flags: W
HStem: 0 24<38.5996 100.279 165.115 204.6 293.4 345.721 439.021 501.4> 432 24<42.5996 100.125 197.83 247.801 313.4 353.666 424.075 487.4>
DStem2: 137.6 79 176.6 89 0.583904 0.811822<-5.99808 157.261 248.432 398.098> 302.4 254 252.6 190 0.556024 -0.831167<25.5042 201.268>
AnchorPoint: "Bottom" 278.4 0 basechar 0
AnchorPoint: "Top" 278.4 508 basechar 0
LayerCount: 2
Fore
SplineSet
38.599609375 0 m 1
 38.599609375 24 l 1
 64.599609375 24 l 2
 73.9329427083 24 82.2662760417 25.8333333333 89.599609375 29.5 c 0
 96.9329427083 33.1666666667 103.432942708 37.6666666667 109.099609375 43 c 0
 114.766276042 48.3333333333 119.266276042 53.1666666667 122.599609375 57.5 c 0
 125.932942708 61.8333333333 130.932942708 69 137.599609375 79 c 2
 233.400390625 215 l 1
 106.599609375 410 l 2
 103.266276042 414.666666667 100.766276042 418.666666667 99.099609375 422 c 0
 97.4329427083 425.333333333 94.4329427083 427.833333333 90.099609375 429.5 c 0
 85.7662760417 431.166666667 79.9329427083 432 72.599609375 432 c 2
 42.599609375 432 l 1
 42.599609375 456 l 1
 247.80078125 456 l 1
 247.80078125 432 l 1
 219 432 l 2
 204.06640625 432 196.599609375 425.333333333 196.599609375 412 c 0
 196.599609375 404.666666667 198.599609375 397.666666667 202.599609375 391 c 2
 285 279 l 1
 352.400390625 377 l 2
 358.400390625 385.666666667 361.400390625 396.333333333 361.400390625 409 c 0
 361.400390625 416.333333333 358.900390625 422 353.900390625 426 c 0
 348.900390625 430 343.400390625 432 337.400390625 432 c 2
 313.400390625 432 l 1
 313.400390625 456 l 1
 487.400390625 456 l 1
 487.400390625 432 l 1
 462.400390625 432 l 2
 435.733723958 432 412.733723958 417.333333333 393.400390625 388 c 2
 302.400390625 254 l 1
 429.400390625 50 l 2
 433.400390625 43.3333333333 436.733723958 38.5 439.400390625 35.5 c 0
 442.067057292 32.5 446.733723958 29.8333333333 453.400390625 27.5 c 0
 460.067057292 25.1666666667 468.400390625 24 478.400390625 24 c 2
 501.400390625 24 l 1
 501.400390625 0 l 1
 293.400390625 0 l 1
 293.400390625 24 l 1
 323.400390625 24 l 2
 338.733723958 24 346.400390625 29.6666666667 346.400390625 41 c 0
 346.400390625 47 344.067057292 54 339.400390625 62 c 2
 252.599609375 190 l 1
 176.599609375 89 l 2
 166.599609375 73 161.599609375 61.3333333333 161.599609375 54 c 0
 161.599609375 34 169.932942708 24 186.599609375 24 c 2
 204.599609375 24 l 1
 204.599609375 0 l 1
 38.599609375 0 l 1
EndSplineSet
Validated: 1
EndChar

StartChar: y
Encoding: 121 121 92
Width: 540
GlyphClass: 2
Flags: W
HStem: -238 32<87.5547 163.377> 432 24<1 47.5927 154.888 228 364 426.049 499.226 559>
VStem: 5 82<-205.671 -123.487>
DStem2: 164 375 73 373 0.400463 -0.916313<-37.0449 331.936> 206 -132 243 -139 0.406801 0.913517<-74.6286 109.251 220.736 576.418>
AnchorPoint: "Bottom" 379 0 basechar 0
AnchorPoint: "Top" 287 508 basechar 0
LayerCount: 2
Fore
SplineSet
103 -238 m 0
 49 -238 5 -201 5 -150 c 0
 5 -118 26 -93 55 -93 c 0
 85 -93 101 -114 101 -144 c 0
 101 -152 99 -162 93 -172 c 0
 89 -179 87 -185 87 -191 c 0
 87 -201 94 -206 108 -206 c 0
 170 -206 190.089812332 -168.159517426 206 -132 c 2
 250 -32 l 1
 73 373 l 2
 49 426 45 432 14 432 c 2
 1 432 l 1
 1 456 l 1
 228 456 l 1
 228 432 l 1
 190 432 l 2
 169 432 153 429 153 411 c 0
 153 403 157 391 164 375 c 2
 295 70 l 1
 415 342 l 2
 430 377 432 385 432 399 c 0
 432 422 419 432 393 432 c 2
 364 432 l 1
 364 456 l 1
 559 456 l 1
 559 432 l 1
 536 432 l 2
 505 432 493 424 471 373 c 2
 243 -139 l 2
 212.643355575 -207.169306779 179 -238 103 -238 c 0
EndSplineSet
Validated: 1
EndChar

StartChar: z
Encoding: 122 122 93
Width: 540
GlyphClass: 2
Flags: W
HStem: 0 24<150.8 397.959> 432 24<161.261 386.8>
VStem: 62.2002 20<280 306.251> 464.8 20<144.5 176>
DStem2: 55.2002 26 150.8 24 0.632572 0.774501<58.9247 524.208>
AnchorPoint: "Bottom" 284 0 basechar 0
AnchorPoint: "Top" 284 508 basechar 0
LayerCount: 2
Fore
SplineSet
55.2001953125 0 m 1
 55.2001953125 26 l 1
 386.799804688 432 l 1
 223.799804688 432 l 2
 173.400065104 432 138.200195312 415.333333333 118.200195312 382 c 0
 106.200195312 362 97.4000651037 340 91.7998046875 316 c 2
 82.2001953125 280 l 1
 62.2001953125 280 l 1
 68.2001953125 456 l 1
 478.799804688 456 l 1
 478.799804688 424 l 1
 150.799804688 24 l 1
 343.200195312 24 l 2
 387.599934896 24 418.133138021 40.6666666667 434.799804688 74 c 0
 444.799804688 94 452.133138021 116 456.799804688 140 c 2
 464.799804688 176 l 1
 484.799804688 176 l 1
 478.799804688 0 l 1
 55.2001953125 0 l 1
EndSplineSet
Validated: 1
EndChar

StartChar: braceleft
Encoding: 123 123 94
Width: 540
GlyphClass: 2
Flags: W
HStem: -196 24<355.836 377.5> 258 18<154 217.16> 706 24<355.836 377.5>
VStem: 224 60<-107.971 35.4631 494.184 642.044> 260 60<61.344 211.477 321.16 470.035>
CounterMasks: 1 e0
LayerCount: 2
Fore
SplineSet
154 276 m 1xe8
 191.333333333 276 218.333333333 280.666666667 235 290 c 0
 251.666666667 299.333333333 260 320.666666667 260 354 c 0xe8
 260 374.666666667 254 408.333333333 242 455 c 0
 230 501.666666667 224 537.333333333 224 562 c 0
 224 641.333333333 274 697.333333333 374 730 c 1
 386 706 l 1
 369.333333333 700 356.166666667 694.833333333 346.5 690.5 c 0
 336.833333333 686.166666667 326.5 680.333333333 315.5 673 c 0
 304.5 665.666666667 296.5 657 291.5 647 c 0
 286.5 637 284 625.333333333 284 612 c 0xf0
 284 588 290 553.666666667 302 509 c 0
 314 464.333333333 320 430 320 406 c 0
 320 334 288.666666667 288 226 268 c 1
 226 266 l 1
 288.666666667 246 320 198 320 122 c 0xe8
 320 98 314 64.6666666667 302 22 c 0
 290 -20.6666666667 284 -54 284 -78 c 0
 284 -103.333333333 292.5 -122.333333333 309.5 -135 c 0
 326.5 -147.666666667 352 -160 386 -172 c 1
 374 -196 l 1
 274 -163.333333333 224 -107.333333333 224 -28 c 0xf0
 224 -3.33333333333 230 31.3333333333 242 76 c 0
 254 120.666666667 260 153.333333333 260 174 c 0
 260 207.333333333 251.333333333 229.666666667 234 241 c 0
 216.666666667 252.333333333 190 258 154 258 c 1
 154 276 l 1xe8
EndSplineSet
Validated: 1
EndChar

StartChar: bar
Encoding: 124 124 95
Width: 540
GlyphClass: 2
Flags: W
HStem: 710 20G<248 292>
VStem: 248 44<-198 730>
LayerCount: 2
Fore
SplineSet
248 730 m 5
 292 730 l 5
 292 -198 l 1
 248 -198 l 1
 248 730 l 5
EndSplineSet
Validated: 1
EndChar

StartChar: braceright
Encoding: 125 125 96
Width: 540
GlyphClass: 2
Flags: W
HStem: -196 24<162.5 184.164> 258 18<316.435 386> 706 24<162.5 184.164>
VStem: 220 60<63.965 212.84 321.16 470.035> 256 60<-108.044 39.8157 494.184 641.971>
CounterMasks: 1 e0
LayerCount: 2
Fore
SplineSet
386 258 m 1xf0
 348.666666667 258 321.666666667 253.333333333 305 244 c 0
 288.333333333 234.666666667 280 213.333333333 280 180 c 0xf0
 280 159.333333333 286 125.666666667 298 79 c 0
 310 32.3333333333 316 -3.33333333333 316 -28 c 0
 316 -107.333333333 266 -163.333333333 166 -196 c 1
 154 -172 l 1
 170.666666667 -166 183.833333333 -160.833333333 193.5 -156.5 c 0
 203.166666667 -152.166666667 213.5 -146.333333333 224.5 -139 c 0
 235.5 -131.666666667 243.5 -123 248.5 -113 c 0
 253.5 -103 256 -91.3333333333 256 -78 c 0xe8
 256 -54 250 -19.6666666667 238 25 c 0
 226 69.6666666667 220 104 220 128 c 0
 220 200 251.333333333 246 314 266 c 1
 314 268 l 1
 251.333333333 288 220 334 220 406 c 0xf0
 220 430 226 464.333333333 238 509 c 0
 250 553.666666667 256 588 256 612 c 0
 256 637.333333333 247.5 656.333333333 230.5 669 c 0
 213.5 681.666666667 188 694 154 706 c 1
 166 730 l 1
 266 697.333333333 316 641.333333333 316 562 c 0xe8
 316 537.333333333 310 501.666666667 298 455 c 0
 286 408.333333333 280 374.666666667 280 354 c 0
 280 320.666666667 288.333333333 299.333333333 305 290 c 0
 321.666666667 280.666666667 348.666666667 276 386 276 c 1
 386 258 l 1xf0
EndSplineSet
Validated: 1
EndChar

StartChar: asciitilde
Encoding: 126 126 97
Width: 540
GlyphClass: 2
Flags: W
HStem: 170 62<392.005 508.832> 290 62<31.1685 149.799>
VStem: -12 34<202.797 279.315> 518 34<242.685 319.203>
LayerCount: 2
Fore
SplineSet
62 290 m 0
 51.3333333333 290 42 285.833333333 34 277.5 c 0
 26 269.166666667 22 258 22 244 c 0
 22 218.666666667 36 198.666666667 64 184 c 1
 52 163 l 1
 9.33333333333 182.333333333 -12 212.333333333 -12 253 c 0
 -12 279.666666667 -2 302.833333333 18 322.5 c 0
 38 342.166666667 66 352 102 352 c 0
 144 352 213.333333333 330.666666667 310 288 c 0
 392.666666667 250.666666667 448.666666667 232 478 232 c 0
 488.666666667 232 498 236.166666667 506 244.5 c 0
 514 252.833333333 518 264 518 278 c 0
 518 303.333333333 504 323.333333333 476 338 c 1
 488 359 l 1
 530.666666667 339.666666667 552 309.666666667 552 269 c 0
 552 242.333333333 542 219.166666667 522 199.5 c 0
 502 179.833333333 474 170 438 170 c 0
 418 170 394.833333333 173.666666667 368.5 181 c 0
 342.166666667 188.333333333 320.5 195.5 303.5 202.5 c 0
 286.5 209.5 262 220 230 234 c 0
 217.333333333 239.333333333 205 244.666666667 193 250 c 0
 181 255.333333333 168.833333333 260.5 156.5 265.5 c 0
 144.166666667 270.5 132.666666667 274.833333333 122 278.5 c 0
 111.333333333 282.166666667 100.666666667 285 90 287 c 0
 79.3333333333 289 70 290 62 290 c 0
EndSplineSet
Validated: 1
EndChar

StartChar: circumflex
Encoding: 710 710 160
Width: 440
GlyphClass: 2
Flags: W
HStem: 508 164
VStem: 89 262
LayerCount: 2
Fore
SplineSet
240 672 m 1
 264 603.333333333 301 553 351 521 c 1
 342 508 l 1
 296.666666667 531.333333333 256 562 220 600 c 1
 184 562 143.333333333 531.333333333 98 508 c 1
 89 521 l 1
 139 553 176 603.333333333 200 672 c 1
 240 672 l 1
EndSplineSet
Validated: 1
EndChar

StartChar: tilde
Encoding: 732 732 161
Width: 440
GlyphClass: 2
Flags: W
HStem: 556 54<231.057 330.743> 596 54<109.257 208.943>
VStem: 82 22<556 583.633> 336 22<622.367 650>
LayerCount: 2
Fore
SplineSet
278 556 m 0xb0
 256.666666667 556 232.333333333 562.666666667 205 576 c 0
 177.666666667 589.333333333 156 596 140 596 c 0x70
 120.666666667 596 108.666666667 582.666666667 104 556 c 1
 82 556 l 1xb0
 82 582 89 604.166666667 103 622.5 c 0
 117 640.833333333 136.666666667 650 162 650 c 0x70
 183.333333333 650 207.666666667 643.333333333 235 630 c 0
 262.333333333 616.666666667 284 610 300 610 c 0xb0
 319.333333333 610 331.333333333 623.333333333 336 650 c 1
 358 650 l 1x70
 358 624 351 601.833333333 337 583.5 c 0
 323 565.166666667 303.333333333 556 278 556 c 0xb0
EndSplineSet
Validated: 1
EndChar

StartChar: breve
Encoding: 728 728 162
Width: 440
GlyphClass: 2
Flags: W
HStem: 526 40<149.331 290.669>
VStem: 82 22<630.462 666> 336 22<630.462 666>
LayerCount: 2
Fore
SplineSet
220 526 m 256
 176.666666667 526 142.833333333 541.833333333 118.5 573.5 c 0
 94.1666666667 605.166666667 82 636 82 666 c 1
 104 666 l 1
 108 639.333333333 119.166666667 616 137.5 596 c 0
 155.833333333 576 183.333333333 566 220 566 c 256
 256.666666667 566 284.166666667 576 302.5 596 c 0
 320.833333333 616 332 639.333333333 336 666 c 1
 358 666 l 1
 358 636 345.833333333 605.166666667 321.5 573.5 c 0
 297.166666667 541.833333333 263.333333333 526 220 526 c 256
EndSplineSet
Validated: 1
EndChar

StartChar: dotaccent
Encoding: 729 729 163
Width: 440
GlyphClass: 2
Flags: W
HStem: 544 104<183.47 256.53>
VStem: 168 104<559.47 632.53>
LayerCount: 2
Fore
SplineSet
220 544 m 256
 205.333333333 544 193 549 183 559 c 0
 173 569 168 581.333333333 168 596 c 256
 168 610.666666667 173 623 183 633 c 0
 193 643 205.333333333 648 220 648 c 256
 234.666666667 648 247 643 257 633 c 0
 267 623 272 610.666666667 272 596 c 256
 272 581.333333333 267 569 257 559 c 0
 247 549 234.666666667 544 220 544 c 256
EndSplineSet
Validated: 1
EndChar

StartChar: ring
Encoding: 730 730 164
Width: 440
GlyphClass: 2
Flags: W
HStem: 500 24<179.407 260.593> 670 24<178.229 261.771>
VStem: 123 24<556.541 638.898> 293 24<556.541 638.898>
LayerCount: 2
Fore
SplineSet
220 500 m 256
 193.333333333 500 170.5 509.5 151.5 528.5 c 0
 132.5 547.5 123 570.666666667 123 598 c 0
 123 624.666666667 132.333333333 647.333333333 151 666 c 0
 169.666666667 684.666666667 192.666666667 694 220 694 c 256
 247.333333333 694 270.333333333 684.666666667 289 666 c 0
 307.666666667 647.333333333 317 624.666666667 317 598 c 0
 317 570.666666667 307.5 547.5 288.5 528.5 c 0
 269.5 509.5 246.666666667 500 220 500 c 256
220 524 m 256
 240.666666667 524 258 531 272 545 c 0
 286 559 293 576.666666667 293 598 c 0
 293 618.666666667 286.166666667 635.833333333 272.5 649.5 c 0
 258.833333333 663.166666667 241.333333333 670 220 670 c 256
 198.666666667 670 181.166666667 663.166666667 167.5 649.5 c 0
 153.833333333 635.833333333 147 618.666666667 147 598 c 0
 147 576.666666667 154 559 168 545 c 0
 182 531 199.333333333 524 220 524 c 256
EndSplineSet
Validated: 1
EndChar

StartChar: hungarumlaut
Encoding: 733 733 165
Width: 440
GlyphClass: 2
Flags: W
HStem: 508 176
VStem: 127 305
LayerCount: 2
Fore
SplineSet
404 684 m 0
 422.666666667 684 432 673.666666667 432 653 c 0
 432 637.666666667 422.666666667 623 404 609 c 2
 276 508 l 1
 263 519 l 1
 355 652 l 2
 370.333333333 673.333333333 386.666666667 684 404 684 c 0
268 684 m 0
 286.666666667 684 296 673.666666667 296 653 c 0
 296 637.666666667 286.666666667 623 268 609 c 2
 140 508 l 1
 127 519 l 1
 219 652 l 2
 234.333333333 673.333333333 250.666666667 684 268 684 c 0
EndSplineSet
Validated: 1
EndChar

StartChar: ogonek
Encoding: 731 731 166
Width: 440
GlyphClass: 2
Flags: W
HStem: -220 44<148.983 224.119>
VStem: 88 56<-171.852 -80.8076>
LayerCount: 2
Fore
SplineSet
88 -142 m 0
 88 -120.666666667 95.6666666667 -99.6666666667 111 -79 c 0
 126.333333333 -58.3333333333 142.166666667 -41.6666666667 158.5 -29 c 0
 174.833333333 -16.3333333333 196 -2 222 14 c 1
 232 0 l 1
 202 -22 179.833333333 -42.8333333333 165.5 -62.5 c 0
 151.166666667 -82.1666666667 144 -104.333333333 144 -129 c 0
 144 -160.333333333 158.666666667 -176 188 -176 c 0
 207.333333333 -176 226.666666667 -164.666666667 246 -142 c 1
 260 -152 l 1
 235.333333333 -197.333333333 204.333333333 -220 167 -220 c 0
 145 -220 126.333333333 -212.833333333 111 -198.5 c 0
 95.6666666667 -184.166666667 88 -165.333333333 88 -142 c 0
EndSplineSet
Validated: 1
EndChar

StartChar: caron
Encoding: 711 711 167
Width: 440
GlyphClass: 2
Flags: W
HStem: 508 164
VStem: 88 264
LayerCount: 2
Fore
SplineSet
88 661 m 1
 101 672 l 1
 220 572 l 1
 339 672 l 1
 352 661 l 1
 240 508 l 1
 200 508 l 1
 88 661 l 1
EndSplineSet
Validated: 1
EndChar

StartChar: uni02BB
Encoding: 699 699 331
Width: 200
GlyphClass: 2
Flags: W
HStem: 488 100<92.2529 144.014> 700 20G<131.667 158>
VStem: 40 42<553 640.26>
LayerCount: 2
Fore
SplineSet
160 540 m 0
 160 523.333333333 154.833333333 510.5 144.5 501.5 c 0
 134.166666667 492.5 121.333333333 488 106 488 c 0
 86 488 70 495.166666667 58 509.5 c 0
 46 523.833333333 40 542 40 564 c 0
 40 597.333333333 50.5 628.166666667 71.5 656.5 c 0
 92.5 684.833333333 117.333333333 706 146 720 c 1
 158 708 l 1
 137.333333333 698 119.5 684.333333333 104.5 667 c 0
 89.5 649.666666667 82 633.333333333 82 618 c 0
 82 607.333333333 85.3333333333 599.333333333 92 594 c 0
 97.3333333333 590 106.666666667 588 120 588 c 0
 132 588 141.666666667 583 149 573 c 0
 156.333333333 563 160 552 160 540 c 0
EndSplineSet
Validated: 1
EndChar

StartChar: afii57929
Encoding: 700 700 332
Width: 200
GlyphClass: 2
Flags: W
HStem: 620 100<55.9862 107.747>
VStem: 118 42<567.74 655>
LayerCount: 2
Fore
SplineSet
40 668 m 0
 40 684.666666667 45.1666666667 697.5 55.5 706.5 c 0
 65.8333333333 715.5 78.6666666667 720 94 720 c 0
 114 720 130 712.833333333 142 698.5 c 0
 154 684.166666667 160 666 160 644 c 0
 160 610.666666667 149.5 579.833333333 128.5 551.5 c 0
 107.5 523.166666667 82.6666666667 502 54 488 c 1
 42 500 l 1
 62.6666666667 510 80.5 523.666666667 95.5 541 c 0
 110.5 558.333333333 118 574.666666667 118 590 c 0
 118 600.666666667 114.666666667 608.666666667 108 614 c 0
 102.666666667 618 93.3333333333 620 80 620 c 0
 68 620 58.3333333333 625 51 635 c 0
 43.6666666667 645 40 656 40 668 c 0
EndSplineSet
Validated: 1
EndChar

StartChar: afii64937
Encoding: 701 701 333
Width: 200
GlyphClass: 2
Flags: W
HStem: 620 100<92.2529 144.014>
VStem: 40 42<567.74 655>
LayerCount: 2
Fore
SplineSet
160 668 m 0
 160 656 156.333333333 645 149 635 c 0
 141.666666667 625 132 620 120 620 c 0
 106.666666667 620 97.3333333333 618 92 614 c 0
 85.3333333333 608.666666667 82 600.666666667 82 590 c 0
 82 574.666666667 89.5 558.333333333 104.5 541 c 0
 119.5 523.666666667 137.333333333 510 158 500 c 1
 146 488 l 1
 117.333333333 502 92.5 523.166666667 71.5 551.5 c 0
 50.5 579.833333333 40 610.666666667 40 644 c 0
 40 666 46 684.166666667 58 698.5 c 0
 70 712.833333333 86 720 106 720 c 0
 121.333333333 720 134.166666667 715.5 144.5 706.5 c 0
 154.833333333 697.5 160 684.666666667 160 668 c 0
EndSplineSet
Validated: 1
EndChar

StartChar: uni02BE
Encoding: 702 702 334
Width: 200
GlyphClass: 2
Flags: W
HStem: 500 28<42 90.0908> 690 28<42 90.0908>
VStem: 126 32<560.025 657.975>
LayerCount: 2
Fore
SplineSet
42 500 m 1
 42 528 l 1
 66 528 86 535.666666667 102 551 c 0
 118 566.333333333 126 585.666666667 126 609 c 256
 126 632.333333333 118 651.666666667 102 667 c 0
 86 682.333333333 66 690 42 690 c 1
 42 718 l 1
 72.6666666667 718 99.6666666667 707.666666667 123 687 c 0
 146.333333333 666.333333333 158 640.333333333 158 609 c 256
 158 577.666666667 146.333333333 551.666666667 123 531 c 0
 99.6666666667 510.333333333 72.6666666667 500 42 500 c 1
EndSplineSet
Validated: 1
EndChar

StartChar: uni02BF
Encoding: 703 703 335
Width: 200
GlyphClass: 2
Flags: W
HStem: 500 28<109.909 158> 690 28<109.909 158>
VStem: 42 32<560.025 657.975>
LayerCount: 2
Fore
SplineSet
42 609 m 256
 42 640.333333333 53.6666666667 666.333333333 77 687 c 0
 100.333333333 707.666666667 127.333333333 718 158 718 c 1
 158 690 l 1
 134 690 114 682.333333333 98 667 c 0
 82 651.666666667 74 632.333333333 74 609 c 256
 74 585.666666667 82 566.333333333 98 551 c 0
 114 535.666666667 134 528 158 528 c 1
 158 500 l 1
 127.333333333 500 100.333333333 510.333333333 77 531 c 0
 53.6666666667 551.666666667 42 577.666666667 42 609 c 256
EndSplineSet
Validated: 1
EndChar

StartChar: acutecomb
Encoding: 769 769 337
Width: 0
GlyphClass: 4
Flags: W
HStem: 508 176
VStem: -287 169
AnchorPoint: "TopMark" -262 724 basemark 0
AnchorPoint: "TopMark" -262 508 mark 0
AnchorPoint: "Top" -262 508 mark 0
LayerCount: 2
Fore
SplineSet
-146 684 m 0
 -127.333333333 684 -118 673.666666667 -118 653 c 0
 -118 637.666666667 -127.333333333 623 -146 609 c 2
 -274 508 l 1
 -287 519 l 1
 -195 652 l 2
 -179.666666667 673.333333333 -163.333333333 684 -146 684 c 0
EndSplineSet
Validated: 1
Colour: ffff
EndChar

StartChar: macroncmb
Encoding: 772 772 340
Width: 0
GlyphClass: 4
Flags: W
HStem: 572 40<-392 -132>
VStem: -392 260<572 612>
AnchorPoint: "GreekTopMarkSunken" -262 636 basemark 0
AnchorPoint: "GreekTopMark" -262 656 basemark 0
AnchorPoint: "TopMark" -262 656 basemark 0
AnchorPoint: "TopMark" -262 508 mark 0
AnchorPoint: "GreekTop" -262 508 mark 0
AnchorPoint: "Top" -262 508 mark 0
LayerCount: 2
Fore
SplineSet
-392 612 m 1
 -132 612 l 1
 -132 572 l 1
 -392 572 l 1
 -392 612 l 1
EndSplineSet
Validated: 1
Colour: ffff
EndChar

StartChar: uni0305
Encoding: 773 773 341
Width: 0
GlyphClass: 2
Flags: W
HStem: 822 40<-520 0>
LayerCount: 2
Fore
SplineSet
-520 862 m 1
 0 862 l 1
 0 822 l 1
 -520 822 l 1
 -520 862 l 1
EndSplineSet
Validated: 1
Colour: ffff
EndChar

StartChar: uni0308
Encoding: 776 776 344
Width: 0
GlyphClass: 4
Flags: W
HStem: 544 104<-392.53 -319.47 -204.53 -131.47>
VStem: -408 104<559.47 632.53> -220 104<559.47 632.53>
AnchorPoint: "TopMark" -262 692 basemark 0
AnchorPoint: "TopMark" -262 508 mark 0
AnchorPoint: "Top" -262 508 mark 0
LayerCount: 2
Fore
SplineSet
-168 648 m 256
 -153.333333333 648 -141 643 -131 633 c 0
 -121 623 -116 610.666666667 -116 596 c 256
 -116 581.333333333 -121 569 -131 559 c 0
 -141 549 -153.333333333 544 -168 544 c 256
 -182.666666667 544 -195 549 -205 559 c 0
 -215 569 -220 581.333333333 -220 596 c 256
 -220 610.666666667 -215 623 -205 633 c 0
 -195 643 -182.666666667 648 -168 648 c 256
-356 648 m 256
 -341.333333333 648 -329 643 -319 633 c 0
 -309 623 -304 610.666666667 -304 596 c 256
 -304 581.333333333 -309 569 -319 559 c 0
 -329 549 -341.333333333 544 -356 544 c 256
 -370.666666667 544 -383 549 -393 559 c 0
 -403 569 -408 581.333333333 -408 596 c 256
 -408 610.666666667 -403 623 -393 633 c 0
 -383 643 -370.666666667 648 -356 648 c 256
EndSplineSet
Validated: 1
Colour: ffff
EndChar

StartChar: uni0317
Encoding: 791 791 354
Width: 0
GlyphClass: 4
Flags: W
HStem: -240 176
VStem: -287 169
AnchorPoint: "Bottom" -262 0 mark 0
LayerCount: 2
Fore
SplineSet
-146 -64 m 0
 -127.333333333 -64 -118 -74.3333333333 -118 -95 c 0
 -118 -110.333333333 -127.333333333 -125 -146 -139 c 2
 -274 -240 l 1
 -287 -229 l 1
 -195 -96 l 2
 -179.666666667 -74.6666666667 -163.333333333 -64 -146 -64 c 0
EndSplineSet
Validated: 1
Colour: ffff
EndChar

StartChar: uni0324
Encoding: 804 804 356
Width: 0
GlyphClass: 4
Flags: W
HStem: -204 104<-392.53 -319.47 -204.53 -131.47>
VStem: -408 104<-188.53 -115.47> -220 104<-188.53 -115.47>
AnchorPoint: "Bottom" -262 0 mark 0
LayerCount: 2
Fore
SplineSet
-168 -100 m 256
 -153.333333333 -100 -141 -105 -131 -115 c 0
 -121 -125 -116 -137.333333333 -116 -152 c 256
 -116 -166.666666667 -121 -179 -131 -189 c 0
 -141 -199 -153.333333333 -204 -168 -204 c 256
 -182.666666667 -204 -195 -199 -205 -189 c 0
 -215 -179 -220 -166.666666667 -220 -152 c 256
 -220 -137.333333333 -215 -125 -205 -115 c 0
 -195 -105 -182.666666667 -100 -168 -100 c 256
-356 -100 m 256
 -341.333333333 -100 -329 -105 -319 -115 c 0
 -309 -125 -304 -137.333333333 -304 -152 c 256
 -304 -166.666666667 -309 -179 -319 -189 c 0
 -329 -199 -341.333333333 -204 -356 -204 c 256
 -370.666666667 -204 -383 -199 -393 -189 c 0
 -403 -179 -408 -166.666666667 -408 -152 c 256
 -408 -137.333333333 -403 -125 -393 -115 c 0
 -383 -105 -370.666666667 -100 -356 -100 c 256
EndSplineSet
Validated: 1
Colour: ffff
EndChar

StartChar: uni0327
Encoding: 807 807 359
Width: 0
GlyphClass: 4
Flags: W
HStem: -212 28<-335.536 -249.103> -20 20G<-292.957 -261>
VStem: -232 64<-172.603 -91.5865>
DStem2: -310 -69 -279 -53 0.328521 0.944497<25.2961 73.0548> -255 -58 -310 -69 0.979457 -0.201653<-24.5152 19.5714>
AnchorPoint: "Bottom" -262 0 mark 0
LayerCount: 2
Fore
SplineSet
-368 -176 m 1
 -368 -176 -368 -176 -356 -160 c 1
 -348.666666667 -166 -339.833333333 -171.5 -329.5 -176.5 c 0
 -319.166666667 -181.5 -307.333333333 -184 -294 -184 c 0
 -276 -184 -261.166666667 -179.833333333 -249.5 -171.5 c 0
 -237.833333333 -163.166666667 -232 -150.333333333 -232 -133 c 0
 -232 -115 -235.333333333 -102 -242 -94 c 0
 -249.333333333 -85.3333333333 -260.666666667 -79.3333333333 -276 -76 c 2
 -310 -69 l 1
 -286 0 l 1
 -261 0 l 1
 -279 -53 l 1
 -255 -58 l 2
 -227.666666667 -64 -206.333333333 -73.8333333333 -191 -87.5 c 0
 -175.666666667 -101.166666667 -168 -119.333333333 -168 -142 c 0
 -168 -162 -177.666666667 -178.666666667 -197 -192 c 0
 -216.333333333 -205.333333333 -244.666666667 -212 -282 -212 c 0
 -297.333333333 -212 -313.166666667 -208.333333333 -329.5 -201 c 0
 -345.833333333 -193.666666667 -358.666666667 -185.333333333 -368 -176 c 1
EndSplineSet
Validated: 1
Colour: ffff
EndChar

StartChar: uni0331
Encoding: 817 817 366
Width: 0
GlyphClass: 4
Flags: W
HStem: -176 40<-392 -132>
VStem: -392 260<-176 -136>
AnchorPoint: "Bottom" -262 0 mark 0
LayerCount: 2
Fore
SplineSet
-392 -136 m 1
 -132 -136 l 1
 -132 -176 l 1
 -392 -176 l 1
 -392 -136 l 1
EndSplineSet
Validated: 1
Colour: ffff
EndChar

StartChar: uni0333
Encoding: 819 819 368
Width: 0
GlyphClass: 2
Flags: W
HStem: -272 40<-520 0> -158 40<-520 0>
LayerCount: 2
Fore
SplineSet
-520 -272 m 1
 -520 -232 l 1
 0 -232 l 1
 0 -272 l 1
 -520 -272 l 1
-520 -158 m 1
 -520 -118 l 1
 0 -118 l 1
 0 -158 l 1
 -520 -158 l 1
EndSplineSet
Validated: 1
Colour: ffff
EndChar

StartChar: uni0342
Encoding: 834 834 370
Width: 0
GlyphClass: 4
Flags: W
HStem: 553 20<-186.121 -140.07> 659 20<-383.93 -337.879>
VStem: -434 44<593.333 653.624> -134 44<578.376 638.667>
DStem2: -244 636 -322.5 637 0.730271 -0.683157<-85.2305 87.023>
AnchorPoint: "GreekTopMark" -262 508 mark 0
AnchorPoint: "GreekTop" -262 508 mark 0
LayerCount: 2
Fore
SplineSet
-434 600 m 0
 -434 624.666666667 -425.333333333 644 -408 658 c 0
 -390.666666667 672 -367.666666667 679 -339 679 c 0
 -327 679 -316.5 678.166666667 -307.5 676.5 c 0
 -298.5 674.833333333 -289.5 671 -280.5 665 c 0
 -271.5 659 -265.833333333 655 -263.5 653 c 0
 -261.166666667 651 -254.666666667 645.333333333 -244 636 c 0
 -232 623.333333333 -217.833333333 609.666666667 -201.5 595 c 0
 -185.166666667 580.333333333 -171 573 -159 573 c 0
 -153 573 -147.333333333 574.833333333 -142 578.5 c 0
 -136.666666667 582.166666667 -134 587.333333333 -134 594 c 0
 -134 602.666666667 -138.333333333 609.333333333 -147 614 c 0
 -162.333333333 623.333333333 -170 635 -170 649 c 0
 -170 657 -167 664 -161 670 c 0
 -155 676 -147 679 -137 679 c 0
 -123.666666667 679 -112.5 674.5 -103.5 665.5 c 0
 -94.5 656.5 -90 645.333333333 -90 632 c 0
 -90 607.333333333 -98.6666666667 588 -116 574 c 0
 -133.333333333 560 -156.333333333 553 -185 553 c 0
 -197 553 -207.5 553.833333333 -216.5 555.5 c 0
 -225.5 557.166666667 -234.5 561 -243.5 567 c 0
 -252.5 573 -258.166666667 577 -260.5 579 c 0
 -262.833333333 581 -269.333333333 586.666666667 -280 596 c 0
 -292 608.666666667 -306.166666667 622.333333333 -322.5 637 c 0
 -338.833333333 651.666666667 -353 659 -365 659 c 0
 -371 659 -376.666666667 657.166666667 -382 653.5 c 0
 -387.333333333 649.833333333 -390 644.666666667 -390 638 c 0
 -390 629.333333333 -385.666666667 622.666666667 -377 618 c 0
 -361.666666667 608.666666667 -354 597 -354 583 c 0
 -354 575 -357 568 -363 562 c 0
 -369 556 -377 553 -387 553 c 0
 -400.333333333 553 -411.5 557.5 -420.5 566.5 c 0
 -429.5 575.5 -434 586.666666667 -434 600 c 0
EndSplineSet
Validated: 1
Colour: ffff
EndChar

StartChar: uni0343
Encoding: 835 835 371
Width: 0
GlyphClass: 4
Flags: W
HStem: 646 84<-298.608 -228.386>
VStem: -228 30<570.414 645.722>
AnchorPoint: "GreekTopMarkSunken" -262 508 mark 0
AnchorPoint: "GreekTopSunken" -262 508 mark 0
LayerCount: 2
Fore
SplineSet
-274 730 m 0
 -252 730 -233.833333333 720.5 -219.5 701.5 c 0
 -205.166666667 682.5 -198 660.333333333 -198 635 c 0
 -198 581 -223 538.666666667 -273 508 c 1
 -288 525 l 1
 -248 551 -228 583 -228 621 c 0
 -228 637.666666667 -233.333333333 646 -244 646 c 0
 -248.666666667 646 -255 643.666666667 -263 639 c 0
 -271 635 -278 633 -284 633 c 0
 -297.333333333 633 -308 636.666666667 -316 644 c 0
 -325.333333333 651.333333333 -330 662.666666667 -330 678 c 0
 -330 694 -324.666666667 706.666666667 -314 716 c 0
 -303.333333333 725.333333333 -290 730 -274 730 c 0
EndSplineSet
Validated: 1
Colour: ffff
EndChar

StartChar: uni0344
Encoding: 836 836 372
Width: 0
GlyphClass: 4
Flags: W
HStem: 512 104<-404.53 -331.47 -192.53 -119.47>
VStem: -420 104<527.47 600.53> -232.5 70.5<678.375 757.996> -208 104<527.47 600.53>
AnchorPoint: "GreekTopMark" -262 508 mark 0
AnchorPoint: "GreekTop" -262 508 mark 0
LayerCount: 2
Fore
SplineSet
-156 616 m 256xd0
 -141.333333333 616 -129 611 -119 601 c 0
 -109 591 -104 578.666666667 -104 564 c 256
 -104 549.333333333 -109 537 -119 527 c 0
 -129 517 -141.333333333 512 -156 512 c 256
 -170.666666667 512 -183 517 -193 527 c 0
 -203 537 -208 549.333333333 -208 564 c 256
 -208 578.666666667 -203 591 -193 601 c 0
 -183 611 -170.666666667 616 -156 616 c 256xd0
-368 616 m 256
 -353.333333333 616 -341 611 -331 601 c 0
 -321 591 -316 578.666666667 -316 564 c 256
 -316 549.333333333 -321 537 -331 527 c 0
 -341 517 -353.333333333 512 -368 512 c 256
 -382.666666667 512 -395 517 -405 527 c 0
 -415 537 -420 549.333333333 -420 564 c 256
 -420 578.666666667 -415 591 -405 601 c 0
 -395 611 -382.666666667 616 -368 616 c 256
-194 762 m 0
 -172.666666667 762 -162 751.666666667 -162 731 c 0
 -162 723.666666667 -163 717 -165 711 c 0
 -167 705 -169.666666667 699.666666667 -173 695 c 0
 -176.333333333 690.333333333 -180 684.666666667 -184 678 c 2
 -272 540 l 1
 -292 550 l 1
 -242 708 l 2
 -238.666666667 719.333333333 -235.5 728.166666667 -232.5 734.5 c 0xe0
 -229.5 740.833333333 -224.666666667 747 -218 753 c 0
 -211.333333333 759 -203.333333333 762 -194 762 c 0
EndSplineSet
Validated: 1
Colour: ffff
EndChar

StartChar: uni0359
Encoding: 857 857 376
Width: 0
GlyphClass: 4
Flags: W
HStem: -235 45.5<-362.78 -309.857 -214.143 -161.22> -181 36<-282.809 -271.001 -252.999 -241.191> -136.5 45.5<-362.78 -309.857 -214.143 -161.22>
VStem: -286 48<-281.875 -183.656 -175.625 -150.375 -142.344 -44.125> -271 18<-225.996 -181 -145 -100.004>
CounterMasks: 1 e0
AnchorPoint: "Bottom" -262 0 mark 0
LayerCount: 2
Fore
SplineSet
-370 -212 m 0xe8
 -370 -202 -365.833333333 -194.5 -357.5 -189.5 c 0
 -349.166666667 -184.5 -337.333333333 -181 -322 -179 c 0
 -316.666666667 -178.333333333 -308.833333333 -176.166666667 -298.5 -172.5 c 0
 -288.166666667 -168.833333333 -283 -165.666666667 -283 -163 c 256
 -283 -160.333333333 -288.166666667 -157.166666667 -298.5 -153.5 c 0
 -308.833333333 -149.833333333 -316.666666667 -147.666666667 -322 -147 c 0
 -337.333333333 -145 -349.166666667 -141.5 -357.5 -136.5 c 0
 -365.833333333 -131.5 -370 -124 -370 -114 c 0
 -370 -107.333333333 -367.666666667 -101.833333333 -363 -97.5 c 0
 -358.333333333 -93.1666666667 -352.333333333 -91 -345 -91 c 256
 -337.666666667 -91 -331.333333333 -93 -326 -97 c 0
 -320.666666667 -101 -314.666666667 -107 -308 -115 c 0
 -302.666666667 -122.333333333 -296.333333333 -129.166666667 -289 -135.5 c 0
 -281.666666667 -141.833333333 -276.666666667 -145 -274 -145 c 0
 -272 -145 -271 -144.333333333 -271 -143 c 0xe8
 -271 -129 -274 -114.666666667 -280 -100 c 0
 -284 -90 -286 -80.3333333333 -286 -71 c 0
 -286 -63.6666666667 -283.5 -57.3333333333 -278.5 -52 c 0
 -273.5 -46.6666666667 -268 -44 -262 -44 c 256
 -256 -44 -250.5 -46.6666666667 -245.5 -52 c 0
 -240.5 -57.3333333333 -238 -63.6666666667 -238 -71 c 0xf0
 -238 -80.3333333333 -240 -90 -244 -100 c 0
 -250 -114.666666667 -253 -129 -253 -143 c 0
 -253 -144.333333333 -252 -145 -250 -145 c 0
 -247.333333333 -145 -242.333333333 -141.833333333 -235 -135.5 c 0
 -227.666666667 -129.166666667 -221.333333333 -122.333333333 -216 -115 c 0
 -209.333333333 -107 -203.333333333 -101 -198 -97 c 0
 -192.666666667 -93 -186.333333333 -91 -179 -91 c 256
 -171.666666667 -91 -165.666666667 -93.1666666667 -161 -97.5 c 0
 -156.333333333 -101.833333333 -154 -107.333333333 -154 -114 c 0
 -154 -124 -158.166666667 -131.5 -166.5 -136.5 c 0
 -174.833333333 -141.5 -186.666666667 -145 -202 -147 c 0
 -207.333333333 -147.666666667 -215.166666667 -149.833333333 -225.5 -153.5 c 0
 -235.833333333 -157.166666667 -241 -160.333333333 -241 -163 c 256
 -241 -165.666666667 -235.833333333 -168.833333333 -225.5 -172.5 c 0
 -215.166666667 -176.166666667 -207.333333333 -178.333333333 -202 -179 c 0
 -186.666666667 -181 -174.833333333 -184.5 -166.5 -189.5 c 0
 -158.166666667 -194.5 -154 -202 -154 -212 c 0
 -154 -218.666666667 -156.333333333 -224.166666667 -161 -228.5 c 0
 -165.666666667 -232.833333333 -171.666666667 -235 -179 -235 c 256
 -186.333333333 -235 -192.666666667 -233 -198 -229 c 0
 -203.333333333 -225 -209.333333333 -219 -216 -211 c 0
 -221.333333333 -203.666666667 -227.666666667 -196.833333333 -235 -190.5 c 0
 -242.333333333 -184.166666667 -247.333333333 -181 -250 -181 c 0
 -252 -181 -253 -181.666666667 -253 -183 c 0xe8
 -253 -197 -250 -211.333333333 -244 -226 c 0
 -240 -236 -238 -245.666666667 -238 -255 c 0
 -238 -262.333333333 -240.5 -268.666666667 -245.5 -274 c 0
 -250.5 -279.333333333 -256 -282 -262 -282 c 256
 -268 -282 -273.5 -279.333333333 -278.5 -274 c 0
 -283.5 -268.666666667 -286 -262.333333333 -286 -255 c 0xf0
 -286 -245.666666667 -284 -236 -280 -226 c 0
 -274 -211.333333333 -271 -197 -271 -183 c 0
 -271 -181.666666667 -272 -181 -274 -181 c 0
 -276.666666667 -181 -281.666666667 -184.166666667 -289 -190.5 c 0
 -296.333333333 -196.833333333 -302.666666667 -203.666666667 -308 -211 c 0
 -314.666666667 -219 -320.666666667 -225 -326 -229 c 0
 -331.333333333 -233 -337.666666667 -235 -345 -235 c 256
 -352.333333333 -235 -358.333333333 -232.833333333 -363 -228.5 c 0
 -367.666666667 -224.166666667 -370 -218.666666667 -370 -212 c 0xe8
EndSplineSet
Validated: 1
EndChar

StartChar: uni035C
Encoding: 860 860 377
Width: 0
GlyphClass: 2
Flags: W
HStem: -238 56<-121.369 121.369>
LayerCount: 2
Fore
SplineSet
0 -238 m 256
 -95.3333333333 -238 -194.666666667 -197.333333333 -298 -116 c 1
 -290 -100 l 1
 -202.666666667 -154.666666667 -106 -182 0 -182 c 256
 106 -182 202.666666667 -154.666666667 290 -100 c 1
 298 -116 l 1
 194.666666667 -197.333333333 95.3333333333 -238 0 -238 c 256
EndSplineSet
Validated: 1
Colour: ffff
EndChar

StartChar: uni035D
Encoding: 861 861 378
Width: 0
GlyphClass: 2
Flags: W
HStem: 682 56<-121.369 121.369>
LayerCount: 2
Fore
SplineSet
0 682 m 256
 -95.3333333333 682 -194.666666667 722.666666667 -298 804 c 1
 -290 820 l 1
 -202.666666667 765.333333333 -106 738 0 738 c 256
 106 738 202.666666667 765.333333333 290 820 c 1
 298 804 l 1
 194.666666667 722.666666667 95.3333333333 682 0 682 c 256
EndSplineSet
Validated: 1
Colour: ffff
EndChar

StartChar: uni0361
Encoding: 865 865 379
Width: 0
GlyphClass: 2
Flags: W
HStem: 764 56<-121.369 121.369>
LayerCount: 2
Fore
SplineSet
0 820 m 256
 95.3333333333 820 194.666666667 779.333333333 298 698 c 1
 290 682 l 1
 202.666666667 736.666666667 106 764 0 764 c 256
 -106 764 -202.666666667 736.666666667 -290 682 c 1
 -298 698 l 1
 -194.666666667 779.333333333 -95.3333333333 820 0 820 c 256
EndSplineSet
Validated: 1
Colour: ffff
EndChar

StartChar: uni0363
Encoding: 867 867 380
Width: 0
GlyphClass: 4
Flags: W
HStem: 528 24<-315.982 -271.878 -172.859 -143.88> 784 16<-312.854 -247.785>
VStem: -386 60<558.441 637.951> -363 32<722 771.923> -227 50<556.93 664 681 775.088> -134 14<569.328 608>
DStem2: -279 672 -276 656 0.985351 0.170541<-35.8648 49.8739>
AnchorPoint: "Top" -262 508 mark 0
LayerCount: 2
Fore
SplineSet
-326 595 m 0xec
 -326 579.666666667 -322.5 568.666666667 -315.5 562 c 0
 -308.5 555.333333333 -300.666666667 552 -292 552 c 0
 -282.666666667 552 -274.333333333 553.833333333 -267 557.5 c 0
 -259.666666667 561.166666667 -253.333333333 566.5 -248 573.5 c 0
 -242.666666667 580.5 -238.666666667 586.666666667 -236 592 c 0
 -233.333333333 597.333333333 -230.333333333 603.666666667 -227 611 c 1
 -227 664 l 1
 -276 656 l 2
 -294.666666667 652.666666667 -307.666666667 646.166666667 -315 636.5 c 0
 -322.333333333 626.833333333 -326 613 -326 595 c 0xec
-386 589 m 0
 -386 603 -382.666666667 615.333333333 -376 626 c 0
 -369.333333333 636.666666667 -360 645 -348 651 c 0
 -336 657 -325 661.333333333 -315 664 c 0
 -305 666.666666667 -293 669.333333333 -279 672 c 2
 -227 681 l 1
 -227 730 l 2
 -227 766 -244.666666667 784 -280 784 c 0
 -292.666666667 784 -304.333333333 781 -315 775 c 0
 -325.666666667 769 -331 762.666666667 -331 756 c 0
 -331 749.333333333 -327 744.333333333 -319 741 c 0
 -305.666666667 736.333333333 -299 727 -299 713 c 0
 -299 704.333333333 -301.833333333 698 -307.5 694 c 0
 -313.166666667 690 -319.666666667 688 -327 688 c 0
 -335.666666667 688 -343.833333333 691.666666667 -351.5 699 c 0
 -359.166666667 706.333333333 -363 716 -363 728 c 0xdc
 -363 750.666666667 -354.333333333 768.333333333 -337 781 c 0
 -319.666666667 793.666666667 -299.666666667 800 -277 800 c 0
 -249.666666667 800 -226.166666667 793.666666667 -206.5 781 c 0
 -186.833333333 768.333333333 -177 748.333333333 -177 721 c 2
 -177 585 l 2
 -177 565.666666667 -171.333333333 556 -160 556 c 0
 -142.666666667 556 -134 573.333333333 -134 608 c 1
 -120 608 l 1
 -120 554.666666667 -137 528 -171 528 c 0
 -207.666666667 528 -226.333333333 546.666666667 -227 584 c 1
 -230 585 l 1
 -236.666666667 571 -247.666666667 558 -263 546 c 0
 -278.333333333 534 -295.333333333 528 -314 528 c 0
 -334 528 -351 533 -365 543 c 0
 -379 553 -386 568.333333333 -386 589 c 0
EndSplineSet
Validated: 1
EndChar

StartChar: uni0364
Encoding: 868 868 381
Width: 0
GlyphClass: 4
Flags: W
HStem: 528 17<-291.828 -224.307> 659 20<-326 -220> 783 17<-296.395 -249.669>
VStem: -388 62<582.345 659 679 743.102> -220 60<679 746.364> -182 16<591.081 622>
AnchorPoint: "Top" -262 508 mark 0
LayerCount: 2
Fore
SplineSet
-326 679 m 1xf8
 -220 679 l 1
 -220 697 -221.5 713.333333333 -224.5 728 c 0
 -227.5 742.666666667 -233.166666667 755.5 -241.5 766.5 c 0
 -249.833333333 777.5 -260.333333333 783 -273 783 c 0
 -285.666666667 783 -296.166666667 777.5 -304.5 766.5 c 0
 -312.833333333 755.5 -318.5 742.666666667 -321.5 728 c 0
 -324.5 713.333333333 -326 697 -326 679 c 1xf8
-388 664 m 0
 -388 700 -377 731.666666667 -355 759 c 0
 -333 786.333333333 -304.666666667 800 -270 800 c 0
 -251.333333333 800 -234.666666667 795.666666667 -220 787 c 0
 -205.333333333 778.333333333 -193.833333333 767 -185.5 753 c 0
 -177.166666667 739 -170.833333333 724 -166.5 708 c 0
 -162.166666667 692 -160 675.666666667 -160 659 c 1xf8
 -326 659 l 1
 -326 641 -325 625.666666667 -323 613 c 0
 -321 600.333333333 -317.666666667 588.666666667 -313 578 c 0
 -308.333333333 567.333333333 -301.333333333 559.166666667 -292 553.5 c 0
 -282.666666667 547.833333333 -271.666666667 545 -259 545 c 0
 -241 545 -224.666666667 550.833333333 -210 562.5 c 0
 -195.333333333 574.166666667 -186 594 -182 622 c 1
 -166 622 l 1xf4
 -168 594.666666667 -177.5 572.166666667 -194.5 554.5 c 0
 -211.5 536.833333333 -234.333333333 528 -263 528 c 0
 -301 528 -331.333333333 540.666666667 -354 566 c 0
 -376.666666667 591.333333333 -388 624 -388 664 c 0
EndSplineSet
Validated: 1
EndChar

StartChar: uni0365
Encoding: 869 869 382
Width: 0
GlyphClass: 4
Flags: W
HStem: 536 16<-324 -286.875 -235.125 -198> 774 16<-324 -286.875> 846 72<-291.171 -240.829>
VStem: -302 72<856.829 907.171> -286 50<552 774>
AnchorPoint: "Top" -262 508 mark 0
LayerCount: 2
Fore
SplineSet
-302 882 m 256xf0
 -302 892 -298.5 900.5 -291.5 907.5 c 0
 -284.5 914.5 -276 918 -266 918 c 256
 -256 918 -247.5 914.5 -240.5 907.5 c 0
 -233.5 900.5 -230 892 -230 882 c 256
 -230 872 -233.5 863.5 -240.5 856.5 c 0
 -247.5 849.5 -256 846 -266 846 c 256
 -276 846 -284.5 849.5 -291.5 856.5 c 0
 -298.5 863.5 -302 872 -302 882 c 256xf0
-324 536 m 1
 -324 552 l 1
 -300 552 l 2
 -290.666666667 552 -286 556.666666667 -286 566 c 2
 -286 760 l 2
 -286 769.333333333 -290.666666667 774 -300 774 c 2
 -324 774 l 1
 -324 790 l 1
 -236 790 l 1
 -236 566 l 2xe8
 -236 556.666666667 -231.333333333 552 -222 552 c 2
 -198 552 l 1
 -198 536 l 1
 -324 536 l 1
EndSplineSet
Validated: 1
EndChar

StartChar: uni0366
Encoding: 870 870 383
Width: 0
GlyphClass: 4
Flags: W
HStem: 528 16<-289.793 -234.207> 784 16<-289.793 -234.207>
VStem: -387 62<588.095 739.905> -199 62<588.095 739.905>
AnchorPoint: "Top" -262 508 mark 0
LayerCount: 2
Fore
SplineSet
-325 664 m 0
 -325 584 -304 544 -262 544 c 0
 -220 544 -199 584 -199 664 c 0
 -199 744 -220 784 -262 784 c 0
 -304 784 -325 744 -325 664 c 0
-387 664 m 0
 -387 701.333333333 -374.833333333 733.333333333 -350.5 760 c 0
 -326.166666667 786.666666667 -296.666666667 800 -262 800 c 0
 -227.333333333 800 -197.833333333 786.666666667 -173.5 760 c 0
 -149.166666667 733.333333333 -137 701.333333333 -137 664 c 0
 -137 626.666666667 -149.166666667 594.666666667 -173.5 568 c 0
 -197.833333333 541.333333333 -227.333333333 528 -262 528 c 0
 -296.666666667 528 -326.166666667 541.333333333 -350.5 568 c 0
 -374.833333333 594.666666667 -387 626.666666667 -387 664 c 0
EndSplineSet
Validated: 1
EndChar

StartChar: uni0367
Encoding: 871 871 384
Width: 0
GlyphClass: 4
Flags: W
HStem: 528 16<-321.272 -278.319> 536 16<-175.125 -138> 773 17<-424 -386.769 -266 -226.769>
VStem: -386 50<561.533 773> -226 50<552 773>
AnchorPoint: "Top" -262 508 mark 0
LayerCount: 2
Fore
SplineSet
-424 773 m 1xb8
 -424 790 l 1
 -336 790 l 1
 -336 602 l 2
 -336 586 -333.333333333 572.333333333 -328 561 c 0
 -322.666666667 549.666666667 -313.333333333 544 -300 544 c 0xb8
 -283.333333333 544 -266.833333333 554.666666667 -250.5 576 c 0
 -234.166666667 597.333333333 -226 621.666666667 -226 649 c 2
 -226 759 l 2
 -226 768.333333333 -230.666666667 773 -240 773 c 2
 -266 773 l 1
 -266 790 l 1
 -176 790 l 1
 -176 566 l 2
 -176 556.666666667 -171.333333333 552 -162 552 c 2
 -138 552 l 1
 -138 536 l 1
 -226 536 l 1x78
 -226 591 l 1
 -228 591 l 1
 -238.666666667 571 -251 555.5 -265 544.5 c 0
 -279 533.5 -294 528 -310 528 c 0
 -328.666666667 528 -345 532.666666667 -359 542 c 0
 -377 556.666666667 -386 579.666666667 -386 611 c 2
 -386 759 l 2
 -386 768.333333333 -390.666666667 773 -400 773 c 2
 -424 773 l 1xb8
EndSplineSet
Validated: 1
EndChar

StartChar: uni0368
Encoding: 872 872 385
Width: 0
GlyphClass: 4
Flags: W
HStem: 528 16<-291.654 -225.636> 784 16<-291.904 -228.914>
VStem: -384 62<583.329 744.671> -208 36<719.333 769.726> -184 16<593.539 624>
AnchorPoint: "Top" -262 508 mark 0
LayerCount: 2
Fore
SplineSet
-384 664 m 0xe8
 -384 702.666666667 -372.666666667 735 -350 761 c 0
 -327.333333333 787 -298.333333333 800 -263 800 c 0
 -235.666666667 800 -213.666666667 792.333333333 -197 777 c 0
 -180.333333333 761.666666667 -172 744.333333333 -172 725 c 0
 -172 713.666666667 -175.166666667 704 -181.5 696 c 0
 -187.833333333 688 -196 684 -206 684 c 0
 -214 684 -220.5 686.333333333 -225.5 691 c 0
 -230.5 695.666666667 -233 701.333333333 -233 708 c 0
 -233 718.666666667 -228 726.666666667 -218 732 c 0
 -211.333333333 735.333333333 -208 740.333333333 -208 747 c 0xf0
 -208 754.333333333 -212.666666667 762.333333333 -222 771 c 0
 -231.333333333 779.666666667 -244.666666667 784 -262 784 c 0
 -274 784 -284.166666667 781.333333333 -292.5 776 c 0
 -300.833333333 770.666666667 -307.166666667 762.166666667 -311.5 750.5 c 0
 -315.833333333 738.833333333 -318.666666667 726.333333333 -320 713 c 0
 -321.333333333 699.666666667 -322 683.333333333 -322 664 c 0
 -322 644.666666667 -321.333333333 628.333333333 -320 615 c 0
 -318.666666667 601.666666667 -315.666666667 589.166666667 -311 577.5 c 0
 -306.333333333 565.833333333 -300 557.333333333 -292 552 c 0
 -284 546.666666667 -273.333333333 544 -260 544 c 0
 -236.666666667 544 -218.833333333 552 -206.5 568 c 0
 -194.166666667 584 -186.666666667 602.666666667 -184 624 c 1
 -168 624 l 1
 -169.333333333 598.666666667 -178 576.333333333 -194 557 c 0
 -210 537.666666667 -233 528 -263 528 c 0
 -298.333333333 528 -327.333333333 541 -350 567 c 0
 -372.666666667 593 -384 625.333333333 -384 664 c 0xe8
EndSplineSet
Validated: 1
EndChar

StartChar: uni0369
Encoding: 873 873 386
Width: 0
GlyphClass: 4
Flags: W
HStem: 528 16<-319.604 -266.998> 536 16<-179.125 -142> 782 16<-319.934 -272.133> 908 16<-282 -230.875>
VStem: -408 63<578.144 748.662> -230 50<552 563 565.02 753.838 754 908>
AnchorPoint: "Top" -262 508 mark 0
LayerCount: 2
Fore
SplineSet
-345 663 m 0xbc
 -345 625 -341.5 595.666666667 -334.5 575 c 0
 -327.5 554.333333333 -315 544 -297 544 c 0
 -276.333333333 544 -259.833333333 552.833333333 -247.5 570.5 c 0
 -235.166666667 588.166666667 -229 608 -229 630 c 2
 -229 682 l 2
 -229 707.333333333 -236 730.333333333 -250 751 c 0
 -264 771.666666667 -279.666666667 782 -297 782 c 0
 -315 782 -327.5 771.666666667 -334.5 751 c 0
 -341.5 730.333333333 -345 701 -345 663 c 0xbc
-408 663 m 0
 -408 701.666666667 -398.333333333 733.833333333 -379 759.5 c 0
 -359.666666667 785.166666667 -334.333333333 798 -303 798 c 0
 -289 798 -275.666666667 794 -263 786 c 0
 -250.333333333 778 -240.333333333 767 -233 753 c 1
 -230 754 l 1
 -230 894 l 2
 -230 903.333333333 -234.666666667 908 -244 908 c 2
 -282 908 l 1
 -282 924 l 1
 -180 924 l 1
 -180 566 l 2
 -180 556.666666667 -175.333333333 552 -166 552 c 2
 -142 552 l 1
 -142 536 l 1
 -230 536 l 1x7c
 -230 563 l 1
 -233 564 l 1
 -240.333333333 553.333333333 -250.166666667 544.666666667 -262.5 538 c 0
 -274.833333333 531.333333333 -288 528 -302 528 c 0
 -334 528 -359.666666667 541 -379 567 c 0
 -398.333333333 593 -408 625 -408 663 c 0
EndSplineSet
Validated: 1
EndChar

StartChar: uni036A
Encoding: 874 874 387
Width: 0
GlyphClass: 4
Flags: W
HStem: 536 16<-410 -368.875 -317.125 -280 -244 -206.875 -155.125 -118> 784 16<-267.211 -221.474> 908 16<-410 -368.875>
VStem: -368 50<552 908> -206 50<552 766.467>
AnchorPoint: "Top" -262 508 mark 0
LayerCount: 2
Fore
SplineSet
-410 536 m 1
 -410 552 l 1
 -382 552 l 2
 -372.666666667 552 -368 556.666666667 -368 566 c 2
 -368 894 l 2
 -368 903.333333333 -372.666666667 908 -382 908 c 2
 -410 908 l 1
 -410 924 l 1
 -318 924 l 1
 -318 740 l 1
 -316 740 l 1
 -294.666666667 780 -267 800 -233 800 c 0
 -213.666666667 800 -197.666666667 795.333333333 -185 786 c 0
 -175 778.666666667 -167.666666667 768.5 -163 755.5 c 0
 -158.333333333 742.5 -156 729.666666667 -156 717 c 2
 -156 566 l 2
 -156 556.666666667 -151.333333333 552 -142 552 c 2
 -118 552 l 1
 -118 536 l 1
 -244 536 l 1
 -244 552 l 1
 -220 552 l 2
 -210.666666667 552 -206 556.666666667 -206 566 c 2
 -206 727 l 2
 -206 742.333333333 -208.833333333 755.666666667 -214.5 767 c 0
 -220.166666667 778.333333333 -229.666666667 784 -243 784 c 0
 -259.666666667 784 -276.333333333 773.666666667 -293 753 c 0
 -309.666666667 732.333333333 -318 708 -318 680 c 2
 -318 566 l 2
 -318 556.666666667 -313.333333333 552 -304 552 c 2
 -280 552 l 1
 -280 536 l 1
 -410 536 l 1
EndSplineSet
Validated: 1
EndChar

StartChar: uni036B
Encoding: 875 875 388
Width: 0
GlyphClass: 4
Flags: W
HStem: 536 16<-480 -442.875 -391.125 -354 -324 -286.875 -235.125 -198 -168 -130.875 -79.125 -42> 774 16<-480 -442.875> 782 16<-343.548 -301.557 -190.957 -145.221>
VStem: -442 50<552 774> -286 50<552 750.994> -130 50<552 764.467>
CounterMasks: 1 1c
AnchorPoint: "Top" -262 508 mark 0
LayerCount: 2
Fore
SplineSet
-480 536 m 1xbc
 -480 552 l 1
 -456 552 l 2
 -446.666666667 552 -442 556.666666667 -442 566 c 2
 -442 760 l 2
 -442 769.333333333 -446.666666667 774 -456 774 c 2
 -480 774 l 1
 -480 790 l 1
 -392 790 l 1xdc
 -392 739 l 1
 -389 739 l 1
 -368.333333333 778.333333333 -343 798 -313 798 c 0
 -292.333333333 798 -275.666666667 793.333333333 -263 784 c 0
 -253 774.666666667 -245.333333333 761.666666667 -240 745 c 1
 -237 745 l 1
 -215.666666667 780.333333333 -190 798 -160 798 c 0
 -139.333333333 798 -122 793.333333333 -108 784 c 0
 -98 776.666666667 -90.8333333333 766.5 -86.5 753.5 c 0
 -82.1666666667 740.5 -80 727.666666667 -80 715 c 2
 -80 566 l 2
 -80 556.666666667 -75.3333333333 552 -66 552 c 2
 -42 552 l 1
 -42 536 l 1
 -168 536 l 1
 -168 552 l 1
 -144 552 l 2
 -134.666666667 552 -130 556.666666667 -130 566 c 2
 -130 725 l 2
 -130 740.333333333 -132.833333333 753.666666667 -138.5 765 c 0
 -144.166666667 776.333333333 -153.666666667 782 -167 782 c 0
 -183.666666667 782 -199.333333333 771.666666667 -214 751 c 0
 -228.666666667 730.333333333 -236 706 -236 678 c 2
 -236 566 l 2
 -236 556.666666667 -231.333333333 552 -222 552 c 2
 -198 552 l 1
 -198 536 l 1
 -324 536 l 1
 -324 552 l 1
 -300 552 l 2
 -290.666666667 552 -286 556.666666667 -286 566 c 2
 -286 725 l 2
 -286 740.333333333 -288.833333333 753.666666667 -294.5 765 c 0
 -300.166666667 776.333333333 -309.666666667 782 -323 782 c 0
 -339.666666667 782 -355.333333333 771.666666667 -370 751 c 0
 -384.666666667 730.333333333 -392 706 -392 678 c 2
 -392 566 l 2
 -392 556.666666667 -387.333333333 552 -378 552 c 2
 -354 552 l 1
 -354 536 l 1
 -480 536 l 1xbc
EndSplineSet
Validated: 1
EndChar

StartChar: uni036C
Encoding: 876 876 389
Width: 0
GlyphClass: 4
Flags: W
HStem: 536 16<-348 -310.875 -259.125 -222> 711 21G<-170.667 -161.333> 774 16<-348 -310.875> 782 16<-206.243 -168.582>
VStem: -310 50<552 774> -168 36<746.333 781.89>
AnchorPoint: "Top" -262 508 mark 0
LayerCount: 2
Fore
SplineSet
-348 536 m 1xdc
 -348 552 l 1
 -324 552 l 2
 -314.666666667 552 -310 556.666666667 -310 566 c 2
 -310 760 l 2
 -310 769.333333333 -314.666666667 774 -324 774 c 2
 -348 774 l 1
 -348 790 l 1
 -260 790 l 1
 -260 718 l 1
 -257 717 l 1
 -249.666666667 737.666666667 -241 754.666666667 -231 768 c 0
 -224.333333333 777.333333333 -216.166666667 784.666666667 -206.5 790 c 0xec
 -196.833333333 795.333333333 -187 798 -177 798 c 0
 -161.666666667 798 -150.333333333 793.333333333 -143 784 c 0
 -135.666666667 774.666666667 -132 763.666666667 -132 751 c 0
 -132 741.666666667 -135 732.666666667 -141 724 c 0
 -147 715.333333333 -155.666666667 711 -167 711 c 0
 -174.333333333 711 -180.5 713.166666667 -185.5 717.5 c 0
 -190.5 721.833333333 -193 727.333333333 -193 734 c 0
 -193 744.666666667 -188.666666667 752.333333333 -180 757 c 0
 -172 761.666666667 -168 766.333333333 -168 771 c 0
 -168 778.333333333 -173 782 -183 782 c 0
 -207.666666667 782 -228.333333333 759 -245 713 c 0
 -255 687 -260 661.333333333 -260 636 c 2
 -260 566 l 2
 -260 556.666666667 -255.333333333 552 -246 552 c 2
 -222 552 l 1
 -222 536 l 1
 -348 536 l 1xdc
EndSplineSet
Validated: 1
EndChar

StartChar: uni036D
Encoding: 877 877 390
Width: 0
GlyphClass: 4
Flags: W
HStem: 528 29<-267.289 -215.723> 758 20<-364 -322.24 -272 -202>
VStem: -322 50<557.87 758> -292 20<811.992 864> -204 14<579.773 624>
AnchorPoint: "Top" -262 508 mark 0
LayerCount: 2
Fore
SplineSet
-364 758 m 1xe8
 -364 778 l 1
 -350 778 l 2
 -336 778 -324.5 782.833333333 -315.5 792.5 c 0
 -306.5 802.166666667 -300.333333333 813 -297 825 c 0
 -293.666666667 837 -292 850 -292 864 c 1
 -272 864 l 1
 -272 778 l 1xd8
 -202 778 l 1
 -202 758 l 1
 -272 758 l 1
 -272 595 l 2
 -272 569.666666667 -262.333333333 557 -243 557 c 0
 -217 557 -204 579.333333333 -204 624 c 1
 -190 624 l 1
 -190 560 -212 528 -256 528 c 0
 -274.666666667 528 -290.333333333 534.333333333 -303 547 c 0
 -315.666666667 559.666666667 -322 576 -322 596 c 2
 -322 758 l 1
 -364 758 l 1xe8
EndSplineSet
Validated: 1
EndChar

StartChar: uni036E
Encoding: 878 878 391
Width: 0
GlyphClass: 4
Flags: W
HStem: 774 16<-416 -382.562 -317.418 -286 -233 -204.188 -160 -126>
VStem: -416 290
DStem2: -314 744 -368 742 0.419865 -0.907587<-16.4491 152.118> -250 606 -258 528 0.357809 0.933795<0 154.618>
AnchorPoint: "Top" -262 508 mark 0
LayerCount: 2
Fore
SplineSet
-416 774 m 1
 -416 790 l 1
 -286 790 l 1
 -286 774 l 1
 -303 774 l 2
 -307 774 -310.666666667 772.666666667 -314 770 c 0
 -317.333333333 767.333333333 -319 764 -319 760 c 0
 -319 756 -317.333333333 750.666666667 -314 744 c 2
 -250 606 l 1
 -204 726 l 2
 -200 736 -198 744.666666667 -198 752 c 0
 -198 758.666666667 -200 764 -204 768 c 0
 -208 772 -213 774 -219 774 c 2
 -233 774 l 1
 -233 790 l 1
 -126 790 l 1
 -126 774 l 1
 -138 774 l 2
 -154.666666667 774 -167.333333333 763.333333333 -176 742 c 2
 -258 528 l 1
 -269 528 l 1
 -368 742 l 2
 -373.333333333 753.333333333 -378.333333333 761.5 -383 766.5 c 0
 -387.666666667 771.5 -394.333333333 774 -403 774 c 2
 -416 774 l 1
EndSplineSet
Validated: 1
EndChar

StartChar: uni036F
Encoding: 879 879 392
Width: 0
GlyphClass: 4
Flags: W
HStem: 536 16<-392 -357.25 -315.6 -294 -250 -224.144 -158.674 -124> 774 16<-394 -361.07 -294.756 -273 -238 -212.424 -173.168 -136>
VStem: -394 270
DStem2: -291 752 -358 762 0.567434 -0.823419<-11.1473 68.2414 104.651 194.313> -336 583 -309 588 0.595228 0.803557<0.286882 82.2902 140.801 216.382>
AnchorPoint: "Top" -262 508 mark 0
LayerCount: 2
Fore
SplineSet
-394 774 m 1
 -394 790 l 1
 -273 790 l 1
 -273 774 l 1
 -285 774 l 2
 -291.666666667 774 -295 770.333333333 -295 763 c 0
 -295 758.333333333 -293.666666667 754.666666667 -291 752 c 2
 -252 696 l 1
 -216 744 l 2
 -212.666666667 748 -211 753.333333333 -211 760 c 0
 -211 764 -212.5 767.333333333 -215.5 770 c 0
 -218.5 772.666666667 -221.666666667 774 -225 774 c 2
 -238 774 l 1
 -238 790 l 1
 -136 790 l 1
 -136 774 l 1
 -150 774 l 2
 -164.666666667 774 -177.666666667 766 -189 750 c 2
 -241 679 l 1
 -164 567 l 2
 -161.333333333 563.666666667 -159.333333333 561 -158 559 c 0
 -156.666666667 557 -154 555.333333333 -150 554 c 0
 -146 552.666666667 -141.333333333 552 -136 552 c 2
 -124 552 l 1
 -124 536 l 1
 -250 536 l 1
 -250 552 l 1
 -236 552 l 2
 -228 552 -224 555.333333333 -224 562 c 0
 -224 566 -225.333333333 570 -228 574 c 2
 -272 638 l 1
 -309 588 l 2
 -314.333333333 581.333333333 -317 575 -317 569 c 0
 -317 557.666666667 -312.666666667 552 -304 552 c 2
 -294 552 l 1
 -294 536 l 1
 -392 536 l 1
 -392 552 l 1
 -377 552 l 2
 -364.333333333 552 -350.666666667 562.333333333 -336 583 c 2
 -284 654 l 1
 -358 762 l 2
 -360.666666667 766 -363.5 769 -366.5 771 c 0
 -369.5 773 -374.333333333 774 -381 774 c 2
 -394 774 l 1
EndSplineSet
Validated: 1
EndChar

StartChar: uni0374
Encoding: 884 884 393
Width: 240
GlyphClass: 2
Flags: W
HStem: 508 222
VStem: 46 162
LayerCount: 2
Fore
SplineSet
177 730 m 0
 185.666666667 730 193 727.166666667 199 721.5 c 0
 205 715.833333333 208 709 208 701 c 0
 208 682.333333333 197.333333333 661.666666667 176 639 c 2
 64 508 l 1
 46 520 l 1
 120 676 l 2
 128 693.333333333 136.166666667 706.666666667 144.5 716 c 0
 152.833333333 725.333333333 163.666666667 730 177 730 c 0
EndSplineSet
Validated: 1
EndChar

StartChar: uni0375
Encoding: 885 885 394
Width: 240
GlyphClass: 2
Flags: W
HStem: -282 222
VStem: 32 162
LayerCount: 2
Fore
SplineSet
63 -282 m 0
 54.3333333333 -282 47 -279.166666667 41 -273.5 c 0
 35 -267.833333333 32 -261 32 -253 c 0
 32 -234.333333333 42.6666666667 -213.666666667 64 -191 c 2
 176 -60 l 1
 194 -72 l 1
 120 -228 l 2
 112 -245.333333333 103.833333333 -258.666666667 95.5 -268 c 0
 87.1666666667 -277.333333333 76.3333333333 -282 63 -282 c 0
EndSplineSet
Validated: 1
EndChar

StartChar: uni037A
Encoding: 890 890 395
Width: 440
GlyphClass: 2
Flags: W
HStem: -282 198<203.25 236.75>
VStem: 176 88<-275.619 -128> 202 36<-140.545 -84.0063>
LayerCount: 2
Fore
SplineSet
220 -84 m 256xa0
 228 -84 234 -92.6666666667 238 -110 c 2xa0
 260 -206 l 2
 262.666666667 -218 264 -228.666666667 264 -238 c 0
 264 -249.333333333 259.666666667 -259.5 251 -268.5 c 0
 242.333333333 -277.5 232 -282 220 -282 c 256
 208 -282 197.666666667 -277.5 189 -268.5 c 0
 180.333333333 -259.5 176 -249.333333333 176 -238 c 0xc0
 176 -228.666666667 177.333333333 -218 180 -206 c 2
 202 -110 l 2
 206 -92.6666666667 212 -84 220 -84 c 256xa0
EndSplineSet
Validated: 1
EndChar

StartChar: uni1D79
Encoding: 7545 7545 486
Width: 438
GlyphClass: 2
Flags: W
HStem: -168 24<159.739 275.076> 380 76<62 284>
VStem: 40 56<-94.8374 37.561> 134 58<185.63 256.823> 344 56<-83.8627 3.53162>
DStem2: 177 282 400 432 0.779509 0.626391<-2.8087 137.903> 233 168 185 118 0.779509 -0.626391<-69.2916 -6.09687 4.17592 213.617>
LayerCount: 2
Fore
SplineSet
215 -168 m 256
 165 -168 123.333333333 -154 90 -126 c 0
 56.6666666667 -98 40 -63 40 -21 c 0
 40 7 53.8333333333 34 81.5 60 c 0
 109.166666667 86 143.666666667 104.666666667 185 116 c 1
 185 118 l 1
 151 146.666666667 134 174.333333333 134 201 c 0
 134 215.666666667 138.833333333 230.666666667 148.5 246 c 0
 158.166666667 261.333333333 167.666666667 273.333333333 177 282 c 0
 186.333333333 290.666666667 199.333333333 301.666666667 216 315 c 2
 284 369 l 1
 284 380 l 1
 62 380 l 1
 62 456 l 1
 400 456 l 1
 400 432 l 1
 232 297 l 2
 205.333333333 275 192 254.666666667 192 236 c 0
 192 220.666666667 195.166666667 208.5 201.5 199.5 c 0
 207.833333333 190.5 218.333333333 180 233 168 c 2
 331 91 l 2
 377 55 400 18.3333333333 400 -19 c 0
 400 -55 381.666666667 -88.8333333333 345 -120.5 c 0
 308.333333333 -152.166666667 265 -168 215 -168 c 256
220 -144 m 0
 251.333333333 -144 279.833333333 -134 305.5 -114 c 0
 331.166666667 -94 344 -72.3333333333 344 -49 c 0
 344 -22.3333333333 328.333333333 3.33333333333 297 28 c 2
 201 103 l 1
 131 79 96 37.3333333333 96 -22 c 0
 96 -61.3333333333 107.166666667 -91.5 129.5 -112.5 c 0
 151.833333333 -133.5 182 -144 220 -144 c 0
EndSplineSet
Validated: 1
EndChar

StartChar: uni2E2F
Encoding: 11823 11823 788
Width: 160
GlyphClass: 2
Flags: W
HStem: 504 18<95.7367 120> 712 18<40 64.2633>
VStem: 40 48<527.508 618.105> 72 48<615.895 706.492>
LayerCount: 2
Fore
SplineSet
40 569 m 0xe0
 40 585.666666667 45.6666666667 606.666666667 57 632 c 0
 67 652 72 669 72 683 c 0xd0
 72 692.333333333 69.5 699.166666667 64.5 703.5 c 0
 59.5 707.833333333 51.3333333333 710.666666667 40 712 c 1
 40 730 l 1xe0
 61.3333333333 730 80 724.333333333 96 713 c 0
 112 701.666666667 120 685.666666667 120 665 c 0xd0
 120 648.333333333 114.333333333 627.333333333 103 602 c 0
 93 582 88 565 88 551 c 0xe0
 88 541.666666667 90.5 534.833333333 95.5 530.5 c 0
 100.5 526.166666667 108.666666667 523.333333333 120 522 c 1
 120 504 l 1xd0
 98.6666666667 504 80 509.666666667 64 521 c 0
 48 532.333333333 40 548.333333333 40 569 c 0xe0
EndSplineSet
Validated: 1
EndChar

StartChar: uniA67E
Encoding: 42622 42622 795
Width: 364
GlyphClass: 2
Flags: W
HStem: 526 32<123.491 240.509>
VStem: 40 36<608.334 668> 288 36<608.334 668>
LayerCount: 2
Fore
SplineSet
40 668 m 1
 76 668 l 1
 78.6666666667 637.333333333 88.6666666667 611.333333333 106 590 c 0
 123.333333333 568.666666667 148.666666667 558 182 558 c 0
 215.333333333 558 240.666666667 568.666666667 258 590 c 0
 275.333333333 611.333333333 285.333333333 637.333333333 288 668 c 1
 324 668 l 1
 322.666666667 626.666666667 308 592.666666667 280 566 c 0
 252 539.333333333 219.333333333 526 182 526 c 0
 144.666666667 526 112 539.333333333 84 566 c 0
 56 592.666666667 41.3333333333 626.666666667 40 668 c 1
EndSplineSet
Validated: 1
EndChar

StartChar: uniA67F
Encoding: 42623 42623 796
Width: 260
GlyphClass: 2
Flags: W
HStem: 594 32<115.069 175.203> 695 20G<22.8333 84 233.955 272>
VStem: 12 260
DStem2: 126 502 154 487 0.479134 0.877742<0.249633 108.3 136.607 248.135>
LayerCount: 2
Fore
SplineSet
12 691 m 1
 77 715 l 1
 91 655.666666667 118.666666667 626 160 626 c 0
 169.333333333 626 178.666666667 628.666666667 188 634 c 0
 197.333333333 639.333333333 204 645.666666667 208 653 c 2
 245 720 l 1
 272 705 l 1
 154 487 l 1
 126 502 l 1
 178 597 l 1
 173 601 l 1
 161.666666667 596.333333333 149 594 135 594 c 0
 111.666666667 594 87.6666666667 602.333333333 63 619 c 0
 38.3333333333 635.666666667 21.3333333333 659.666666667 12 691 c 1
EndSplineSet
Validated: 1
EndChar

StartChar: uniA77D
Encoding: 42877 42877 797
Width: 600
GlyphClass: 2
Flags: W
HStem: -168 32<233.874 394.321> 620 92<94 428>
VStem: 64 72<-48.5205 110.836> 204 72<343.359 427.808> 496 72<-37.8272 67.415>
DStem2: 337 306 277 234 0.784883 -0.619644<-91.2542 -2.47858 15.7283 284.3> 310 513 332 488 0.775712 0.631087<-80.7754 148.963>
LayerCount: 2
Fore
SplineSet
302 -168 m 0
 238.666666667 -168 183.166666667 -148 135.5 -108 c 0
 87.8333333333 -68 64 -20 64 36 c 0
 64 84 86.8333333333 126.5 132.5 163.5 c 0
 178.166666667 200.5 226.333333333 223 277 231 c 1
 277 234 l 1
 228.333333333 274.666666667 204 315.666666667 204 357 c 0
 204 386.333333333 213.333333333 412.833333333 232 436.5 c 0
 250.666666667 460.166666667 276.666666667 485.666666667 310 513 c 2
 428 604 l 1
 428 620 l 1
 94 620 l 1
 94 712 l 1
 568 712 l 1
 568 680 l 1
 332 488 l 2
 312 471.333333333 297.666666667 457.333333333 289 446 c 0
 280.333333333 434.666666667 276 421.333333333 276 406 c 0
 276 384 280.833333333 366.166666667 290.5 352.5 c 0
 300.166666667 338.833333333 315.666666667 323.333333333 337 306 c 2
 473 200 l 2
 536.333333333 149.333333333 568 96.6666666667 568 42 c 0
 568 -10 542.666666667 -58 492 -102 c 0
 441.333333333 -146 378 -168 302 -168 c 0
310 -136 m 256
 360 -136 403.5 -122.166666667 440.5 -94.5 c 0
 477.5 -66.8333333333 496 -34 496 4 c 0
 496 42.6666666667 473.666666667 79.3333333333 429 114 c 2
 304 213 l 1
 192 189.666666667 136 130 136 34 c 0
 136 -15.3333333333 152.5 -56 185.5 -88 c 0
 218.5 -120 260 -136 310 -136 c 256
EndSplineSet
Validated: 1
EndChar

StartChar: uniA7FB
Encoding: 43003 43003 798
Width: 676
GlyphClass: 2
Flags: W
HStem: 0 32<328 441.517 536.483 628> 344 36<304.04 443> 680 32<184.432 436.295 541.705 634>
VStem: 72 25<486 558.888> 247 26<205 300.094 423.906 518> 443 92<32.323 344 380 673.295>
LayerCount: 2
Fore
SplineSet
72 486 m 1
 76 712 l 1
 634 712 l 1
 634 680 l 1
 562 680 l 2
 552.666666667 680 545.833333333 677.833333333 541.5 673.5 c 0
 537.166666667 669.166666667 535 662.333333333 535 653 c 2
 535 59 l 2
 535 41 544 32 562 32 c 2
 628 32 l 1
 628 0 l 1
 328 0 l 1
 328 32 l 1
 416 32 l 2
 434 32 443 41 443 59 c 2
 443 344 l 1
 355 344 l 2
 340.333333333 344 327.666666667 341 317 335 c 0
 306.333333333 329 298.166666667 321.666666667 292.5 313 c 0
 286.833333333 304.333333333 282.5 293 279.5 279 c 0
 276.5 265 274.666666667 252.666666667 274 242 c 0
 273.333333333 231.333333333 273 219 273 205 c 1
 247 205 l 1
 247 518 l 1
 273 518 l 1
 273 503.333333333 273.333333333 491 274 481 c 0
 274.666666667 471 276.5 459 279.5 445 c 0
 282.5 431 286.833333333 419.666666667 292.5 411 c 0
 298.166666667 402.333333333 306.333333333 395 317 389 c 0
 327.666666667 383 340.333333333 380 355 380 c 2
 443 380 l 1
 443 653 l 2
 443 662.333333333 440.833333333 669.166666667 436.5 673.5 c 0
 432.166666667 677.833333333 425.333333333 680 416 680 c 2
 255 680 l 2
 202.333333333 680 163.333333333 660.666666667 138 622 c 0
 126 604 116.666666667 583.666666667 110 561 c 0
 103.333333333 538.333333333 99.3333333333 520 98 506 c 2
 97 486 l 1
 72 486 l 1
EndSplineSet
Validated: 1
EndChar

StartChar: uniA7FC
Encoding: 43004 43004 799
Width: 680
GlyphClass: 2
Flags: W
HStem: 0 32<332 440.81 540.483 638> 336 32<235.733 447> 680 32<235.733 440.295 545.705 638>
VStem: 64 106<442.039 609.255> 447 92<38.705 336 368 673.295>
LayerCount: 2
Fore
SplineSet
64 526 m 0
 64 580.666666667 86.3333333333 625.333333333 131 660 c 0
 175.666666667 694.666666667 233.333333333 712 304 712 c 2
 638 712 l 1
 638 680 l 1
 566 680 l 2
 556.666666667 680 549.833333333 677.833333333 545.5 673.5 c 0
 541.166666667 669.166666667 539 662.333333333 539 653 c 2
 539 59 l 2
 539 41 548 32 566 32 c 2
 638 32 l 1
 638 0 l 1
 332 0 l 1
 332 32 l 1
 420 32 l 2
 430 32 437 34.1666666667 441 38.5 c 0
 445 42.8333333333 447 49.6666666667 447 59 c 2
 447 336 l 1
 304 336 l 2
 233.333333333 336 175.666666667 353.833333333 131 389.5 c 0
 86.3333333333 425.166666667 64 470.666666667 64 526 c 0
170 526 m 0
 170 482.666666667 181 445.5 203 414.5 c 0
 225 383.5 254.333333333 368 291 368 c 2
 447 368 l 1
 447 653 l 2
 447 662.333333333 444.833333333 669.166666667 440.5 673.5 c 0
 436.166666667 677.833333333 429.333333333 680 420 680 c 2
 291 680 l 2
 254.333333333 680 225 665 203 635 c 0
 181 605 170 568.666666667 170 526 c 0
EndSplineSet
Validated: 1
EndChar

StartChar: uniA7FD
Encoding: 43005 43005 800
Width: 838
GlyphClass: 2
Flags: W
HStem: 0 32<62 154.295 703.705 796> 680 32<62 138.37 223.63 300 506 603.517 698.483 796> 704 20G<391.975 427.537>
VStem: 161 40<90 657.824> 605 92<63 679.677>
DStem2: 207 90 274 0 0.288456 0.957493<0 507.749> 422 724 437 551 0.266817 -0.963747<170.731 685.864>
LayerCount: 2
Fore
SplineSet
62 0 m 1xd8
 62 32 l 1
 134 32 l 2
 143.333333333 32 150.166666667 34.1666666667 154.5 38.5 c 0
 158.833333333 42.8333333333 161 49.6666666667 161 59 c 2
 161 600 l 2
 161 624.666666667 155.166666667 644.166666667 143.5 658.5 c 0
 131.833333333 672.833333333 116.666666667 680 98 680 c 2
 62 680 l 1
 62 712 l 1
 300 712 l 1
 300 680 l 1
 264 680 l 2xd8
 245.333333333 680 230.166666667 672.833333333 218.5 658.5 c 0
 206.833333333 644.166666667 201 624.666666667 201 600 c 2
 201 90 l 1
 207 90 l 1
 398 724 l 1
 422 724 l 1xb8
 605 63 l 1
 605 653 l 2
 605 671 596 680 578 680 c 2
 506 680 l 1
 506 712 l 1
 796 712 l 1
 796 680 l 1
 724 680 l 2
 706 680 697 671 697 653 c 2
 697 59 l 2
 697 49.6666666667 699.166666667 42.8333333333 703.5 38.5 c 0
 707.833333333 34.1666666667 714.666666667 32 724 32 c 2
 796 32 l 1
 796 0 l 1
 589 0 l 1
 437 551 l 1
 274 0 l 1
 62 0 l 1xd8
EndSplineSet
Validated: 1
EndChar

StartChar: uniA7FE
Encoding: 43006 43006 801
Width: 394
GlyphClass: 2
Flags: W
HStem: 0 32<62 159.517 254.483 352> 836 32<62 154.295 259.705 352>
VStem: 161 92<32.323 829.295>
LayerCount: 2
Fore
SplineSet
62 0 m 1
 62 32 l 1
 134 32 l 2
 152 32 161 41 161 59 c 2
 161 809 l 2
 161 818.333333333 158.833333333 825.166666667 154.5 829.5 c 0
 150.166666667 833.833333333 143.333333333 836 134 836 c 2
 62 836 l 1
 62 868 l 1
 352 868 l 1
 352 836 l 1
 280 836 l 2
 270.666666667 836 263.833333333 833.833333333 259.5 829.5 c 0
 255.166666667 825.166666667 253 818.333333333 253 809 c 2
 253 59 l 2
 253 41 262 32 280 32 c 2
 352 32 l 1
 352 0 l 1
 62 0 l 1
EndSplineSet
Validated: 1
EndChar

StartChar: uniA7FF
Encoding: 43007 43007 802
Width: 1228
GlyphClass: 2
Flags: W
HStem: -18 21G<488.107 524.893 833.107 869.888> 0 32<46 136.769 231.014 312> 680 32<908 988.986 1084.22 1174>
DStem2: 172 105 225 154 0.282851 0.959164<-4.51311 448.671> 376 712 334 525 0.282644 -0.959225<167.504 566.082> 536 169 519 -18 0.282644 0.959225<0 381.902> 721 712 679 525 0.282644 -0.959225<167.504 566.082> 881 169 864 -18 0.282416 0.959292<0 471.867>
LayerCount: 2
Fore
SplineSet
46 0 m 1x60
 46 32 l 1
 89 32 l 2x60
 130.333333333 32 158 56.3333333333 172 105 c 2
 351 712 l 1
 376 712 l 1
 536 169 l 1
 696 712 l 1
 721 712 l 1
 881 169 l 1
 995 558 l 2
 1002.33333333 583.333333333 1006 605.666666667 1006 625 c 0
 1006 639 1000.66666667 651.666666667 990 663 c 0
 979.333333333 674.333333333 964 680 944 680 c 2
 908 680 l 1
 908 712 l 1
 1174 712 l 1
 1174 680 l 1
 1131 680 l 2
 1091 680 1063.33333333 655.666666667 1048 607 c 2
 864 -18 l 1
 839 -18 l 1
 679 525 l 1
 519 -18 l 1
 494 -18 l 1xa0
 334 525 l 1
 225 154 l 2
 217.666666667 128.666666667 214 106.333333333 214 87 c 0
 214 73 219.333333333 60.3333333333 230 49 c 0
 240.666666667 37.6666666667 256 32 276 32 c 2
 312 32 l 1
 312 0 l 1
 46 0 l 1x60
EndSplineSet
Validated: 1
EndChar

StartChar: acutecomb.grek
Encoding: 60160 60160 826
Width: 0
GlyphClass: 4
Flags: W
HStem: 508 222
VStem: -230.5 70.5<646.375 725.996>
AnchorPoint: "GreekTopMarkSunken" -262 508 mark 0
AnchorPoint: "GreekCap" -140 712 mark 0
AnchorPoint: "GreekTopSunken" -262 508 mark 0
LayerCount: 2
Fore
SplineSet
-192 730 m 0
 -170.666666667 730 -160 719.666666667 -160 699 c 0
 -160 691.666666667 -161 685 -163 679 c 0
 -165 673 -167.666666667 667.666666667 -171 663 c 0
 -174.333333333 658.333333333 -178 652.666666667 -182 646 c 2
 -270 508 l 1
 -290 518 l 1
 -240 676 l 2
 -236.666666667 687.333333333 -233.5 696.166666667 -230.5 702.5 c 0
 -227.5 708.833333333 -222.666666667 715 -216 721 c 0
 -209.333333333 727 -201.333333333 730 -192 730 c 0
EndSplineSet
Validated: 1
Colour: ffff
EndChar

StartChar: gravecomb.grek
Encoding: 60161 60161 827
Width: 0
GlyphClass: 4
Flags: W
HStem: 508 222
VStem: -360 70.5<646.375 725.996>
AnchorPoint: "GreekTopMarkSunken" -262 508 mark 0
AnchorPoint: "GreekCap" -230 712 mark 0
AnchorPoint: "GreekTopSunken" -262 508 mark 0
LayerCount: 2
Fore
SplineSet
-328 730 m 0
 -318.666666667 730 -310.666666667 727 -304 721 c 0
 -297.333333333 715 -292.5 708.833333333 -289.5 702.5 c 0
 -286.5 696.166666667 -283.333333333 687.333333333 -280 676 c 2
 -230 518 l 1
 -250 508 l 1
 -338 646 l 2
 -342 652.666666667 -345.666666667 658.333333333 -349 663 c 0
 -352.333333333 667.666666667 -355 673 -357 679 c 0
 -359 685 -360 691.666666667 -360 699 c 0
 -360 719.666666667 -349.333333333 730 -328 730 c 0
EndSplineSet
Validated: 1
Colour: ffff
EndChar

StartChar: theta.mgrk
Encoding: 60162 60162 828
Width: 464
GlyphClass: 2
Flags: W
HStem: -12 64<182.102 255.544> 370 28<132 338> 656 64<208.114 288.975>
VStem: 64 56<193.839 420.631>
AnchorPoint: "Bottom" 236 0 basechar 0
LayerCount: 2
Fore
SplineSet
240 -12 m 0
 205.333333333 -12 174.333333333 8 147 48 c 0
 119.666666667 88 99 137.666666667 85 197 c 0
 71 256.333333333 64 317.333333333 64 380 c 0
 64 412 67.1666666667 446.5 73.5 483.5 c 0
 79.8333333333 520.5 89.1666666667 557.166666667 101.5 593.5 c 0
 113.833333333 629.833333333 130.666666667 660 152 684 c 0
 173.333333333 708 197.333333333 720 224 720 c 0
 276 720 318.333333333 685.833333333 351 617.5 c 0
 383.666666667 549.166666667 400 467.333333333 400 372 c 0
 400 340 396.833333333 303.166666667 390.5 261.5 c 0
 384.166666667 219.833333333 374.833333333 178 362.5 136 c 0
 350.166666667 94 333.166666667 58.8333333333 311.5 30.5 c 0
 289.833333333 2.16666666667 266 -12 240 -12 c 0
214 52 m 0
 244.666666667 52 271 81.5 293 140.5 c 0
 315 199.5 330 276 338 370 c 1
 128 370 l 1
 122.666666667 315.333333333 120 260 120 204 c 0
 120 172 129.166666667 138.666666667 147.5 104 c 0
 165.833333333 69.3333333333 188 52 214 52 c 0
250 656 m 0
 222.666666667 656 198.666666667 632.5 178 585.5 c 0
 157.333333333 538.5 142 476 132 398 c 1
 340 398 l 1
 342.666666667 429.333333333 344 465.333333333 344 506 c 0
 344 538 334.833333333 571 316.5 605 c 0
 298.166666667 639 276 656 250 656 c 0
EndSplineSet
Validated: 1
EndChar

StartChar: uni0313.grek
Encoding: 60164 60164 829
Width: 0
GlyphClass: 4
Flags: W
HStem: 646 84<-298.608 -228.386>
VStem: -228 30<570.414 645.722>
AnchorPoint: "GreekTopMarkSunken" -262 508 mark 0
AnchorPoint: "GreekCap" -168 712 mark 0
AnchorPoint: "GreekTopSunken" -262 508 mark 0
LayerCount: 2
Fore
SplineSet
-274 730 m 0
 -252 730 -233.833333333 720.5 -219.5 701.5 c 0
 -205.166666667 682.5 -198 660.333333333 -198 635 c 0
 -198 581 -223 538.666666667 -273 508 c 1
 -288 525 l 1
 -248 551 -228 583 -228 621 c 0
 -228 637.666666667 -233.333333333 646 -244 646 c 0
 -248.666666667 646 -255 643.666666667 -263 639 c 0
 -271 635 -278 633 -284 633 c 0
 -297.333333333 633 -308 636.666666667 -316 644 c 0
 -325.333333333 651.333333333 -330 662.666666667 -330 678 c 0
 -330 694 -324.666666667 706.666666667 -314 716 c 0
 -303.333333333 725.333333333 -290 730 -274 730 c 0
EndSplineSet
Validated: 1
Colour: ffff
EndChar

StartChar: uni0314.grek
Encoding: 60165 60165 830
Width: 0
GlyphClass: 4
Flags: W
HStem: 646 84<-293.614 -223.392>
VStem: -324 30<570.414 645.722>
AnchorPoint: "GreekTopMarkSunken" -262 508 mark 0
AnchorPoint: "GreekCap" -162 712 mark 0
AnchorPoint: "GreekTopSunken" -262 508 mark 0
LayerCount: 2
Fore
SplineSet
-248 730 m 0
 -232 730 -218.666666667 725.333333333 -208 716 c 0
 -197.333333333 706.666666667 -192 694 -192 678 c 0
 -192 662.666666667 -196.666666667 651.333333333 -206 644 c 0
 -214 636.666666667 -224.666666667 633 -238 633 c 0
 -244 633 -251 635 -259 639 c 0
 -267 643.666666667 -273.333333333 646 -278 646 c 0
 -288.666666667 646 -294 637.666666667 -294 621 c 0
 -294 583 -274 551 -234 525 c 1
 -249 508 l 1
 -299 538.666666667 -324 581 -324 635 c 0
 -324 660.333333333 -316.833333333 682.5 -302.5 701.5 c 0
 -288.166666667 720.5 -270 730 -248 730 c 0
EndSplineSet
Validated: 1
Colour: ffff
EndChar

StartChar: uni0313_gravecomb.grek
Encoding: 60166 60166 831
Width: 0
GlyphClass: 4
Flags: W
HStem: 646 84<-384.608 -314.386>
VStem: -314 30<570.414 645.722> -252 70.5<646.375 725.996>
AnchorPoint: "GreekTopMark" -262 508 mark 0
AnchorPoint: "GreekCap" -122 712 mark 0
AnchorPoint: "GreekTop" -262 508 mark 0
LayerCount: 2
Fore
SplineSet
-220 730 m 0
 -210.666666667 730 -202.666666667 727 -196 721 c 0
 -189.333333333 715 -184.5 708.833333333 -181.5 702.5 c 0
 -178.5 696.166666667 -175.333333333 687.333333333 -172 676 c 2
 -122 518 l 1
 -142 508 l 1
 -230 646 l 2
 -234 652.666666667 -237.666666667 658.333333333 -241 663 c 0
 -244.333333333 667.666666667 -247 673 -249 679 c 0
 -251 685 -252 691.666666667 -252 699 c 0
 -252 719.666666667 -241.333333333 730 -220 730 c 0
-360 730 m 0
 -338 730 -319.833333333 720.5 -305.5 701.5 c 0
 -291.166666667 682.5 -284 660.333333333 -284 635 c 0
 -284 581 -309 538.666666667 -359 508 c 1
 -374 525 l 1
 -334 551 -314 583 -314 621 c 0
 -314 637.666666667 -319.333333333 646 -330 646 c 0
 -334.666666667 646 -341 643.666666667 -349 639 c 0
 -357 635 -364 633 -370 633 c 0
 -383.333333333 633 -394 636.666666667 -402 644 c 0
 -411.333333333 651.333333333 -416 662.666666667 -416 678 c 0
 -416 694 -410.666666667 706.666666667 -400 716 c 0
 -389.333333333 725.333333333 -376 730 -360 730 c 0
EndSplineSet
Validated: 1
Colour: ffff
EndChar

StartChar: uni0314_gravecomb.grek
Encoding: 60167 60167 832
Width: 0
GlyphClass: 4
Flags: W
HStem: 646 84<-379.614 -309.392>
VStem: -410 30<570.414 645.722> -252 70.5<646.375 725.996>
AnchorPoint: "GreekTopMark" -262 508 mark 0
AnchorPoint: "GreekCap" -122 712 mark 0
AnchorPoint: "GreekTop" -262 508 mark 0
LayerCount: 2
Fore
SplineSet
-220 730 m 0
 -210.666666667 730 -202.666666667 727 -196 721 c 0
 -189.333333333 715 -184.5 708.833333333 -181.5 702.5 c 0
 -178.5 696.166666667 -175.333333333 687.333333333 -172 676 c 2
 -122 518 l 1
 -142 508 l 1
 -230 646 l 2
 -234 652.666666667 -237.666666667 658.333333333 -241 663 c 0
 -244.333333333 667.666666667 -247 673 -249 679 c 0
 -251 685 -252 691.666666667 -252 699 c 0
 -252 719.666666667 -241.333333333 730 -220 730 c 0
-334 730 m 0
 -318 730 -304.666666667 725.333333333 -294 716 c 0
 -283.333333333 706.666666667 -278 694 -278 678 c 0
 -278 662.666666667 -282.666666667 651.333333333 -292 644 c 0
 -300 636.666666667 -310.666666667 633 -324 633 c 0
 -330 633 -337 635 -345 639 c 0
 -353 643.666666667 -359.333333333 646 -364 646 c 0
 -374.666666667 646 -380 637.666666667 -380 621 c 0
 -380 583 -360 551 -320 525 c 1
 -335 508 l 1
 -385 538.666666667 -410 581 -410 635 c 0
 -410 660.333333333 -402.833333333 682.5 -388.5 701.5 c 0
 -374.166666667 720.5 -356 730 -334 730 c 0
EndSplineSet
Validated: 1
Colour: ffff
EndChar

StartChar: uni0313_acutecomb.grek
Encoding: 60168 60168 833
Width: 0
GlyphClass: 4
Flags: W
HStem: 646 84<-360.608 -290.386>
VStem: -290 30<570.414 645.722>
AnchorPoint: "GreekTopMark" -262 508 mark 0
AnchorPoint: "GreekCap" -94 712 mark 0
AnchorPoint: "GreekTop" -262 508 mark 0
LayerCount: 2
Fore
SplineSet
-146 730 m 0
 -124.666666667 730 -114 719.666666667 -114 699 c 0
 -114 691.666666667 -115 685 -117 679 c 0
 -119 673 -121.666666667 667.666666667 -125 663 c 0
 -128.333333333 658.333333333 -132 652.666666667 -136 646 c 2
 -224 508 l 1
 -244 518 l 1
 -194 676 l 2
 -190.666666667 687.333333333 -187.5 696.166666667 -184.5 702.5 c 0
 -181.5 708.833333333 -176.666666667 715 -170 721 c 0
 -163.333333333 727 -155.333333333 730 -146 730 c 0
-336 730 m 0
 -314 730 -295.833333333 720.5 -281.5 701.5 c 0
 -267.166666667 682.5 -260 660.333333333 -260 635 c 0
 -260 581 -285 538.666666667 -335 508 c 1
 -350 525 l 1
 -310 551 -290 583 -290 621 c 0
 -290 637.666666667 -295.333333333 646 -306 646 c 0
 -310.666666667 646 -317 643.666666667 -325 639 c 0
 -333 635 -340 633 -346 633 c 0
 -359.333333333 633 -370 636.666666667 -378 644 c 0
 -387.333333333 651.333333333 -392 662.666666667 -392 678 c 0
 -392 694 -386.666666667 706.666666667 -376 716 c 0
 -365.333333333 725.333333333 -352 730 -336 730 c 0
EndSplineSet
Validated: 1
Colour: ffff
EndChar

StartChar: uni0314.acutecomb.grek
Encoding: 60169 60169 834
Width: 0
GlyphClass: 4
Flags: W
HStem: 646 84<-355.614 -285.392>
VStem: -386 30<570.414 645.722> -184.5 70.5<646.375 725.996>
AnchorPoint: "GreekTopMark" -262 508 mark 0
AnchorPoint: "GreekCap" -94 712 mark 0
AnchorPoint: "GreekTop" -262 508 mark 0
LayerCount: 2
Fore
SplineSet
-146 730 m 0
 -124.666666667 730 -114 719.666666667 -114 699 c 0
 -114 691.666666667 -115 685 -117 679 c 0
 -119 673 -121.666666667 667.666666667 -125 663 c 0
 -128.333333333 658.333333333 -132 652.666666667 -136 646 c 2
 -224 508 l 1
 -244 518 l 1
 -194 676 l 2
 -190.666666667 687.333333333 -187.5 696.166666667 -184.5 702.5 c 0
 -181.5 708.833333333 -176.666666667 715 -170 721 c 0
 -163.333333333 727 -155.333333333 730 -146 730 c 0
-310 730 m 0
 -294 730 -280.666666667 725.333333333 -270 716 c 0
 -259.333333333 706.666666667 -254 694 -254 678 c 0
 -254 662.666666667 -258.666666667 651.333333333 -268 644 c 0
 -276 636.666666667 -286.666666667 633 -300 633 c 0
 -306 633 -313 635 -321 639 c 0
 -329 643.666666667 -335.333333333 646 -340 646 c 0
 -350.666666667 646 -356 637.666666667 -356 621 c 0
 -356 583 -336 551 -296 525 c 1
 -311 508 l 1
 -361 538.666666667 -386 581 -386 635 c 0
 -386 660.333333333 -378.833333333 682.5 -364.5 701.5 c 0
 -350.166666667 720.5 -332 730 -310 730 c 0
EndSplineSet
Validated: 1
Colour: ffff
EndChar

StartChar: uni0313_uni0342.grek
Encoding: 60170 60170 835
Width: 0
GlyphClass: 4
Flags: W
HStem: 613 86<-319.561 -229.711> 724 18<-195.643 -132.851> 816 18<-391.149 -328.357>
VStem: -434 40<759.333 811.383> -226 28<544.244 615.339> -130 40<746.617 798.667>
AnchorPoint: "GreekTopMarkSunken" -262 508 mark 0
AnchorPoint: "GreekCap" -134 712 mark 0
AnchorPoint: "GreekTopSunken" -262 508 mark 0
LayerCount: 2
Fore
SplineSet
-334 652 m 0
 -334 666 -329.333333333 677.333333333 -320 686 c 0
 -310.666666667 694.666666667 -299.333333333 699 -286 699 c 0
 -260 699 -238.833333333 689.166666667 -222.5 669.5 c 0
 -206.166666667 649.833333333 -198 627 -198 601 c 0
 -198 563 -214.666666667 528 -248 496 c 1
 -262 510 l 1
 -238 532.666666667 -226 556.666666667 -226 582 c 0
 -226 606.666666667 -235.666666667 619 -255 619 c 0
 -260.333333333 619 -265.5 618 -270.5 616 c 0
 -275.5 614 -282 613 -290 613 c 0
 -302.666666667 613 -313.166666667 616.833333333 -321.5 624.5 c 0
 -329.833333333 632.166666667 -334 641.333333333 -334 652 c 0
-434 765 m 0
 -434 787 -425.5 804 -408.5 816 c 0
 -391.5 828 -368.666666667 834 -340 834 c 0
 -317.333333333 834 -299 830.333333333 -285 823 c 0
 -271 815.666666667 -252 802 -228 782 c 0
 -196 755.333333333 -173 742 -159 742 c 0
 -139.666666667 742 -130 748 -130 760 c 0
 -130 765.333333333 -133.333333333 770 -140 774 c 0
 -148.666666667 779.333333333 -154.5 784.333333333 -157.5 789 c 0
 -160.5 793.666666667 -162 799.333333333 -162 806 c 0
 -162 814 -159.333333333 820.666666667 -154 826 c 0
 -148.666666667 831.333333333 -141.333333333 834 -132 834 c 0
 -120 834 -110 830 -102 822 c 0
 -94 814 -90 804.333333333 -90 793 c 0
 -90 771 -98.5 754 -115.5 742 c 0
 -132.5 730 -155.333333333 724 -184 724 c 0
 -206.666666667 724 -225 727.666666667 -239 735 c 0
 -253 742.333333333 -272 756 -296 776 c 0
 -328 802.666666667 -351 816 -365 816 c 0
 -384.333333333 816 -394 810 -394 798 c 0
 -394 792.666666667 -390.666666667 788 -384 784 c 0
 -375.333333333 778.666666667 -369.5 773.666666667 -366.5 769 c 0
 -363.5 764.333333333 -362 758.666666667 -362 752 c 0
 -362 744 -364.666666667 737.333333333 -370 732 c 0
 -375.333333333 726.666666667 -382.666666667 724 -392 724 c 0
 -404 724 -414 728 -422 736 c 0
 -430 744 -434 753.666666667 -434 765 c 0
EndSplineSet
Validated: 1
Colour: ffff
EndChar

StartChar: uni0314_uni0342.grek
Encoding: 60171 60171 836
Width: 0
GlyphClass: 4
Flags: W
HStem: 613 86<-302.289 -212.439> 724 18<-195.643 -132.851> 816 18<-391.149 -328.357>
VStem: -434 40<759.333 811.383> -334 28<544.244 615.339> -130 40<746.617 798.667>
AnchorPoint: "GreekTopMarkSunken" -262 508 mark 0
AnchorPoint: "GreekCap" -134 712 mark 0
AnchorPoint: "GreekTopSunken" -262 508 mark 0
LayerCount: 2
Fore
SplineSet
-434 765 m 0
 -434 787 -425.5 804 -408.5 816 c 0
 -391.5 828 -368.666666667 834 -340 834 c 0
 -317.333333333 834 -299 830.333333333 -285 823 c 0
 -271 815.666666667 -252 802 -228 782 c 0
 -196 755.333333333 -173 742 -159 742 c 0
 -139.666666667 742 -130 748 -130 760 c 0
 -130 765.333333333 -133.333333333 770 -140 774 c 0
 -148.666666667 779.333333333 -154.5 784.333333333 -157.5 789 c 0
 -160.5 793.666666667 -162 799.333333333 -162 806 c 0
 -162 814 -159.333333333 820.666666667 -154 826 c 0
 -148.666666667 831.333333333 -141.333333333 834 -132 834 c 0
 -120 834 -110 830 -102 822 c 0
 -94 814 -90 804.333333333 -90 793 c 0
 -90 771 -98.5 754 -115.5 742 c 0
 -132.5 730 -155.333333333 724 -184 724 c 0
 -206.666666667 724 -225 727.666666667 -239 735 c 0
 -253 742.333333333 -272 756 -296 776 c 0
 -328 802.666666667 -351 816 -365 816 c 0
 -384.333333333 816 -394 810 -394 798 c 0
 -394 792.666666667 -390.666666667 788 -384 784 c 0
 -375.333333333 778.666666667 -369.5 773.666666667 -366.5 769 c 0
 -363.5 764.333333333 -362 758.666666667 -362 752 c 0
 -362 744 -364.666666667 737.333333333 -370 732 c 0
 -375.333333333 726.666666667 -382.666666667 724 -392 724 c 0
 -404 724 -414 728 -422 736 c 0
 -430 744 -434 753.666666667 -434 765 c 0
-198 652 m 0
 -198 641.333333333 -202.166666667 632.166666667 -210.5 624.5 c 0
 -218.833333333 616.833333333 -229.333333333 613 -242 613 c 0
 -249.333333333 613 -255.666666667 614 -261 616 c 0
 -266.333333333 618 -271.666666667 619 -277 619 c 0
 -296.333333333 619 -306 606.666666667 -306 582 c 0
 -306 556.666666667 -294 532.666666667 -270 510 c 1
 -284 496 l 1
 -317.333333333 528 -334 563 -334 601 c 0
 -334 627 -325.833333333 649.833333333 -309.5 669.5 c 0
 -293.166666667 689.166666667 -272 699 -246 699 c 0
 -232.666666667 699 -221.333333333 694.666666667 -212 686 c 0
 -202.666666667 677.333333333 -198 666 -198 652 c 0
EndSplineSet
Validated: 1
Colour: ffff
EndChar

StartChar: uni0308_gravecomb.grek
Encoding: 60173 60173 837
Width: 0
GlyphClass: 4
Flags: W
HStem: 512 104<-404.53 -331.47 -192.53 -119.47>
VStem: -420 104<527.47 600.53> -362 70.5<678.375 757.996> -208 104<527.47 600.53>
AnchorPoint: "GreekTopMark" -262 508 mark 0
AnchorPoint: "GreekTop" -262 508 mark 0
LayerCount: 2
Fore
SplineSet
-156 616 m 256x90
 -141.333333333 616 -129 611 -119 601 c 0
 -109 591 -104 578.666666667 -104 564 c 256
 -104 549.333333333 -109 537 -119 527 c 0
 -129 517 -141.333333333 512 -156 512 c 256
 -170.666666667 512 -183 517 -193 527 c 0
 -203 537 -208 549.333333333 -208 564 c 256
 -208 578.666666667 -203 591 -193 601 c 0
 -183 611 -170.666666667 616 -156 616 c 256x90
-368 616 m 256
 -353.333333333 616 -341 611 -331 601 c 0
 -321 591 -316 578.666666667 -316 564 c 256
 -316 549.333333333 -321 537 -331 527 c 0
 -341 517 -353.333333333 512 -368 512 c 256
 -382.666666667 512 -395 517 -405 527 c 0
 -415 537 -420 549.333333333 -420 564 c 256xd0
 -420 578.666666667 -415 591 -405 601 c 0
 -395 611 -382.666666667 616 -368 616 c 256
-330 762 m 0
 -320.666666667 762 -312.666666667 759 -306 753 c 0
 -299.333333333 747 -294.5 740.833333333 -291.5 734.5 c 0
 -288.5 728.166666667 -285.333333333 719.333333333 -282 708 c 2
 -232 550 l 1
 -252 540 l 1
 -340 678 l 2
 -344 684.666666667 -347.666666667 690.333333333 -351 695 c 0
 -354.333333333 699.666666667 -357 705 -359 711 c 0
 -361 717 -362 723.666666667 -362 731 c 0xb0
 -362 751.666666667 -351.333333333 762 -330 762 c 0
EndSplineSet
Validated: 1
Colour: ffff
EndChar

StartChar: uni0308_uni0342.grek
Encoding: 60174 60174 838
Width: 0
GlyphClass: 4
Flags: W
HStem: 508 104<-392.53 -319.47 -204.53 -131.47> 652 18<-195.643 -132.851> 744 18<-391.149 -328.357>
VStem: -434 40<687.333 739.383> -408 104<523.47 596.53> -220 104<523.47 596.53> -130 40<674.617 726.667>
AnchorPoint: "GreekTopMark" -262 508 mark 0
AnchorPoint: "GreekTop" -262 508 mark 0
LayerCount: 2
Fore
SplineSet
-434 693 m 0xf2
 -434 715 -425.5 732 -408.5 744 c 0
 -391.5 756 -368.666666667 762 -340 762 c 0
 -317.333333333 762 -299 758.333333333 -285 751 c 0
 -271 743.666666667 -252 730 -228 710 c 0
 -196 683.333333333 -173 670 -159 670 c 0
 -139.666666667 670 -130 676 -130 688 c 0
 -130 693.333333333 -133.333333333 698 -140 702 c 0
 -148.666666667 707.333333333 -154.5 712.333333333 -157.5 717 c 0
 -160.5 721.666666667 -162 727.333333333 -162 734 c 0
 -162 742 -159.333333333 748.666666667 -154 754 c 0
 -148.666666667 759.333333333 -141.333333333 762 -132 762 c 0
 -120 762 -110 758 -102 750 c 0
 -94 742 -90 732.333333333 -90 721 c 0
 -90 699 -98.5 682 -115.5 670 c 0
 -132.5 658 -155.333333333 652 -184 652 c 0
 -206.666666667 652 -225 655.666666667 -239 663 c 0
 -253 670.333333333 -272 684 -296 704 c 0
 -328 730.666666667 -351 744 -365 744 c 0
 -384.333333333 744 -394 738 -394 726 c 0
 -394 720.666666667 -390.666666667 716 -384 712 c 0
 -375.333333333 706.666666667 -369.5 701.666666667 -366.5 697 c 0
 -363.5 692.333333333 -362 686.666666667 -362 680 c 0
 -362 672 -364.666666667 665.333333333 -370 660 c 0
 -375.333333333 654.666666667 -382.666666667 652 -392 652 c 0
 -404 652 -414 656 -422 664 c 0
 -430 672 -434 681.666666667 -434 693 c 0xf2
-168 612 m 256
 -153.333333333 612 -141 607 -131 597 c 0
 -121 587 -116 574.666666667 -116 560 c 256
 -116 545.333333333 -121 533 -131 523 c 0
 -141 513 -153.333333333 508 -168 508 c 256
 -182.666666667 508 -195 513 -205 523 c 0
 -215 533 -220 545.333333333 -220 560 c 256xe4
 -220 574.666666667 -215 587 -205 597 c 0
 -195 607 -182.666666667 612 -168 612 c 256
-356 612 m 256
 -341.333333333 612 -329 607 -319 597 c 0
 -309 587 -304 574.666666667 -304 560 c 256
 -304 545.333333333 -309 533 -319 523 c 0
 -329 513 -341.333333333 508 -356 508 c 256
 -370.666666667 508 -383 513 -393 523 c 0
 -403 533 -408 545.333333333 -408 560 c 256xe8
 -408 574.666666667 -403 587 -393 597 c 0
 -383 607 -370.666666667 612 -356 612 c 256
EndSplineSet
Validated: 1
Colour: ffff
EndChar

StartChar: uni1FC0.iota
Encoding: 60178 60178 839
Width: 440
GlyphClass: 2
Flags: W
HStem: 553 20<282.333 336.165> 659 20<103.835 157.667>
VStem: 62 38<568.623 650.787> 340 38<581.213 663.377>
DStem2: 226 644.5 160 636 0.743979 -0.668203<-75.5081 104.668>
LayerCount: 2
Fore
SplineSet
62 594 m 0
 62 620 69.8333333333 640.666666667 85.5 656 c 0
 101.166666667 671.333333333 123 679 151 679 c 0
 164.333333333 679 177.833333333 675.5 191.5 668.5 c 0
 205.166666667 661.5 216.666666667 653.5 226 644.5 c 0
 235.333333333 635.5 244.666666667 627 254 619 c 0
 264 610.333333333 272.666666667 602.666666667 280 596 c 0
 287.333333333 589.333333333 294.5 583.833333333 301.5 579.5 c 0
 308.5 575.166666667 314.666666667 573 320 573 c 0
 333.333333333 573 340 580 340 594 c 0
 340 601.333333333 338 609 334 617 c 0
 325.333333333 633 321 644 321 650 c 0
 321 658 323.333333333 664.833333333 328 670.5 c 0
 332.666666667 676.166666667 339 679 347 679 c 0
 367.666666667 679 378 665.333333333 378 638 c 0
 378 612 370.166666667 591.333333333 354.5 576 c 0
 338.833333333 560.666666667 317 553 289 553 c 0
 275.666666667 553 262.166666667 556.5 248.5 563.5 c 0
 234.833333333 570.5 223.333333333 578.5 214 587.5 c 0
 204.666666667 596.5 195.333333333 605 186 613 c 0
 176 621.666666667 167.333333333 629.333333333 160 636 c 0
 152.666666667 642.666666667 145.5 648.166666667 138.5 652.5 c 0
 131.5 656.833333333 125.333333333 659 120 659 c 0
 106.666666667 659 100 652 100 638 c 0
 100 630.666666667 102 623 106 615 c 0
 114.666666667 599 119 588 119 582 c 0
 119 574 116.666666667 567.166666667 112 561.5 c 0
 107.333333333 555.833333333 101 553 93 553 c 0
 72.3333333333 553 62 566.666666667 62 594 c 0
EndSplineSet
Validated: 1
EndChar

